<svg width="328" height="260" viewBox="0 0 328 260" fill="none" xmlns="http://www.w3.org/2000/svg">
<rect width="328" height="260" rx="8" fill="white"/>
<path d="M23 236H303" stroke="#7585A2"/>
<path d="M43 186H303" stroke="#CFD8E7" stroke-dasharray="2 4"/>
<path d="M43 136H303" stroke="#CFD8E7" stroke-dasharray="2 4"/>
<path d="M43 86H303" stroke="#CFD8E7" stroke-dasharray="2 4"/>
<path d="M43 36H303" stroke="#CFD8E7" stroke-dasharray="2 4"/>
<path d="M8.18848 233.098C6.61621 233.098 5.71777 231.779 5.71777 229.465C5.71777 227.17 6.63574 225.832 8.18848 225.832C9.74121 225.832 10.6592 227.17 10.6592 229.465C10.6592 231.779 9.75098 233.098 8.18848 233.098ZM8.18848 232.316C9.2041 232.316 9.7998 231.291 9.7998 229.465C9.7998 227.639 9.2041 226.594 8.18848 226.594C7.17285 226.594 6.56738 227.639 6.56738 229.465C6.56738 231.291 7.16309 232.316 8.18848 232.316ZM13.3252 229.211C12.4072 229.211 11.9092 228.527 11.9092 227.512C11.9092 226.516 12.4268 225.822 13.3252 225.822C14.2529 225.822 14.7412 226.516 14.7412 227.512C14.7412 228.527 14.2334 229.211 13.3252 229.211ZM13.3252 228.605C13.8037 228.605 14.0283 228.176 14.0283 227.512C14.0283 226.857 13.8232 226.418 13.3252 226.428C12.8564 226.428 12.6221 226.857 12.6221 227.512C12.6221 228.176 12.8564 228.605 13.3252 228.605ZM17.6416 233.098C16.7236 233.107 16.2158 232.414 16.2256 231.408C16.2158 230.402 16.7432 229.709 17.6416 229.709C18.5596 229.709 19.0479 230.402 19.0479 231.408C19.0479 232.414 18.54 233.107 17.6416 233.098ZM17.6416 232.492C18.1104 232.492 18.335 232.062 18.335 231.408C18.335 230.744 18.1299 230.305 17.6416 230.314C17.1729 230.324 16.9287 230.744 16.9287 231.408C16.9287 232.062 17.1631 232.492 17.6416 232.492ZM12.6025 233L17.4658 225.93H18.2568L13.3936 233H12.6025Z" fill="#ABB7CD"/>
<path d="M2.93457 190L2.9248 189.355L5.33691 186.816C6.17676 185.928 6.57715 185.449 6.57715 184.795C6.57715 184.072 5.96191 183.594 5.1709 183.594C4.33105 183.594 3.79395 184.131 3.79395 184.922H2.96387C2.9541 183.672 3.9209 182.832 5.2002 182.832C6.47949 182.832 7.39746 183.691 7.39746 184.795C7.39746 185.586 7.02637 186.201 5.77637 187.49L4.15527 189.16V189.219H7.52441V190H2.93457ZM11.1084 190.098C9.8291 190.098 8.8623 189.307 8.81348 188.223H9.66309C9.73145 188.857 10.3467 189.326 11.1084 189.326C12.0264 189.326 12.6904 188.652 12.6904 187.764C12.6904 186.846 11.9971 186.172 11.0498 186.162C10.4541 186.152 9.99512 186.338 9.73145 186.797H8.88184L9.37988 182.93H13.208V183.711H10.1123L9.84863 185.781H9.91699C10.2295 185.537 10.708 185.371 11.2061 185.371C12.5537 185.371 13.5498 186.367 13.5498 187.744C13.5498 189.111 12.5146 190.098 11.1084 190.098ZM16.2646 186.211C15.3467 186.211 14.8486 185.527 14.8486 184.512C14.8486 183.516 15.3662 182.822 16.2646 182.822C17.1924 182.822 17.6807 183.516 17.6807 184.512C17.6807 185.527 17.1729 186.211 16.2646 186.211ZM16.2646 185.605C16.7432 185.605 16.9678 185.176 16.9678 184.512C16.9678 183.857 16.7627 183.418 16.2646 183.428C15.7959 183.428 15.5615 183.857 15.5615 184.512C15.5615 185.176 15.7959 185.605 16.2646 185.605ZM20.5811 190.098C19.6631 190.107 19.1553 189.414 19.165 188.408C19.1553 187.402 19.6826 186.709 20.5811 186.709C21.499 186.709 21.9873 187.402 21.9873 188.408C21.9873 189.414 21.4795 190.107 20.5811 190.098ZM20.5811 189.492C21.0498 189.492 21.2744 189.062 21.2744 188.408C21.2744 187.744 21.0693 187.305 20.5811 187.314C20.1123 187.324 19.8682 187.744 19.8682 188.408C19.8682 189.062 20.1025 189.492 20.5811 189.492ZM15.542 190L20.4053 182.93H21.1963L16.333 190H15.542Z" fill="#ABB7CD"/>
<path d="M5.19531 140.098C3.91602 140.098 2.94922 139.307 2.90039 138.223H3.75C3.81836 138.857 4.43359 139.326 5.19531 139.326C6.11328 139.326 6.77734 138.652 6.77734 137.764C6.77734 136.846 6.08398 136.172 5.13672 136.162C4.54102 136.152 4.08203 136.338 3.81836 136.797H2.96875L3.4668 132.93H7.29492V133.711H4.19922L3.93555 135.781H4.00391C4.31641 135.537 4.79492 135.371 5.29297 135.371C6.64062 135.371 7.63672 136.367 7.63672 137.744C7.63672 139.111 6.60156 140.098 5.19531 140.098ZM11.1719 140.098C9.59961 140.098 8.70117 138.779 8.70117 136.465C8.70117 134.17 9.61914 132.832 11.1719 132.832C12.7246 132.832 13.6426 134.17 13.6426 136.465C13.6426 138.779 12.7344 140.098 11.1719 140.098ZM11.1719 139.316C12.1875 139.316 12.7832 138.291 12.7832 136.465C12.7832 134.639 12.1875 133.594 11.1719 133.594C10.1562 133.594 9.55078 134.639 9.55078 136.465C9.55078 138.291 10.1465 139.316 11.1719 139.316ZM16.3086 136.211C15.3906 136.211 14.8926 135.527 14.8926 134.512C14.8926 133.516 15.4102 132.822 16.3086 132.822C17.2363 132.822 17.7246 133.516 17.7246 134.512C17.7246 135.527 17.2168 136.211 16.3086 136.211ZM16.3086 135.605C16.7871 135.605 17.0117 135.176 17.0117 134.512C17.0117 133.857 16.8066 133.418 16.3086 133.428C15.8398 133.428 15.6055 133.857 15.6055 134.512C15.6055 135.176 15.8398 135.605 16.3086 135.605ZM20.625 140.098C19.707 140.107 19.1992 139.414 19.209 138.408C19.1992 137.402 19.7266 136.709 20.625 136.709C21.543 136.709 22.0312 137.402 22.0312 138.408C22.0312 139.414 21.5234 140.107 20.625 140.098ZM20.625 139.492C21.0938 139.492 21.3184 139.062 21.3184 138.408C21.3184 137.744 21.1133 137.305 20.625 137.314C20.1562 137.324 19.9121 137.744 19.9121 138.408C19.9121 139.062 20.1465 139.492 20.625 139.492ZM15.5859 140L20.4492 132.93H21.2402L16.377 140H15.5859Z" fill="#ABB7CD"/>
<path d="M3.38379 90L6.62598 83.7598V83.7109H2.88574V82.9297H7.53418V83.75L4.30176 90H3.38379ZM10.8838 90.0977C9.60449 90.0977 8.6377 89.3066 8.58887 88.2227H9.43848C9.50684 88.8574 10.1221 89.3262 10.8838 89.3262C11.8018 89.3262 12.4658 88.6523 12.4658 87.7637C12.4658 86.8457 11.7725 86.1719 10.8252 86.1621C10.2295 86.1523 9.77051 86.3379 9.50684 86.7969H8.65723L9.15527 82.9297H12.9834V83.7109H9.8877L9.62402 85.7812H9.69238C10.0049 85.5371 10.4834 85.3711 10.9814 85.3711C12.3291 85.3711 13.3252 86.3672 13.3252 87.7441C13.3252 89.1113 12.29 90.0977 10.8838 90.0977ZM16.04 86.2109C15.1221 86.2109 14.624 85.5273 14.624 84.5117C14.624 83.5156 15.1416 82.8223 16.04 82.8223C16.9678 82.8223 17.4561 83.5156 17.4561 84.5117C17.4561 85.5273 16.9482 86.2109 16.04 86.2109ZM16.04 85.6055C16.5186 85.6055 16.7432 85.1758 16.7432 84.5117C16.7432 83.8574 16.5381 83.418 16.04 83.4277C15.5713 83.4277 15.3369 83.8574 15.3369 84.5117C15.3369 85.1758 15.5713 85.6055 16.04 85.6055ZM20.3564 90.0977C19.4385 90.1074 18.9307 89.4141 18.9404 88.4082C18.9307 87.4023 19.458 86.709 20.3564 86.709C21.2744 86.709 21.7627 87.4023 21.7627 88.4082C21.7627 89.4141 21.2549 90.1074 20.3564 90.0977ZM20.3564 89.4922C20.8252 89.4922 21.0498 89.0625 21.0498 88.4082C21.0498 87.7441 20.8447 87.3047 20.3564 87.3145C19.8877 87.3242 19.6436 87.7441 19.6436 88.4082C19.6436 89.0625 19.8779 89.4922 20.3564 89.4922ZM15.3174 90L20.1807 82.9297H20.9717L16.1084 90H15.3174Z" fill="#ABB7CD"/>
<path d="M3.20312 32.9297V40H2.31445V33.8477H2.27539L0.556641 34.9902V34.1016L2.31445 32.9297H3.20312ZM7.40234 40.0977C5.83008 40.0977 4.93164 38.7793 4.93164 36.4648C4.93164 34.1699 5.84961 32.832 7.40234 32.832C8.95508 32.832 9.87305 34.1699 9.87305 36.4648C9.87305 38.7793 8.96484 40.0977 7.40234 40.0977ZM7.40234 39.3164C8.41797 39.3164 9.01367 38.291 9.01367 36.4648C9.01367 34.6387 8.41797 33.5938 7.40234 33.5938C6.38672 33.5938 5.78125 34.6387 5.78125 36.4648C5.78125 38.291 6.37695 39.3164 7.40234 39.3164ZM13.3594 40.0977C11.7871 40.0977 10.8887 38.7793 10.8887 36.4648C10.8887 34.1699 11.8066 32.832 13.3594 32.832C14.9121 32.832 15.8301 34.1699 15.8301 36.4648C15.8301 38.7793 14.9219 40.0977 13.3594 40.0977ZM13.3594 39.3164C14.375 39.3164 14.9707 38.291 14.9707 36.4648C14.9707 34.6387 14.375 33.5938 13.3594 33.5938C12.3438 33.5938 11.7383 34.6387 11.7383 36.4648C11.7383 38.291 12.334 39.3164 13.3594 39.3164ZM18.4961 36.2109C17.5781 36.2109 17.0801 35.5273 17.0801 34.5117C17.0801 33.5156 17.5977 32.8223 18.4961 32.8223C19.4238 32.8223 19.9121 33.5156 19.9121 34.5117C19.9121 35.5273 19.4043 36.2109 18.4961 36.2109ZM18.4961 35.6055C18.9746 35.6055 19.1992 35.1758 19.1992 34.5117C19.1992 33.8574 18.9941 33.418 18.4961 33.4277C18.0273 33.4277 17.793 33.8574 17.793 34.5117C17.793 35.1758 18.0273 35.6055 18.4961 35.6055ZM22.8125 40.0977C21.8945 40.1074 21.3867 39.4141 21.3965 38.4082C21.3867 37.4023 21.9141 36.709 22.8125 36.709C23.7305 36.709 24.2188 37.4023 24.2188 38.4082C24.2188 39.4141 23.7109 40.1074 22.8125 40.0977ZM22.8125 39.4922C23.2812 39.4922 23.5059 39.0625 23.5059 38.4082C23.5059 37.7441 23.3008 37.3047 22.8125 37.3145C22.3438 37.3242 22.0996 37.7441 22.0996 38.4082C22.0996 39.0625 22.334 39.4922 22.8125 39.4922ZM17.7734 40L22.6367 32.9297H23.4277L18.5645 40H17.7734Z" fill="#ABB7CD"/>
<path d="M104.576 247.621C104.564 250.633 103.545 253.387 99.7949 255.227L99.2793 254.523C101.242 253.574 102.42 252.367 103.053 250.961L99.4785 251.301L99.3262 250.492L103.334 250.223C103.516 249.637 103.621 249.021 103.662 248.383H99.8535V247.621H104.576ZM107.236 246.531V250.773H108.924V251.547H107.236V256.949H106.322V246.531H107.236ZM114.947 247.621C114.936 250.633 113.916 253.387 110.166 255.227L109.65 254.523C111.613 253.574 112.791 252.367 113.424 250.961L109.85 251.301L109.697 250.492L113.705 250.223C113.887 249.637 113.992 249.021 114.033 248.383H110.225V247.621H114.947ZM117.607 246.531V250.773H119.295V251.547H117.607V256.949H116.693V246.531H117.607ZM124.662 247.211C126.877 247.223 128.471 248.301 128.471 249.941C128.471 251.494 127.088 252.525 125.107 252.648V254.84H129.455V255.613H119.916V254.84H124.205V252.648C122.23 252.52 120.854 251.488 120.854 249.941C120.854 248.301 122.447 247.223 124.662 247.211ZM124.662 247.973C122.975 247.973 121.744 248.77 121.744 249.941C121.744 251.148 122.975 251.922 124.662 251.934C126.35 251.922 127.58 251.148 127.58 249.941C127.58 248.77 126.35 247.973 124.662 247.973ZM142.146 246.543V252.215H141.268V249.707H139.885V252.133H139.018V246.742H139.885V248.934H141.268V246.543H142.146ZM137.811 247.27V251.664H133.779V247.27H137.811ZM134.646 248.008V250.914H136.955V248.008H134.646ZM136.193 252.684V253.926H141.244V252.684H142.146V256.809H135.279V252.684H136.193ZM136.193 256.059H141.244V254.688H136.193V256.059Z" fill="#303D53"/>
<path d="M184.924 247.668V253.504C186.049 253.492 187.115 253.428 188.369 253.164L188.498 253.961C187.104 254.254 185.943 254.312 184.666 254.312H184.01V247.668H184.924ZM192.412 246.531V256.949H191.533V246.531H192.412ZM190.186 246.789V256.422H189.307V250.809H186.928V250.047H189.307V246.789H190.186ZM202.455 246.531V256.973H201.529V246.531H202.455ZM196.912 247.34C198.459 247.352 199.572 248.758 199.572 250.973C199.572 253.188 198.459 254.594 196.912 254.594C195.354 254.594 194.252 253.188 194.252 250.973C194.252 248.758 195.354 247.352 196.912 247.34ZM196.912 248.16C195.869 248.172 195.143 249.273 195.143 250.973C195.143 252.672 195.869 253.773 196.912 253.773C197.955 253.773 198.682 252.672 198.682 250.973C198.682 249.273 197.955 248.172 196.912 248.16ZM212.873 246.531V256.973H211.959V251.172H209.463V254.336H204.658V247.352H205.584V250.07H208.561V247.352H209.463V250.41H211.959V246.531H212.873ZM205.584 253.574H208.561V250.809H205.584V253.574ZM218.334 249.73C218.334 251.5 219.623 253.293 221.158 253.961L220.643 254.688C219.424 254.131 218.369 252.93 217.889 251.488C217.396 253.018 216.348 254.348 215.158 254.945L214.607 254.219C216.096 253.504 217.396 251.535 217.408 249.73V248.371H214.947V247.609H220.818V248.371H218.334V249.73ZM223.197 246.531V256.949H222.271V246.531H223.197ZM233.393 251.418V252.168H230.17V254.863H234.518V255.637H224.979V254.863H229.268V252.168H226.197V247.387H233.287V248.137H227.123V251.418H233.393Z" fill="#303D53"/>
<path d="M195.191 13.1016V23H193.4V14.8379H193.346L191.035 16.3145V14.6875L193.482 13.1016H195.191ZM201.248 23.1367C198.869 23.1367 197.447 21.291 197.447 18.0508C197.447 14.8242 198.869 12.9648 201.248 12.9648C203.613 12.9648 205.049 14.8242 205.049 18.0508C205.049 21.291 203.627 23.1367 201.248 23.1367ZM201.248 21.6465C202.492 21.6465 203.258 20.4297 203.258 18.0508C203.258 15.6855 202.479 14.4414 201.248 14.4414C200.018 14.4414 199.238 15.6855 199.238 18.0508C199.238 20.4297 200.004 21.6465 201.248 21.6465ZM210.189 23.1367C207.811 23.1367 206.389 21.291 206.389 18.0508C206.389 14.8242 207.811 12.9648 210.189 12.9648C212.555 12.9648 213.99 14.8242 213.99 18.0508C213.99 21.291 212.568 23.1367 210.189 23.1367ZM210.189 21.6465C211.434 21.6465 212.199 20.4297 212.199 18.0508C212.199 15.6855 211.42 14.4414 210.189 14.4414C208.959 14.4414 208.18 15.6855 208.18 18.0508C208.18 20.4297 208.945 21.6465 210.189 21.6465ZM217.914 17.9277C216.506 17.9277 215.74 16.8887 215.74 15.3711C215.74 13.8672 216.533 12.8281 217.914 12.8281C219.35 12.8281 220.102 13.8672 220.102 15.3711C220.102 16.9023 219.322 17.9277 217.914 17.9277ZM217.914 16.834C218.529 16.834 218.83 16.2598 218.83 15.3711C218.83 14.5098 218.557 13.9082 217.914 13.9219C217.312 13.9219 216.998 14.5098 216.998 15.3711C216.998 16.2598 217.312 16.834 217.914 16.834ZM224.381 23.2598C222.973 23.2734 222.207 22.2207 222.207 20.7168C222.207 19.1992 223 18.1602 224.381 18.1602C225.803 18.1602 226.568 19.1992 226.568 20.7168C226.568 22.2344 225.789 23.2734 224.381 23.2598ZM224.381 22.166C225.01 22.166 225.297 21.5918 225.297 20.7168C225.297 19.8418 225.023 19.2402 224.381 19.2539C223.779 19.2539 223.465 19.8555 223.465 20.7168C223.465 21.5918 223.779 22.166 224.381 22.166ZM217.012 23L223.82 13.1016H225.201L218.393 23H217.012Z" fill="#03C75A"/>
<mask id="path-15-inside-1_1171_16705" fill="white">
<path d="M227 36C229.209 36 231 37.7909 231 40L231 236L187 236L187 40C187 37.7909 188.791 36 191 36L227 36Z"/>
</mask>
<path d="M227 36C229.209 36 231 37.7909 231 40L231 236L187 236L187 40C187 37.7909 188.791 36 191 36L227 36Z" fill="#03C75A"/>
<path d="M227 34C230.314 34 233 36.6863 233 40L233 236L229 236L229 40C229 38.8954 228.105 38 227 38L227 34ZM185 236L185 40C185 36.6863 187.686 34 191 34L191 38C189.895 38 189 38.8954 189 40L189 236L185 236ZM185 40C185 36.6863 187.686 34 191 34L227 34C230.314 34 233 36.6863 233 40L229 40C229 38.8954 228.105 38 227 38L191 38C189.895 38 189 38.8954 189 40L185 40ZM231 236L187 236L231 236Z" fill="#029C47" mask="url(#path-15-inside-1_1171_16705)"/>
<path d="M114.506 218.137C112.127 218.137 110.705 216.291 110.705 213.051C110.705 209.824 112.127 207.965 114.506 207.965C116.871 207.965 118.307 209.824 118.307 213.051C118.307 216.291 116.885 218.137 114.506 218.137ZM114.506 216.646C115.75 216.646 116.516 215.43 116.516 213.051C116.516 210.686 115.736 209.441 114.506 209.441C113.275 209.441 112.496 210.686 112.496 213.051C112.496 215.43 113.262 216.646 114.506 216.646ZM122.23 212.928C120.822 212.928 120.057 211.889 120.057 210.371C120.057 208.867 120.85 207.828 122.23 207.828C123.666 207.828 124.418 208.867 124.418 210.371C124.418 211.902 123.639 212.928 122.23 212.928ZM122.23 211.834C122.846 211.834 123.146 211.26 123.146 210.371C123.146 209.51 122.873 208.908 122.23 208.922C121.629 208.922 121.314 209.51 121.314 210.371C121.314 211.26 121.629 211.834 122.23 211.834ZM128.697 218.26C127.289 218.273 126.523 217.221 126.523 215.717C126.523 214.199 127.316 213.16 128.697 213.16C130.119 213.16 130.885 214.199 130.885 215.717C130.885 217.234 130.105 218.273 128.697 218.26ZM128.697 217.166C129.326 217.166 129.613 216.592 129.613 215.717C129.613 214.842 129.34 214.24 128.697 214.254C128.096 214.254 127.781 214.855 127.781 215.717C127.781 216.592 128.096 217.166 128.697 217.166ZM121.328 218L128.137 208.102H129.518L122.709 218H121.328Z" fill="#007DFF"/>
<mask id="path-18-inside-2_1171_16705" fill="white">
<path d="M139 231C141.209 231 143 232.791 143 235L143 236L99 236L99 235C99 232.791 100.791 231 103 231L139 231Z"/>
</mask>
<path d="M139 231C141.209 231 143 232.791 143 235L143 236L99 236L99 235C99 232.791 100.791 231 103 231L139 231Z" fill="#FEE500"/>
<path d="M139 229C142.314 229 145 231.686 145 235L145 236L141 236L141 235C141 233.895 140.105 233 139 233L139 229ZM97 236L97 235C97 231.686 99.6863 229 103 229L103 233C101.895 233 101 233.895 101 235L101 236L97 236ZM97 235C97 231.686 99.6863 229 103 229L139 229C142.314 229 145 231.686 145 235L141 235C141 233.895 140.105 233 139 233L103 233C101.895 233 101 233.895 101 235L97 235ZM143 236L99 236L143 236Z" fill="#FFA435" mask="url(#path-18-inside-2_1171_16705)"/>
</svg>
