<svg width="328" height="184" viewBox="0 0 328 184" fill="none" xmlns="http://www.w3.org/2000/svg">
<g clip-path="url(#clip0_2135_52979)">
<rect width="328" height="184" rx="8" fill="#E8EDFC"/>
<path opacity="0.1" d="M-224 -32L220 187H-224V-32Z" fill="url(#paint0_linear_2135_52979)"/>
<path opacity="0.4" d="M-224 -19L220 200H-224V-19Z" fill="url(#paint1_linear_2135_52979)"/>
<path d="M-203 5L241 224H-203V5Z" fill="url(#paint2_linear_2135_52979)"/>
<path opacity="0.1" d="M414 135L-30 -84L414 -84L414 135Z" fill="url(#paint3_linear_2135_52979)"/>
<path opacity="0.4" d="M414 122L-30 -97L414 -97L414 122Z" fill="url(#paint4_linear_2135_52979)"/>
<path d="M393 98L-51 -121L393 -121L393 98Z" fill="url(#paint5_linear_2135_52979)"/>
<path d="M107.719 94.5V97.3125H96.5312V99.6562C101.594 100 104.562 101.75 104.594 104.688C104.562 107.938 100.906 109.75 94.8125 109.75C88.6562 109.75 84.9688 107.938 84.9688 104.688C84.9688 101.75 87.9688 99.9844 93.0938 99.6562V97.3125H81.9688V94.5H107.719ZM94.8125 102.281C90.6875 102.312 88.4688 103.125 88.5 104.688C88.4688 106.25 90.6875 107.094 94.8125 107.094C98.8438 107.094 101.094 106.25 101.125 104.688C101.094 103.125 98.8438 102.312 94.8125 102.281ZM105.406 82.7812V85.5625H97.2812C97.8281 87.8906 101.203 89.9844 106.5 90.4688L105.281 93.2188C100.156 92.7031 96.3438 90.6562 94.8125 87.7812C93.2812 90.6406 89.5312 92.7031 84.4062 93.2188L83.2188 90.4688C88.4062 89.9844 91.7812 87.8594 92.375 85.5625H84.3125V82.7812H105.406ZM132.688 84.125V86.8438C132.656 90.3438 132.656 94.2812 131.562 100.188L128.062 99.8125C129.156 94.3125 129.156 90.2969 129.188 86.9062H112.312V84.125H132.688ZM135.375 103.281V106.125H109.625V103.281H119.125V93.4688H122.562V103.281H135.375ZM152 83.875C152 87.4375 155.969 91.0312 162 91.8125L160.625 94.625C155.828 93.9062 152.016 91.5469 150.188 88.3438C148.328 91.5469 144.531 93.9062 139.781 94.625L138.406 91.8125C144.375 91.0312 148.344 87.4375 148.344 83.875V82.4375H152V83.875ZM163.031 97.0625V99.9375H151.812V109.781H148.375V99.9375H137.281V97.0625H163.031ZM188.469 81.5625V97.5312H184.969V81.5625H188.469ZM188.469 98.9375V109.438H169.719V98.9375H188.469ZM173.156 101.688V106.625H185.062V101.688H173.156ZM175.469 85.375C175.469 88.9688 177.875 92.3438 182.281 93.75L180.594 96.4062C177.328 95.3906 174.984 93.3125 173.719 90.5938C172.422 93.5156 170.047 95.8438 166.656 96.9688L164.938 94.2188C169.531 92.75 171.875 89.0938 171.875 85.375V82.625H175.469V85.375ZM208.5 84V86.7812H206.031V95.125C207.266 95.0469 208.469 94.9219 209.625 94.7812L209.875 97.3438C204.188 98.2812 197.688 98.4062 192.906 98.4062L192.531 95.5938L195.781 95.5625V86.7812H193.281V84H208.5ZM214.875 81.5625V89.7188H218.812V92.625H214.875V102.344H211.406V81.5625H214.875ZM216 106.406V109.219H196.781V100.375H200.25V106.406H216ZM199.125 95.4688C200.281 95.4531 201.469 95.4062 202.656 95.3438V86.7812H199.125V95.4688ZM236.031 83.625V85.3125C236 87.25 236 90.0312 235.344 93.625L231.906 93.3125C232.453 90.3906 232.562 88.2344 232.625 86.5H221.625V83.625H236.031ZM228.906 90.0625V95.6875C231.828 95.5781 234.828 95.3594 237.562 94.9688L237.75 97.4688C231.875 98.5312 225.219 98.625 220.25 98.6562L219.938 95.875C221.609 95.8594 223.484 95.8438 225.469 95.8125V90.0625H228.906ZM242.781 81.5312V90.3438H246.438V93.25H242.781V102.688H239.219V81.5312H242.781ZM243.688 106.406V109.219H224.156V100.812H227.656V106.406H243.688Z" fill="#303D53"/>
<path d="M113.925 29.8672C113.911 31.6035 115.142 33.1348 116.933 33.7363L116.331 34.5703C114.991 34.0645 113.938 33.0801 113.419 31.7949C112.893 33.251 111.778 34.3857 110.315 34.9395L109.728 34.0645C111.601 33.4082 112.845 31.7949 112.858 29.9082V28.6504H113.925V29.8672ZM119.817 27.9531V35.1582H118.737V31.4531H116.03V30.5645H118.737V27.9531H119.817ZM115.784 35.5137C118.313 35.5137 119.858 36.3477 119.858 37.8105C119.858 39.2598 118.313 40.0801 115.784 40.0801C113.255 40.0801 111.71 39.2598 111.71 37.8105C111.71 36.3477 113.255 35.5137 115.784 35.5137ZM115.784 36.3613C113.925 36.3613 112.763 36.9082 112.776 37.8105C112.763 38.6855 113.925 39.2188 115.784 39.2188C117.644 39.2188 118.792 38.6855 118.792 37.8105C118.792 36.9082 117.644 36.3613 115.784 36.3613ZM125.956 30.2637C125.956 31.8496 127.146 33.2715 128.937 33.8594L128.431 34.707C127.029 34.249 125.97 33.2783 125.45 32.0547C124.924 33.4492 123.803 34.5361 122.347 35.0625L121.8 34.2012C123.618 33.5859 124.89 32.0137 124.903 30.2637V29.7441H122.128V28.8555H128.69V29.7441H125.956V30.2637ZM131.343 27.9531V31.0566H133.175V31.959H131.343V35.2949H130.276V27.9531H131.343ZM127.446 35.623C129.948 35.623 131.452 36.4434 131.452 37.8379C131.452 39.2598 129.948 40.0801 127.446 40.0801C124.944 40.0801 123.413 39.2598 123.413 37.8379C123.413 36.4434 124.944 35.623 127.446 35.623ZM127.446 36.4844C125.614 36.4844 124.479 36.9902 124.493 37.8379C124.479 38.7129 125.614 39.2188 127.446 39.2188C129.292 39.2188 130.413 38.7129 130.413 37.8379C130.413 36.9902 129.292 36.4844 127.446 36.4844ZM139.478 28.1719C142.185 28.1719 143.771 28.9102 143.771 30.2637C143.771 31.6445 142.185 32.3828 139.478 32.3965C136.771 32.3828 135.171 31.6445 135.171 30.2637C135.171 28.9102 136.771 28.1719 139.478 28.1719ZM139.478 28.9785C137.454 28.9785 136.278 29.4707 136.292 30.2637C136.278 31.1113 137.454 31.5762 139.478 31.5762C141.487 31.5762 142.677 31.1113 142.677 30.2637C142.677 29.4707 141.487 28.9785 139.478 28.9785ZM145.015 33.2168V34.0918H133.94V33.2168H145.015ZM143.593 35.1445V37.8652H136.374V39.123H143.962V39.9707H135.308V37.0723H142.54V35.9648H135.28V35.1445H143.593ZM160.628 34.0781V34.9531H155.61V36.3477H159.261V40.0664H158.181V37.2227H150.784V36.3477H154.558V34.9531H149.554V34.0781H160.628ZM155.61 27.8984V29.1562H159.507V30.0176H155.679C155.754 31.3984 157.675 32.3486 159.972 32.5742L159.616 33.3945C157.613 33.1758 155.822 32.4443 155.091 31.207C154.353 32.4443 152.562 33.1758 150.565 33.3945L150.21 32.5742C152.493 32.3486 154.414 31.3984 154.503 30.0176H150.702V29.1562H154.558V27.8984H155.61ZM171.06 27.9531V32.9707H173.097V33.8594H171.06V40.1074H169.993V27.9531H171.06ZM168.817 29.9082V30.7969H161.585V29.9082H164.716V28.1035H165.782V29.9082H168.817ZM165.263 31.8086C166.985 31.8086 168.229 32.957 168.243 34.5977C168.229 36.2383 166.985 37.3867 165.263 37.3867C163.526 37.3867 162.269 36.2383 162.282 34.5977C162.269 32.957 163.526 31.8086 165.263 31.8086ZM165.263 32.7109C164.128 32.7109 163.294 33.5039 163.308 34.5977C163.294 35.7051 164.128 36.4844 165.263 36.4707C166.384 36.4844 167.204 35.7051 167.218 34.5977C167.204 33.5039 166.384 32.7109 165.263 32.7109ZM183.255 27.9531V31.0703H185.087V31.9863H183.255V35.0215H182.188V27.9531H183.255ZM176.638 35.5547V36.8535H182.188V35.5547H183.255V39.9434H175.571V35.5547H176.638ZM176.638 39.082H182.188V37.7012H176.638V39.082ZM181.026 29.2109V30.0996H173.78V29.2109H176.87V27.8438H177.937V29.2109H181.026ZM177.403 30.6602C179.153 30.6602 180.315 31.4941 180.329 32.793C180.315 34.0918 179.153 34.9258 177.403 34.9258C175.64 34.9258 174.464 34.0918 174.478 32.793C174.464 31.4941 175.64 30.6602 177.403 30.6602ZM177.403 31.4941C176.255 31.4805 175.489 32.0137 175.503 32.793C175.489 33.5859 176.255 34.1055 177.403 34.1055C178.538 34.1055 179.304 33.5859 179.317 32.793C179.304 32.0137 178.538 31.4805 177.403 31.4941ZM195.874 27.9531V40.1074H194.808V27.9531H195.874ZM187.698 29.1562V36.0469C189.551 36.04 191.472 35.8896 193.509 35.459L193.659 36.375C191.499 36.8262 189.571 36.9766 187.63 36.9766H186.646V29.1562H187.698ZM207.358 27.9531V32.7656H209.396V33.668H207.358V40.1348H206.292V27.9531H207.358ZM204.159 29.1426V30.0312H199.552V36.1836C201.753 36.1836 203.312 36.0811 205.116 35.7461L205.253 36.6758C203.353 37.0176 201.753 37.0859 199.442 37.0859H198.485V29.1426H204.159ZM212.021 29.1016L211.925 36.2109H210.776L210.681 29.1016H212.021ZM211.351 39.082C210.872 39.082 210.462 38.6855 210.476 38.1934C210.462 37.7148 210.872 37.3184 211.351 37.3184C211.829 37.3184 212.226 37.7148 212.226 38.1934C212.226 38.6855 211.829 39.082 211.351 39.082ZM215.616 29.1016L215.521 36.2109H214.372L214.276 29.1016H215.616ZM214.946 39.082C214.468 39.082 214.058 38.6855 214.071 38.1934C214.058 37.7148 214.468 37.3184 214.946 37.3184C215.425 37.3184 215.821 37.7148 215.821 38.1934C215.821 38.6855 215.425 39.082 214.946 39.082Z" fill="#7585A2"/>
<path d="M75.8945 144.531V147.25H77.4531V148.023H75.8945V150.754H74.9688V144.531H75.8945ZM72.543 150.953C74.6641 150.953 75.9766 151.691 75.9766 152.934C75.9766 154.199 74.6641 154.926 72.543 154.926C70.4102 154.926 69.0859 154.199 69.0859 152.934C69.0859 151.691 70.4102 150.953 72.543 150.953ZM72.543 151.715C70.9727 151.703 69.9883 152.172 69.9883 152.934C69.9883 153.707 70.9727 154.188 72.543 154.188C74.1016 154.188 75.0859 153.707 75.0859 152.934C75.0859 152.172 74.1016 151.703 72.543 151.715ZM72.8477 145.328V146.09H69.1211V149.148C71.2305 149.137 72.4492 149.072 73.8438 148.785L73.9375 149.547C72.4844 149.84 71.2305 149.898 69.0273 149.898H68.2188V145.328H72.8477ZM86.7109 144.543V152.184H85.7969V144.543H86.7109ZM87.0391 153.953V154.727H79.9844V151.48H80.8984V153.953H87.0391ZM81.8008 146.172C81.7891 147.754 82.8789 149.184 84.4258 149.746L83.9453 150.484C82.7383 150.021 81.8008 149.084 81.3438 147.883C80.8809 149.16 79.9316 150.186 78.7188 150.672L78.2148 149.957C79.7969 149.348 80.8633 147.812 80.8633 146.172V145.129H81.8008V146.172ZM91.8906 145.293C93.5312 145.293 94.6914 146.289 94.6914 147.742C94.6914 149.195 93.5312 150.191 91.8906 150.191C90.25 150.191 89.0664 149.195 89.0781 147.742C89.0664 146.289 90.25 145.293 91.8906 145.293ZM91.8906 146.102C90.7773 146.102 89.9688 146.77 89.9805 147.742C89.9688 148.715 90.7773 149.383 91.8906 149.383C92.9922 149.383 93.7891 148.715 93.7891 147.742C93.7891 146.77 92.9922 146.102 91.8906 146.102ZM97.0234 144.531V154.973H96.1094V144.531H97.0234ZM88.5391 151.891C90.4609 151.891 93.1094 151.879 95.418 151.539L95.4883 152.219C93.1094 152.664 90.543 152.676 88.668 152.676L88.5391 151.891ZM107.816 145.527V146.277H106.75V149.723C107.283 149.688 107.811 149.641 108.309 149.582L108.379 150.273C106.27 150.602 103.809 150.648 102.004 150.648L101.898 149.887L103.246 149.863V146.277H102.191V145.527H107.816ZM110.008 144.543V147.707H111.578V148.492H110.008V152.207H109.094V144.543H110.008ZM110.488 153.953V154.727H103.492V151.48H104.395V153.953H110.488ZM104.148 149.852C104.705 149.834 105.279 149.816 105.848 149.781V146.277H104.148V149.852ZM120.871 144.531V149.863H119.945V148.773H117.168V148.047H119.945V146.793H117.32C116.664 148.439 115.047 149.547 112.738 150.098L112.41 149.336C114.965 148.744 116.453 147.496 116.629 145.82H112.938V145.059H117.637C117.637 145.404 117.602 145.738 117.543 146.055H119.945V144.531H120.871ZM120.871 150.332V152.875H115.059V154.094H121.223V154.855H114.145V152.172H119.945V151.082H114.121V150.332H120.871ZM125.102 145.352C126.361 145.352 127.322 146.219 127.469 147.52H128.594V144.742H129.461V152.031H128.594V148.293H127.469C127.293 149.559 126.344 150.402 125.102 150.391C123.707 150.402 122.711 149.371 122.723 147.883C122.711 146.383 123.707 145.352 125.102 145.352ZM125.102 146.148C124.211 146.148 123.543 146.875 123.555 147.883C123.543 148.891 124.211 149.605 125.102 149.605C125.992 149.605 126.648 148.891 126.66 147.883C126.648 146.875 125.992 146.148 125.102 146.148ZM131.453 144.531V152.336H130.574V144.531H131.453ZM131.77 153.953V154.727H124.621V151.328H125.535V153.953H131.77ZM141.297 145.527V146.301H137.441V151.609C139.316 151.609 140.559 151.545 142 151.27L142.117 152.031C140.582 152.324 139.316 152.395 137.312 152.395H136.516V145.527H141.297ZM144.637 144.531V154.973H143.711V149.09H140.676V148.328H143.711V144.531H144.637ZM157.961 144.531V154.973H157.035V144.531H157.961ZM152.418 145.34C153.965 145.352 155.078 146.758 155.078 148.973C155.078 151.188 153.965 152.594 152.418 152.594C150.859 152.594 149.758 151.188 149.758 148.973C149.758 146.758 150.859 145.352 152.418 145.34ZM152.418 146.16C151.375 146.172 150.648 147.273 150.648 148.973C150.648 150.672 151.375 151.773 152.418 151.773C153.461 151.773 154.188 150.672 154.188 148.973C154.188 147.273 153.461 146.172 152.418 146.16ZM163.223 146.219C163.223 147.637 164.301 148.938 165.812 149.453L165.309 150.18C164.154 149.758 163.246 148.896 162.789 147.812C162.344 149.037 161.418 150.004 160.199 150.473L159.707 149.734C161.266 149.148 162.309 147.754 162.32 146.148V145.07H163.223V146.219ZM167.887 144.531V147.25H169.457V148.023H167.887V150.871H166.973V144.531H167.887ZM164.547 151.141C166.691 151.141 167.98 151.832 167.98 153.027C167.98 154.246 166.691 154.926 164.547 154.926C162.402 154.926 161.09 154.246 161.09 153.027C161.09 151.832 162.402 151.141 164.547 151.141ZM164.547 151.879C162.977 151.879 162.004 152.312 162.016 153.027C162.004 153.766 162.977 154.188 164.547 154.199C166.129 154.188 167.09 153.766 167.09 153.027C167.09 152.312 166.129 151.879 164.547 151.879ZM182.617 150.613V151.352H173.125V150.613H182.617ZM181.562 153.965V154.727H174.355V152.102H175.281V153.965H181.562ZM182.066 145.527V146.242H173.617V145.527H177.414V144.414H178.328V145.527H182.066ZM177.871 146.711C180.004 146.711 181.246 147.262 181.246 148.328C181.246 149.359 180.004 149.91 177.871 149.922C175.715 149.91 174.484 149.359 174.484 148.328C174.484 147.262 175.715 146.711 177.871 146.711ZM177.871 147.391C176.312 147.391 175.41 147.73 175.422 148.328C175.41 148.914 176.312 149.23 177.871 149.23C179.43 149.23 180.32 148.914 180.32 148.328C180.32 147.73 179.43 147.391 177.871 147.391ZM193 148.914V149.652H183.496V148.914H193ZM191.863 147.309V148.059H184.762V144.895H191.758V145.633H185.688V147.309H191.863ZM191.77 150.59V153.004H185.582V154.082H192.086V154.832H184.668V152.312H190.867V151.305H184.645V150.59H191.77ZM202.469 144.543V150.719H201.555V144.543H202.469ZM199.152 145.176V148H195.309V149.441C197.172 149.453 198.566 149.395 200.254 149.113L200.359 149.887C198.613 150.156 197.184 150.215 195.262 150.215H194.418V147.273H198.238V145.914H194.395V145.176H199.152ZM202.469 151.281V154.809H195.695V151.281H202.469ZM196.598 152.031V154.059H201.566V152.031H196.598ZM212.828 144.531V154.973H211.902V144.531H212.828ZM207.285 145.34C208.832 145.352 209.945 146.758 209.945 148.973C209.945 151.188 208.832 152.594 207.285 152.594C205.727 152.594 204.625 151.188 204.625 148.973C204.625 146.758 205.727 145.352 207.285 145.34ZM207.285 146.16C206.242 146.172 205.516 147.273 205.516 148.973C205.516 150.672 206.242 151.773 207.285 151.773C208.328 151.773 209.055 150.672 209.055 148.973C209.055 147.273 208.328 146.172 207.285 146.16ZM219.695 150.648V151.949H221.594V150.648H222.449V154.809H218.828V150.648H219.695ZM219.695 154.082H221.594V152.652H219.695V154.082ZM225.426 151.469C225.414 152.57 226.07 153.719 227.348 154.188L226.867 154.891C225.906 154.504 225.273 153.771 224.957 152.898C224.623 153.754 223.99 154.492 223.07 154.891L222.59 154.188C223.844 153.672 224.512 152.523 224.512 151.469V150.578H225.426V151.469ZM220.492 145C221.887 145 222.953 145.791 223.152 146.992H225.332V144.531H226.258V150.051H225.332V147.754H223.164C222.977 148.984 221.904 149.793 220.492 149.793C218.91 149.793 217.785 148.82 217.785 147.391C217.785 145.973 218.91 145 220.492 145ZM220.492 145.773C219.426 145.773 218.664 146.441 218.664 147.391C218.664 148.352 219.426 149.031 220.492 149.031C221.547 149.031 222.297 148.352 222.297 147.391C222.297 146.441 221.547 145.773 220.492 145.773ZM230.113 150.789V152.008H235.316V150.789H236.242V154.809H229.199V150.789H230.113ZM230.113 154.07H235.316V152.734H230.113V154.07ZM237.484 149.289V150.051H227.992V149.289H237.484ZM233.219 145.141C233.219 146.43 235.117 147.578 236.945 147.812L236.605 148.551C234.988 148.311 233.406 147.484 232.75 146.312C232.082 147.49 230.488 148.311 228.883 148.551L228.531 147.812C230.383 147.566 232.27 146.465 232.27 145.141V144.648H233.219V145.141ZM246.953 144.531V154.949H246.039V144.531H246.953ZM239.945 145.562V151.469C241.533 151.463 243.18 151.334 244.926 150.965L245.055 151.75C243.203 152.137 241.551 152.266 239.887 152.266H239.043V145.562H239.945ZM256.797 144.531V148.656H258.543V149.43H256.797V154.973H255.883V144.531H256.797ZM254.055 145.551V146.312H250.105V151.586C251.992 151.586 253.328 151.498 254.875 151.211L254.992 152.008C253.363 152.301 251.992 152.359 250.012 152.359H249.191V145.551H254.055Z" fill="#303D53"/>
<path d="M148.342 67V57.1016H150.119V65.4961H154.494V67H148.342ZM156.203 57.1016L158.773 64.9082H158.883L161.467 57.1016H163.422L159.922 67H157.734L154.248 57.1016H156.203ZM164.283 67.1094C163.695 67.1094 163.217 66.6309 163.217 66.043C163.217 65.4688 163.695 64.9902 164.283 64.9902C164.844 64.9902 165.336 65.4688 165.336 66.043C165.336 66.6309 164.844 67.1094 164.283 67.1094ZM170.258 67.1367C167.879 67.1367 166.457 65.291 166.457 62.0508C166.457 58.8242 167.879 56.9648 170.258 56.9648C172.623 56.9648 174.059 58.8242 174.059 62.0508C174.059 65.291 172.637 67.1367 170.258 67.1367ZM170.258 65.6465C171.502 65.6465 172.268 64.4297 172.268 62.0508C172.268 59.6855 171.488 58.4414 170.258 58.4414C169.027 58.4414 168.248 59.6855 168.248 62.0508C168.248 64.4297 169.014 65.6465 170.258 65.6465ZM179.145 67.1367C177.025 67.1367 175.521 65.9883 175.48 64.3203H177.271C177.326 65.1133 178.119 65.6328 179.145 65.6328C180.238 65.6328 181.018 65.0312 181.018 64.1562C181.018 63.2676 180.252 62.625 178.967 62.625H178.078V61.2578H178.967C180.02 61.2578 180.758 60.6699 180.744 59.8086C180.758 58.9746 180.129 58.4141 179.158 58.4141C178.229 58.4141 177.422 58.9336 177.395 59.7676H175.686C175.727 58.0996 177.23 56.9648 179.172 56.9648C181.182 56.9648 182.48 58.1953 182.467 59.7129C182.48 60.8203 181.742 61.627 180.662 61.8457V61.9277C182.057 62.1191 182.85 63.0078 182.836 64.252C182.85 65.9199 181.291 67.1367 179.145 67.1367Z" fill="#6691FF"/>
</g>
<rect x="0.5" y="0.5" width="327" height="183" rx="7.5" stroke="#CFD8E7"/>
<defs>
<linearGradient id="paint0_linear_2135_52979" x1="-2" y1="-32" x2="-2" y2="187" gradientUnits="userSpaceOnUse">
<stop stop-color="#E8EDFC"/>
<stop offset="1" stop-color="#CCDAFF"/>
</linearGradient>
<linearGradient id="paint1_linear_2135_52979" x1="-2" y1="-19" x2="-2" y2="200" gradientUnits="userSpaceOnUse">
<stop stop-color="#E8EDFC"/>
<stop offset="1" stop-color="#CCDAFF"/>
</linearGradient>
<linearGradient id="paint2_linear_2135_52979" x1="19" y1="5" x2="19" y2="224" gradientUnits="userSpaceOnUse">
<stop stop-color="#E8EDFC"/>
<stop offset="1" stop-color="#CCDAFF"/>
</linearGradient>
<linearGradient id="paint3_linear_2135_52979" x1="192" y1="135" x2="192" y2="-84" gradientUnits="userSpaceOnUse">
<stop stop-color="#E8EDFC"/>
<stop offset="1" stop-color="#CCDAFF"/>
</linearGradient>
<linearGradient id="paint4_linear_2135_52979" x1="192" y1="122" x2="192" y2="-97" gradientUnits="userSpaceOnUse">
<stop stop-color="#E8EDFC"/>
<stop offset="1" stop-color="#CCDAFF"/>
</linearGradient>
<linearGradient id="paint5_linear_2135_52979" x1="171" y1="98" x2="171" y2="-121" gradientUnits="userSpaceOnUse">
<stop stop-color="#E8EDFC"/>
<stop offset="1" stop-color="#CCDAFF"/>
</linearGradient>
<clipPath id="clip0_2135_52979">
<rect width="328" height="184" rx="8" fill="white"/>
</clipPath>
</defs>
</svg>
