<svg width="328" height="184" viewBox="0 0 328 184" fill="none" xmlns="http://www.w3.org/2000/svg">
<g clip-path="url(#clip0_2135_52980)">
<rect width="328" height="184" rx="8" fill="#E8EDFC"/>
<path opacity="0.1" d="M-224 -32L220 187H-224V-32Z" fill="url(#paint0_linear_2135_52980)"/>
<path opacity="0.4" d="M-224 -19L220 200H-224V-19Z" fill="url(#paint1_linear_2135_52980)"/>
<path d="M-203 5L241 224H-203V5Z" fill="url(#paint2_linear_2135_52980)"/>
<path opacity="0.1" d="M414 135L-30 -84L414 -84L414 135Z" fill="url(#paint3_linear_2135_52980)"/>
<path opacity="0.4" d="M414 122L-30 -97L414 -97L414 122Z" fill="url(#paint4_linear_2135_52980)"/>
<path d="M393 98L-51 -121L393 -121L393 98Z" fill="url(#paint5_linear_2135_52980)"/>
<path d="M119.359 84.125V86.8438C119.328 90.3438 119.328 94.2812 118.234 100.188L114.734 99.8125C115.828 94.3125 115.828 90.2969 115.859 86.9062H98.9844V84.125H119.359ZM122.047 103.281V106.125H96.2969V103.281H105.797V93.4688H109.234V103.281H122.047ZM138.672 83.875C138.672 87.4375 142.641 91.0312 148.672 91.8125L147.297 94.625C142.5 93.9062 138.688 91.5469 136.859 88.3438C135 91.5469 131.203 93.9062 126.453 94.625L125.078 91.8125C131.047 91.0312 135.016 87.4375 135.016 83.875V82.4375H138.672V83.875ZM149.703 97.0625V99.9375H138.484V109.781H135.047V99.9375H123.953V97.0625H149.703ZM175.141 81.5625V97.5312H171.641V81.5625H175.141ZM175.141 98.9375V109.438H156.391V98.9375H175.141ZM159.828 101.688V106.625H171.734V101.688H159.828ZM162.141 85.375C162.141 88.9688 164.547 92.3438 168.953 93.75L167.266 96.4062C164 95.3906 161.656 93.3125 160.391 90.5938C159.094 93.5156 156.719 95.8438 153.328 96.9688L151.609 94.2188C156.203 92.75 158.547 89.0938 158.547 85.375V82.625H162.141V85.375ZM195.172 84V86.7812H192.703V95.125C193.938 95.0469 195.141 94.9219 196.297 94.7812L196.547 97.3438C190.859 98.2812 184.359 98.4062 179.578 98.4062L179.203 95.5938L182.453 95.5625V86.7812H179.953V84H195.172ZM201.547 81.5625V89.7188H205.484V92.625H201.547V102.344H198.078V81.5625H201.547ZM202.672 106.406V109.219H183.453V100.375H186.922V106.406H202.672ZM185.797 95.4688C186.953 95.4531 188.141 95.4062 189.328 95.3438V86.7812H185.797V95.4688ZM222.703 83.625V85.3125C222.672 87.25 222.672 90.0312 222.016 93.625L218.578 93.3125C219.125 90.3906 219.234 88.2344 219.297 86.5H208.297V83.625H222.703ZM215.578 90.0625V95.6875C218.5 95.5781 221.5 95.3594 224.234 94.9688L224.422 97.4688C218.547 98.5312 211.891 98.625 206.922 98.6562L206.609 95.875C208.281 95.8594 210.156 95.8438 212.141 95.8125V90.0625H215.578ZM229.453 81.5312V90.3438H233.109V93.25H229.453V102.688H225.891V81.5312H229.453ZM230.359 106.406V109.219H210.828V100.812H214.328V106.406H230.359Z" fill="#303D53"/>
<path d="M113.925 29.8672C113.911 31.6035 115.142 33.1348 116.933 33.7363L116.331 34.5703C114.991 34.0645 113.938 33.0801 113.419 31.7949C112.893 33.251 111.778 34.3857 110.315 34.9395L109.728 34.0645C111.601 33.4082 112.845 31.7949 112.858 29.9082V28.6504H113.925V29.8672ZM119.817 27.9531V35.1582H118.737V31.4531H116.03V30.5645H118.737V27.9531H119.817ZM115.784 35.5137C118.313 35.5137 119.858 36.3477 119.858 37.8105C119.858 39.2598 118.313 40.0801 115.784 40.0801C113.255 40.0801 111.71 39.2598 111.71 37.8105C111.71 36.3477 113.255 35.5137 115.784 35.5137ZM115.784 36.3613C113.925 36.3613 112.763 36.9082 112.776 37.8105C112.763 38.6855 113.925 39.2188 115.784 39.2188C117.644 39.2188 118.792 38.6855 118.792 37.8105C118.792 36.9082 117.644 36.3613 115.784 36.3613ZM125.956 30.2637C125.956 31.8496 127.146 33.2715 128.937 33.8594L128.431 34.707C127.029 34.249 125.97 33.2783 125.45 32.0547C124.924 33.4492 123.803 34.5361 122.347 35.0625L121.8 34.2012C123.618 33.5859 124.89 32.0137 124.903 30.2637V29.7441H122.128V28.8555H128.69V29.7441H125.956V30.2637ZM131.343 27.9531V31.0566H133.175V31.959H131.343V35.2949H130.276V27.9531H131.343ZM127.446 35.623C129.948 35.623 131.452 36.4434 131.452 37.8379C131.452 39.2598 129.948 40.0801 127.446 40.0801C124.944 40.0801 123.413 39.2598 123.413 37.8379C123.413 36.4434 124.944 35.623 127.446 35.623ZM127.446 36.4844C125.614 36.4844 124.479 36.9902 124.493 37.8379C124.479 38.7129 125.614 39.2188 127.446 39.2188C129.292 39.2188 130.413 38.7129 130.413 37.8379C130.413 36.9902 129.292 36.4844 127.446 36.4844ZM139.478 28.1719C142.185 28.1719 143.771 28.9102 143.771 30.2637C143.771 31.6445 142.185 32.3828 139.478 32.3965C136.771 32.3828 135.171 31.6445 135.171 30.2637C135.171 28.9102 136.771 28.1719 139.478 28.1719ZM139.478 28.9785C137.454 28.9785 136.278 29.4707 136.292 30.2637C136.278 31.1113 137.454 31.5762 139.478 31.5762C141.487 31.5762 142.677 31.1113 142.677 30.2637C142.677 29.4707 141.487 28.9785 139.478 28.9785ZM145.015 33.2168V34.0918H133.94V33.2168H145.015ZM143.593 35.1445V37.8652H136.374V39.123H143.962V39.9707H135.308V37.0723H142.54V35.9648H135.28V35.1445H143.593ZM160.628 34.0781V34.9531H155.61V36.3477H159.261V40.0664H158.181V37.2227H150.784V36.3477H154.558V34.9531H149.554V34.0781H160.628ZM155.61 27.8984V29.1562H159.507V30.0176H155.679C155.754 31.3984 157.675 32.3486 159.972 32.5742L159.616 33.3945C157.613 33.1758 155.822 32.4443 155.091 31.207C154.353 32.4443 152.562 33.1758 150.565 33.3945L150.21 32.5742C152.493 32.3486 154.414 31.3984 154.503 30.0176H150.702V29.1562H154.558V27.8984H155.61ZM171.06 27.9531V32.9707H173.097V33.8594H171.06V40.1074H169.993V27.9531H171.06ZM168.817 29.9082V30.7969H161.585V29.9082H164.716V28.1035H165.782V29.9082H168.817ZM165.263 31.8086C166.985 31.8086 168.229 32.957 168.243 34.5977C168.229 36.2383 166.985 37.3867 165.263 37.3867C163.526 37.3867 162.269 36.2383 162.282 34.5977C162.269 32.957 163.526 31.8086 165.263 31.8086ZM165.263 32.7109C164.128 32.7109 163.294 33.5039 163.308 34.5977C163.294 35.7051 164.128 36.4844 165.263 36.4707C166.384 36.4844 167.204 35.7051 167.218 34.5977C167.204 33.5039 166.384 32.7109 165.263 32.7109ZM183.255 27.9531V31.0703H185.087V31.9863H183.255V35.0215H182.188V27.9531H183.255ZM176.638 35.5547V36.8535H182.188V35.5547H183.255V39.9434H175.571V35.5547H176.638ZM176.638 39.082H182.188V37.7012H176.638V39.082ZM181.026 29.2109V30.0996H173.78V29.2109H176.87V27.8438H177.937V29.2109H181.026ZM177.403 30.6602C179.153 30.6602 180.315 31.4941 180.329 32.793C180.315 34.0918 179.153 34.9258 177.403 34.9258C175.64 34.9258 174.464 34.0918 174.478 32.793C174.464 31.4941 175.64 30.6602 177.403 30.6602ZM177.403 31.4941C176.255 31.4805 175.489 32.0137 175.503 32.793C175.489 33.5859 176.255 34.1055 177.403 34.1055C178.538 34.1055 179.304 33.5859 179.317 32.793C179.304 32.0137 178.538 31.4805 177.403 31.4941ZM195.874 27.9531V40.1074H194.808V27.9531H195.874ZM187.698 29.1562V36.0469C189.551 36.04 191.472 35.8896 193.509 35.459L193.659 36.375C191.499 36.8262 189.571 36.9766 187.63 36.9766H186.646V29.1562H187.698ZM207.358 27.9531V32.7656H209.396V33.668H207.358V40.1348H206.292V27.9531H207.358ZM204.159 29.1426V30.0312H199.552V36.1836C201.753 36.1836 203.312 36.0811 205.116 35.7461L205.253 36.6758C203.353 37.0176 201.753 37.0859 199.442 37.0859H198.485V29.1426H204.159ZM212.021 29.1016L211.925 36.2109H210.776L210.681 29.1016H212.021ZM211.351 39.082C210.872 39.082 210.462 38.6855 210.476 38.1934C210.462 37.7148 210.872 37.3184 211.351 37.3184C211.829 37.3184 212.226 37.7148 212.226 38.1934C212.226 38.6855 211.829 39.082 211.351 39.082ZM215.616 29.1016L215.521 36.2109H214.372L214.276 29.1016H215.616ZM214.946 39.082C214.468 39.082 214.058 38.6855 214.071 38.1934C214.058 37.7148 214.468 37.3184 214.946 37.3184C215.425 37.3184 215.821 37.7148 215.821 38.1934C215.821 38.6855 215.425 39.082 214.946 39.082Z" fill="#7585A2"/>
<path d="M70.6504 145.527V146.277H69.584V149.723C70.1172 149.688 70.6445 149.641 71.1426 149.582L71.2129 150.273C69.1035 150.602 66.6426 150.648 64.8379 150.648L64.7324 149.887L66.0801 149.863V146.277H65.0254V145.527H70.6504ZM72.8418 144.543V147.707H74.4121V148.492H72.8418V152.207H71.9277V144.543H72.8418ZM73.3223 153.953V154.727H66.3262V151.48H67.2285V153.953H73.3223ZM66.9824 149.852C67.5391 149.834 68.1133 149.816 68.6816 149.781V146.277H66.9824V149.852ZM83.2129 144.531V147.637H84.7949V148.41H83.2129V152.078H82.2988V144.531H83.2129ZM80.2012 145.434V146.207H76.4746V149.453C78.5664 149.453 79.7559 149.4 81.1504 149.113L81.2676 149.875C79.8027 150.156 78.5605 150.227 76.3691 150.227H75.5605V145.434H80.2012ZM83.6934 153.953V154.727H76.6973V151.316H77.5996V153.953H83.6934ZM88.8496 145.293C90.4902 145.293 91.6504 146.289 91.6504 147.742C91.6504 149.195 90.4902 150.191 88.8496 150.191C87.209 150.191 86.0254 149.195 86.0371 147.742C86.0254 146.289 87.209 145.293 88.8496 145.293ZM88.8496 146.102C87.7363 146.102 86.9277 146.77 86.9395 147.742C86.9277 148.715 87.7363 149.383 88.8496 149.383C89.9512 149.383 90.748 148.715 90.748 147.742C90.748 146.77 89.9512 146.102 88.8496 146.102ZM93.9824 144.531V154.973H93.0684V144.531H93.9824ZM85.498 151.891C87.4199 151.891 90.0684 151.879 92.377 151.539L92.4473 152.219C90.0684 152.664 87.502 152.676 85.627 152.676L85.498 151.891ZM108.35 148.562V149.312H98.8223V148.562H101.775C102.098 147.291 102.174 146.336 102.197 145.703H99.7129V144.953H103.111V145.223C103.1 145.768 103.1 146.939 102.701 148.562H105.889C106.193 147.279 106.246 146.348 106.264 145.703H103.814V144.953H107.154V145.375C107.154 146.008 107.154 147.092 106.814 148.562H108.35ZM107.178 150.426V151.141H100.932V152.242H106.908V152.934H100.932V154.082H107.248V154.809H100.006V150.426H107.178ZM118.123 144.531V154.949H117.232V144.531H118.123ZM116.025 144.754V154.422H115.146V149.359H113.811C113.711 151.387 112.85 152.652 111.561 152.652C110.201 152.652 109.322 151.246 109.322 149.031C109.322 146.816 110.201 145.41 111.561 145.41C112.826 145.41 113.682 146.635 113.799 148.598H115.146V144.754H116.025ZM111.561 146.277C110.717 146.277 110.178 147.332 110.189 149.031C110.178 150.719 110.717 151.785 111.561 151.773C112.404 151.785 112.943 150.719 112.943 149.031C112.943 147.332 112.404 146.277 111.561 146.277ZM126.139 146.5C126.139 147.953 127.193 149.324 128.717 149.875L128.201 150.59C127.059 150.133 126.15 149.225 125.705 148.094C125.26 149.354 124.311 150.355 123.08 150.848L122.588 150.098C124.146 149.523 125.225 148.07 125.236 146.465V145.176H126.139V146.5ZM131.213 144.543V152.348H130.287V147.766H127.967V146.992H130.287V144.543H131.213ZM131.447 153.953V154.727H124.475V151.457H125.4V153.953H131.447ZM139.486 147.73C139.475 149.406 140.682 151.246 142.193 151.961L141.666 152.688C140.494 152.119 139.504 150.877 139.041 149.465C138.561 151 137.512 152.348 136.346 152.945L135.783 152.219C137.283 151.492 138.572 149.512 138.584 147.73V146.371H136.158V145.609H141.83V146.371H139.486V147.73ZM144.021 144.531V148.75H145.768V149.535H144.021V154.949H143.107V144.531H144.021ZM148.041 153.215L147.127 156.402H146.26L146.904 153.215H148.041ZM160.568 144.531V147.25H162.127V148.023H160.568V150.754H159.643V144.531H160.568ZM157.217 150.953C159.338 150.953 160.65 151.691 160.65 152.934C160.65 154.199 159.338 154.926 157.217 154.926C155.084 154.926 153.76 154.199 153.76 152.934C153.76 151.691 155.084 150.953 157.217 150.953ZM157.217 151.715C155.646 151.703 154.662 152.172 154.662 152.934C154.662 153.707 155.646 154.188 157.217 154.188C158.775 154.188 159.76 153.707 159.76 152.934C159.76 152.172 158.775 151.703 157.217 151.715ZM157.521 145.328V146.09H153.795V149.148C155.904 149.137 157.123 149.072 158.518 148.785L158.611 149.547C157.158 149.84 155.904 149.898 153.701 149.898H152.893V145.328H157.521ZM171.385 144.543V152.184H170.471V144.543H171.385ZM171.713 153.953V154.727H164.658V151.48H165.572V153.953H171.713ZM166.475 146.172C166.463 147.754 167.553 149.184 169.1 149.746L168.619 150.484C167.412 150.021 166.475 149.084 166.018 147.883C165.555 149.16 164.605 150.186 163.393 150.672L162.889 149.957C164.471 149.348 165.537 147.812 165.537 146.172V145.129H166.475V146.172ZM181.744 144.531V154.973H180.818V144.531H181.744ZM176.201 145.34C177.748 145.352 178.861 146.758 178.861 148.973C178.861 151.188 177.748 152.594 176.201 152.594C174.643 152.594 173.541 151.188 173.541 148.973C173.541 146.758 174.643 145.352 176.201 145.34ZM176.201 146.16C175.158 146.172 174.432 147.273 174.432 148.973C174.432 150.672 175.158 151.773 176.201 151.773C177.244 151.773 177.971 150.672 177.971 148.973C177.971 147.273 177.244 146.172 176.201 146.16ZM194.6 144.531V148.633H196.346V149.43H194.6V154.949H193.686V144.531H194.6ZM187.885 145.422V148.176H190.932V145.422H191.846V152.453H186.971V145.422H187.885ZM187.885 151.68H190.932V148.914H187.885V151.68ZM206.447 152.887V153.66H196.908V152.887H201.197V150.918H198.104V147.707H204.338V146.066H198.08V145.305H205.24V148.457H199.018V150.156H205.486V150.918H202.1V152.887H206.447ZM218.646 145.586V146.629C218.635 147.906 218.635 149.336 218.26 151.434L217.322 151.328C217.721 149.336 217.721 147.871 217.721 146.629V146.348H211.299V145.586H218.646ZM219.783 152.711V153.473H210.291V152.711H214.018V148.984H214.92V152.711H219.783ZM225.889 145.504C225.889 146.969 227.811 148.246 229.686 148.504L229.311 149.254C227.693 148.984 226.094 148.088 225.42 146.805C224.752 148.094 223.146 148.984 221.529 149.254L221.154 148.504C223.029 148.246 224.939 146.992 224.939 145.504V144.906H225.889V145.504ZM230.154 150.402V151.176H225.842V154.949H224.939V151.176H220.662V150.402H230.154ZM239.635 144.531V150.121H238.721V144.531H239.635ZM233.799 150.648V151.914H238.721V150.648H239.635V154.809H232.885V150.648H233.799ZM233.799 154.059H238.721V152.652H233.799V154.059ZM234.01 145.047C235.592 145.035 236.74 146.008 236.74 147.438C236.74 148.855 235.592 149.828 234.01 149.828C232.428 149.828 231.279 148.855 231.279 147.438C231.279 146.008 232.428 145.035 234.01 145.047ZM234.01 145.82C232.943 145.809 232.17 146.488 232.182 147.438C232.17 148.387 232.943 149.066 234.01 149.066C235.064 149.066 235.838 148.387 235.838 147.438C235.838 146.488 235.064 145.809 234.01 145.82ZM249.994 144.531V154.949H249.08V144.531H249.994ZM242.986 145.562V151.469C244.574 151.463 246.221 151.334 247.967 150.965L248.096 151.75C246.244 152.137 244.592 152.266 242.928 152.266H242.084V145.562H242.986ZM259.838 144.531V148.656H261.584V149.43H259.838V154.973H258.924V144.531H259.838ZM257.096 145.551V146.312H253.146V151.586C255.033 151.586 256.369 151.498 257.916 151.211L258.033 152.008C256.404 152.301 255.033 152.359 253.053 152.359H252.232V145.551H257.096Z" fill="#303D53"/>
<path d="M148.246 67V57.1016H150.023V65.4961H154.398V67H148.246ZM156.107 57.1016L158.678 64.9082H158.787L161.371 57.1016H163.326L159.826 67H157.639L154.152 57.1016H156.107ZM164.188 67.1094C163.6 67.1094 163.121 66.6309 163.121 66.043C163.121 65.4688 163.6 64.9902 164.188 64.9902C164.748 64.9902 165.24 65.4688 165.24 66.043C165.24 66.6309 164.748 67.1094 164.188 67.1094ZM170.162 67.1367C167.783 67.1367 166.361 65.291 166.361 62.0508C166.361 58.8242 167.783 56.9648 170.162 56.9648C172.527 56.9648 173.963 58.8242 173.963 62.0508C173.963 65.291 172.541 67.1367 170.162 67.1367ZM170.162 65.6465C171.406 65.6465 172.172 64.4297 172.172 62.0508C172.172 59.6855 171.393 58.4414 170.162 58.4414C168.932 58.4414 168.152 59.6855 168.152 62.0508C168.152 64.4297 168.918 65.6465 170.162 65.6465ZM175.275 65.1543V63.7324L179.555 57.1016H181.77V63.6914H183.068V65.1543H181.77V67H180.074V65.1543H175.275ZM177.094 63.6914H180.102V59.125H179.992L177.094 63.623V63.6914Z" fill="#6691FF"/>
</g>
<rect x="0.5" y="0.5" width="327" height="183" rx="7.5" stroke="#CFD8E7"/>
<defs>
<linearGradient id="paint0_linear_2135_52980" x1="-2" y1="-32" x2="-2" y2="187" gradientUnits="userSpaceOnUse">
<stop stop-color="#E8EDFC"/>
<stop offset="1" stop-color="#CCDAFF"/>
</linearGradient>
<linearGradient id="paint1_linear_2135_52980" x1="-2" y1="-19" x2="-2" y2="200" gradientUnits="userSpaceOnUse">
<stop stop-color="#E8EDFC"/>
<stop offset="1" stop-color="#CCDAFF"/>
</linearGradient>
<linearGradient id="paint2_linear_2135_52980" x1="19" y1="5" x2="19" y2="224" gradientUnits="userSpaceOnUse">
<stop stop-color="#E8EDFC"/>
<stop offset="1" stop-color="#CCDAFF"/>
</linearGradient>
<linearGradient id="paint3_linear_2135_52980" x1="192" y1="135" x2="192" y2="-84" gradientUnits="userSpaceOnUse">
<stop stop-color="#E8EDFC"/>
<stop offset="1" stop-color="#CCDAFF"/>
</linearGradient>
<linearGradient id="paint4_linear_2135_52980" x1="192" y1="122" x2="192" y2="-97" gradientUnits="userSpaceOnUse">
<stop stop-color="#E8EDFC"/>
<stop offset="1" stop-color="#CCDAFF"/>
</linearGradient>
<linearGradient id="paint5_linear_2135_52980" x1="171" y1="98" x2="171" y2="-121" gradientUnits="userSpaceOnUse">
<stop stop-color="#E8EDFC"/>
<stop offset="1" stop-color="#CCDAFF"/>
</linearGradient>
<clipPath id="clip0_2135_52980">
<rect width="328" height="184" rx="8" fill="white"/>
</clipPath>
</defs>
</svg>
