<svg width="328" height="184" viewBox="0 0 328 184" fill="none" xmlns="http://www.w3.org/2000/svg">
<g clip-path="url(#clip0_2135_52978)">
<rect width="328" height="184" rx="8" fill="#E8EDFC"/>
<path opacity="0.1" d="M-224 -32L220 187H-224V-32Z" fill="url(#paint0_linear_2135_52978)"/>
<path opacity="0.4" d="M-224 -19L220 200H-224V-19Z" fill="url(#paint1_linear_2135_52978)"/>
<path d="M-203 5L241 224H-203V5Z" fill="url(#paint2_linear_2135_52978)"/>
<path opacity="0.1" d="M414 135L-30 -84L414 -84L414 135Z" fill="url(#paint3_linear_2135_52978)"/>
<path opacity="0.4" d="M414 122L-30 -97L414 -97L414 122Z" fill="url(#paint4_linear_2135_52978)"/>
<path d="M393 98L-51 -121L393 -121L393 98Z" fill="url(#paint5_linear_2135_52978)"/>
<path d="M122.047 94.5V97.3125H110.859V99.6562C115.922 100 118.891 101.75 118.922 104.688C118.891 107.938 115.234 109.75 109.141 109.75C102.984 109.75 99.2969 107.938 99.2969 104.688C99.2969 101.75 102.297 99.9844 107.422 99.6562V97.3125H96.2969V94.5H122.047ZM109.141 102.281C105.016 102.312 102.797 103.125 102.828 104.688C102.797 106.25 105.016 107.094 109.141 107.094C113.172 107.094 115.422 106.25 115.453 104.688C115.422 103.125 113.172 102.312 109.141 102.281ZM119.734 82.7812V85.5625H111.609C112.156 87.8906 115.531 89.9844 120.828 90.4688L119.609 93.2188C114.484 92.7031 110.672 90.6562 109.141 87.7812C107.609 90.6406 103.859 92.7031 98.7344 93.2188L97.5469 90.4688C102.734 89.9844 106.109 87.8594 106.703 85.5625H98.6406V82.7812H119.734ZM138.672 83.875C138.672 87.4375 142.641 91.0312 148.672 91.8125L147.297 94.625C142.5 93.9062 138.688 91.5469 136.859 88.3438C135 91.5469 131.203 93.9062 126.453 94.625L125.078 91.8125C131.047 91.0312 135.016 87.4375 135.016 83.875V82.4375H138.672V83.875ZM149.703 97.0625V99.9375H138.484V109.781H135.047V99.9375H123.953V97.0625H149.703ZM175.141 81.5625V97.5312H171.641V81.5625H175.141ZM175.141 98.9375V109.438H156.391V98.9375H175.141ZM159.828 101.688V106.625H171.734V101.688H159.828ZM162.141 85.375C162.141 88.9688 164.547 92.3438 168.953 93.75L167.266 96.4062C164 95.3906 161.656 93.3125 160.391 90.5938C159.094 93.5156 156.719 95.8438 153.328 96.9688L151.609 94.2188C156.203 92.75 158.547 89.0938 158.547 85.375V82.625H162.141V85.375ZM195.172 84V86.7812H192.703V95.125C193.938 95.0469 195.141 94.9219 196.297 94.7812L196.547 97.3438C190.859 98.2812 184.359 98.4062 179.578 98.4062L179.203 95.5938L182.453 95.5625V86.7812H179.953V84H195.172ZM201.547 81.5625V89.7188H205.484V92.625H201.547V102.344H198.078V81.5625H201.547ZM202.672 106.406V109.219H183.453V100.375H186.922V106.406H202.672ZM185.797 95.4688C186.953 95.4531 188.141 95.4062 189.328 95.3438V86.7812H185.797V95.4688ZM222.703 83.625V85.3125C222.672 87.25 222.672 90.0312 222.016 93.625L218.578 93.3125C219.125 90.3906 219.234 88.2344 219.297 86.5H208.297V83.625H222.703ZM215.578 90.0625V95.6875C218.5 95.5781 221.5 95.3594 224.234 94.9688L224.422 97.4688C218.547 98.5312 211.891 98.625 206.922 98.6562L206.609 95.875C208.281 95.8594 210.156 95.8438 212.141 95.8125V90.0625H215.578ZM229.453 81.5312V90.3438H233.109V93.25H229.453V102.688H225.891V81.5312H229.453ZM230.359 106.406V109.219H210.828V100.812H214.328V106.406H230.359Z" fill="#303D53"/>
<path d="M148.047 67V57.1016H149.824V65.4961H154.199V67H148.047ZM155.908 57.1016L158.479 64.9082H158.588L161.172 57.1016H163.127L159.627 67H157.439L153.953 57.1016H155.908ZM163.988 67.1094C163.4 67.1094 162.922 66.6309 162.922 66.043C162.922 65.4688 163.4 64.9902 163.988 64.9902C164.549 64.9902 165.041 65.4688 165.041 66.043C165.041 66.6309 164.549 67.1094 163.988 67.1094ZM169.963 67.1367C167.584 67.1367 166.162 65.291 166.162 62.0508C166.162 58.8242 167.584 56.9648 169.963 56.9648C172.328 56.9648 173.764 58.8242 173.764 62.0508C173.764 65.291 172.342 67.1367 169.963 67.1367ZM169.963 65.6465C171.207 65.6465 171.973 64.4297 171.973 62.0508C171.973 59.6855 171.193 58.4414 169.963 58.4414C168.732 58.4414 167.953 59.6855 167.953 62.0508C167.953 64.4297 168.719 65.6465 169.963 65.6465ZM175.254 67V65.7148L178.754 62.3379C179.752 61.3398 180.271 60.752 180.271 59.918C180.271 59.002 179.547 58.4141 178.576 58.4141C177.551 58.4141 176.895 59.0566 176.908 60.0547H175.213C175.199 58.1816 176.607 56.9648 178.59 56.9648C180.613 56.9648 181.98 58.168 181.98 59.8359C181.98 60.957 181.434 61.8594 179.492 63.6914L177.729 65.4414V65.5098H182.131V67H175.254Z" fill="#6691FF"/>
<path d="M113.925 29.8672C113.911 31.6035 115.142 33.1348 116.933 33.7363L116.331 34.5703C114.991 34.0645 113.938 33.0801 113.419 31.7949C112.893 33.251 111.778 34.3857 110.315 34.9395L109.728 34.0645C111.601 33.4082 112.845 31.7949 112.858 29.9082V28.6504H113.925V29.8672ZM119.817 27.9531V35.1582H118.737V31.4531H116.03V30.5645H118.737V27.9531H119.817ZM115.784 35.5137C118.313 35.5137 119.858 36.3477 119.858 37.8105C119.858 39.2598 118.313 40.0801 115.784 40.0801C113.255 40.0801 111.71 39.2598 111.71 37.8105C111.71 36.3477 113.255 35.5137 115.784 35.5137ZM115.784 36.3613C113.925 36.3613 112.763 36.9082 112.776 37.8105C112.763 38.6855 113.925 39.2188 115.784 39.2188C117.644 39.2188 118.792 38.6855 118.792 37.8105C118.792 36.9082 117.644 36.3613 115.784 36.3613ZM125.956 30.2637C125.956 31.8496 127.146 33.2715 128.937 33.8594L128.431 34.707C127.029 34.249 125.97 33.2783 125.45 32.0547C124.924 33.4492 123.803 34.5361 122.347 35.0625L121.8 34.2012C123.618 33.5859 124.89 32.0137 124.903 30.2637V29.7441H122.128V28.8555H128.69V29.7441H125.956V30.2637ZM131.343 27.9531V31.0566H133.175V31.959H131.343V35.2949H130.276V27.9531H131.343ZM127.446 35.623C129.948 35.623 131.452 36.4434 131.452 37.8379C131.452 39.2598 129.948 40.0801 127.446 40.0801C124.944 40.0801 123.413 39.2598 123.413 37.8379C123.413 36.4434 124.944 35.623 127.446 35.623ZM127.446 36.4844C125.614 36.4844 124.479 36.9902 124.493 37.8379C124.479 38.7129 125.614 39.2188 127.446 39.2188C129.292 39.2188 130.413 38.7129 130.413 37.8379C130.413 36.9902 129.292 36.4844 127.446 36.4844ZM139.478 28.1719C142.185 28.1719 143.771 28.9102 143.771 30.2637C143.771 31.6445 142.185 32.3828 139.478 32.3965C136.771 32.3828 135.171 31.6445 135.171 30.2637C135.171 28.9102 136.771 28.1719 139.478 28.1719ZM139.478 28.9785C137.454 28.9785 136.278 29.4707 136.292 30.2637C136.278 31.1113 137.454 31.5762 139.478 31.5762C141.487 31.5762 142.677 31.1113 142.677 30.2637C142.677 29.4707 141.487 28.9785 139.478 28.9785ZM145.015 33.2168V34.0918H133.94V33.2168H145.015ZM143.593 35.1445V37.8652H136.374V39.123H143.962V39.9707H135.308V37.0723H142.54V35.9648H135.28V35.1445H143.593ZM160.628 34.0781V34.9531H155.61V36.3477H159.261V40.0664H158.181V37.2227H150.784V36.3477H154.558V34.9531H149.554V34.0781H160.628ZM155.61 27.8984V29.1562H159.507V30.0176H155.679C155.754 31.3984 157.675 32.3486 159.972 32.5742L159.616 33.3945C157.613 33.1758 155.822 32.4443 155.091 31.207C154.353 32.4443 152.562 33.1758 150.565 33.3945L150.21 32.5742C152.493 32.3486 154.414 31.3984 154.503 30.0176H150.702V29.1562H154.558V27.8984H155.61ZM171.06 27.9531V32.9707H173.097V33.8594H171.06V40.1074H169.993V27.9531H171.06ZM168.817 29.9082V30.7969H161.585V29.9082H164.716V28.1035H165.782V29.9082H168.817ZM165.263 31.8086C166.985 31.8086 168.229 32.957 168.243 34.5977C168.229 36.2383 166.985 37.3867 165.263 37.3867C163.526 37.3867 162.269 36.2383 162.282 34.5977C162.269 32.957 163.526 31.8086 165.263 31.8086ZM165.263 32.7109C164.128 32.7109 163.294 33.5039 163.308 34.5977C163.294 35.7051 164.128 36.4844 165.263 36.4707C166.384 36.4844 167.204 35.7051 167.218 34.5977C167.204 33.5039 166.384 32.7109 165.263 32.7109ZM183.255 27.9531V31.0703H185.087V31.9863H183.255V35.0215H182.188V27.9531H183.255ZM176.638 35.5547V36.8535H182.188V35.5547H183.255V39.9434H175.571V35.5547H176.638ZM176.638 39.082H182.188V37.7012H176.638V39.082ZM181.026 29.2109V30.0996H173.78V29.2109H176.87V27.8438H177.937V29.2109H181.026ZM177.403 30.6602C179.153 30.6602 180.315 31.4941 180.329 32.793C180.315 34.0918 179.153 34.9258 177.403 34.9258C175.64 34.9258 174.464 34.0918 174.478 32.793C174.464 31.4941 175.64 30.6602 177.403 30.6602ZM177.403 31.4941C176.255 31.4805 175.489 32.0137 175.503 32.793C175.489 33.5859 176.255 34.1055 177.403 34.1055C178.538 34.1055 179.304 33.5859 179.317 32.793C179.304 32.0137 178.538 31.4805 177.403 31.4941ZM195.874 27.9531V40.1074H194.808V27.9531H195.874ZM187.698 29.1562V36.0469C189.551 36.04 191.472 35.8896 193.509 35.459L193.659 36.375C191.499 36.8262 189.571 36.9766 187.63 36.9766H186.646V29.1562H187.698ZM207.358 27.9531V32.7656H209.396V33.668H207.358V40.1348H206.292V27.9531H207.358ZM204.159 29.1426V30.0312H199.552V36.1836C201.753 36.1836 203.312 36.0811 205.116 35.7461L205.253 36.6758C203.353 37.0176 201.753 37.0859 199.442 37.0859H198.485V29.1426H204.159ZM212.021 29.1016L211.925 36.2109H210.776L210.681 29.1016H212.021ZM211.351 39.082C210.872 39.082 210.462 38.6855 210.476 38.1934C210.462 37.7148 210.872 37.3184 211.351 37.3184C211.829 37.3184 212.226 37.7148 212.226 38.1934C212.226 38.6855 211.829 39.082 211.351 39.082ZM215.616 29.1016L215.521 36.2109H214.372L214.276 29.1016H215.616ZM214.946 39.082C214.468 39.082 214.058 38.6855 214.071 38.1934C214.058 37.7148 214.468 37.3184 214.946 37.3184C215.425 37.3184 215.821 37.7148 215.821 38.1934C215.821 38.6855 215.425 39.082 214.946 39.082Z" fill="#7585A2"/>
<path d="M84.5801 144.543V147.977H86.1504V148.75H84.5801V152.348H83.666V144.543H84.5801ZM82.6699 145.82V146.57H76.459V145.82H79.1074V144.543H80.0215V145.82H82.6699ZM79.5645 147.145C81.0527 147.145 82.0605 147.906 82.0723 149.09C82.0605 150.262 81.0527 151.012 79.5645 151.012C78.0645 151.012 77.0449 150.262 77.0566 149.09C77.0449 147.906 78.0645 147.145 79.5645 147.145ZM79.5645 147.871C78.5801 147.871 77.9238 148.352 77.9355 149.09C77.9238 149.828 78.5801 150.297 79.5645 150.285C80.5371 150.297 81.1934 149.828 81.2051 149.09C81.1934 148.352 80.5371 147.871 79.5645 147.871ZM85.0605 153.953V154.727H78.0645V151.727H78.9668V153.953H85.0605ZM96.2988 149.828V150.59H86.8066V149.828H96.2988ZM91.998 144.508V145.551H95.3379V146.301H92.0566C92.1328 147.455 93.7852 148.252 95.7363 148.434L95.4551 149.148C93.7266 148.967 92.1855 148.346 91.5527 147.297C90.9141 148.346 89.3672 148.967 87.6504 149.148L87.3574 148.434C89.3086 148.252 90.9609 147.455 91.0488 146.301H87.791V145.551H91.0957V144.508H91.998ZM91.5527 151.48C93.8145 151.48 95.127 152.09 95.1387 153.203C95.127 154.328 93.8145 154.926 91.5527 154.926C89.291 154.926 87.9551 154.328 87.9551 153.203C87.9551 152.09 89.291 151.48 91.5527 151.48ZM91.5527 152.172C89.8652 152.172 88.8809 152.547 88.8926 153.203C88.8809 153.859 89.8652 154.223 91.5527 154.211C93.2168 154.223 94.2129 153.859 94.2129 153.203C94.2129 152.547 93.2168 152.172 91.5527 152.172ZM105.627 145.199V149.734H100.74V145.199H105.627ZM101.643 145.961V148.984H104.725V145.961H101.643ZM108.791 144.543V150.508H107.877V144.543H108.791ZM108.861 151.094V151.855H102.955V154.059H109.084V154.809H102.029V151.094H108.861ZM115.307 144.766C117.568 144.766 118.986 145.492 118.986 146.746C118.986 147.977 117.568 148.691 115.307 148.691C113.045 148.691 111.615 147.977 111.615 146.746C111.615 145.492 113.045 144.766 115.307 144.766ZM115.307 145.504C113.619 145.504 112.553 145.973 112.564 146.746C112.553 147.508 113.619 147.953 115.307 147.965C116.971 147.953 118.049 147.508 118.049 146.746C118.049 145.973 116.971 145.504 115.307 145.504ZM118.893 151.387V154.809H111.721V151.387H118.893ZM112.635 152.125V154.059H117.99V152.125H112.635ZM120.053 149.594V150.355H110.561V149.594H120.053ZM124.682 146.465C124.682 147.871 125.795 149.148 127.354 149.652L126.885 150.367C125.672 149.957 124.705 149.096 124.236 147.988C123.779 149.178 122.801 150.115 121.564 150.566L121.084 149.852C122.643 149.301 123.756 147.941 123.756 146.465V146.02H121.318V145.27H127.084V146.02H124.682V146.465ZM129.533 144.531V150.836H128.619V144.531H129.533ZM129.533 151.387V154.949H128.619V152.148H122.525V151.387H129.533ZM139.447 144.543V147.977H141.018V148.75H139.447V152.348H138.533V144.543H139.447ZM137.537 145.82V146.57H131.326V145.82H133.975V144.543H134.889V145.82H137.537ZM134.432 147.145C135.92 147.145 136.928 147.906 136.939 149.09C136.928 150.262 135.92 151.012 134.432 151.012C132.932 151.012 131.912 150.262 131.924 149.09C131.912 147.906 132.932 147.145 134.432 147.145ZM134.432 147.871C133.447 147.871 132.791 148.352 132.803 149.09C132.791 149.828 133.447 150.297 134.432 150.285C135.404 150.297 136.061 149.828 136.072 149.09C136.061 148.352 135.404 147.871 134.432 147.871ZM139.928 153.953V154.727H132.932V151.727H133.834V153.953H139.928ZM153.287 144.543V150.461H152.373V144.543H153.287ZM153.287 151.059V154.809H146.514V151.059H153.287ZM147.416 151.809V154.059H152.385V151.809H147.416ZM148.377 145.973C148.365 147.449 149.49 148.75 151.025 149.289L150.557 149.992C149.35 149.576 148.389 148.697 147.92 147.555C147.457 148.773 146.484 149.734 145.236 150.191L144.768 149.465C146.35 148.914 147.439 147.508 147.439 145.973V144.953H148.377V145.973ZM161.01 145.527V146.277H159.943V149.723C160.477 149.688 161.004 149.641 161.502 149.582L161.572 150.273C159.463 150.602 157.002 150.648 155.197 150.648L155.092 149.887L156.439 149.863V146.277H155.385V145.527H161.01ZM163.201 144.543V147.707H164.771V148.492H163.201V152.207H162.287V144.543H163.201ZM163.682 153.953V154.727H156.686V151.48H157.588V153.953H163.682ZM157.342 149.852C157.898 149.834 158.473 149.816 159.041 149.781V146.277H157.342V149.852ZM171.205 145.34V145.891C171.193 146.57 171.193 147.613 170.936 148.973L170.01 148.902C170.262 147.654 170.285 146.77 170.303 146.113H166.014V145.34H171.205ZM168.521 147.648V149.887C169.676 149.84 170.871 149.758 171.955 149.605L172.014 150.285C169.834 150.66 167.314 150.707 165.463 150.707L165.369 149.945C166.043 149.939 166.805 149.934 167.607 149.91V147.648H168.521ZM173.596 144.531V147.93H175.119V148.715H173.596V152.371H172.658V144.531H173.596ZM173.936 153.953V154.727H166.975V151.668H167.9V153.953H173.936ZM180.545 145.211C182.725 145.211 184.354 146.348 184.354 148.07C184.354 149.805 182.725 150.941 180.545 150.93C178.365 150.941 176.736 149.805 176.736 148.07C176.736 146.348 178.365 145.211 180.545 145.211ZM180.545 145.961C178.869 145.949 177.604 146.828 177.615 148.07C177.604 149.336 178.869 150.18 180.545 150.18C182.209 150.18 183.463 149.336 183.463 148.07C183.463 146.828 182.209 145.949 180.545 145.961ZM185.338 152.793V153.566H175.799V152.793H185.338ZM195.709 152.887V153.66H186.17V152.887H190.459V150.918H187.365V147.707H193.6V146.066H187.342V145.305H194.502V148.457H188.279V150.156H194.748V150.918H191.361V152.887H195.709ZM208.178 144.531V154.949H207.264V149.488H204.779V148.727H207.264V144.531H208.178ZM204.803 145.668C204.803 148.621 203.549 151.246 200.068 152.969L199.564 152.23C202.389 150.865 203.695 148.861 203.877 146.418H200.021V145.668H204.803ZM219.428 149.254V150.016H209.924V149.254H219.428ZM218.338 147.426V148.188H211.131V144.859H218.244V145.633H212.045V147.426H218.338ZM212.08 150.824V151.984H217.271V150.824H218.209V154.785H211.166V150.824H212.08ZM212.08 154.035H217.271V152.723H212.08V154.035ZM228.439 144.543V147.016H230.021V147.789H228.439V150.367H227.525V144.543H228.439ZM221.725 145.188V148.938C223.207 148.932 224.736 148.814 226.424 148.48L226.541 149.242C224.771 149.594 223.201 149.711 221.631 149.711H220.799V145.188H221.725ZM223.729 151.562C223.729 152.494 224.215 153.49 225.205 154.059C226.213 153.443 226.705 152.365 226.717 151.562V150.801H227.619V151.562C227.619 152.652 228.393 153.73 229.74 154.188L229.271 154.879C228.234 154.504 227.514 153.766 227.162 152.887C226.84 153.736 226.213 154.551 225.229 154.973C224.209 154.574 223.576 153.795 223.271 152.91C222.902 153.76 222.193 154.492 221.209 154.879L220.74 154.188C222.041 153.707 222.861 152.57 222.861 151.562V150.801H223.729V151.562ZM233.467 145.34C234.885 145.352 235.904 146.564 236.057 148.516H238.389V144.531H239.303V154.973H238.389V149.277H236.068C235.957 151.316 234.92 152.594 233.467 152.594C231.932 152.594 230.854 151.188 230.854 148.973C230.854 146.758 231.932 145.352 233.467 145.34ZM233.467 146.16C232.436 146.172 231.732 147.273 231.732 148.973C231.732 150.672 232.436 151.773 233.467 151.773C234.486 151.773 235.201 150.672 235.201 148.973C235.201 147.273 234.486 146.172 233.467 146.16ZM250.576 152.84V153.613H241.037V152.84H243.404V150.027C242.514 149.564 241.975 148.814 241.975 147.871C241.975 146.254 243.557 145.199 245.783 145.188C248.01 145.199 249.592 146.254 249.592 147.871C249.592 148.797 249.07 149.541 248.209 150.004V152.84H250.576ZM245.783 145.949C244.072 145.938 242.865 146.711 242.865 147.871C242.865 149.031 244.072 149.816 245.783 149.816C247.482 149.816 248.701 149.031 248.701 147.871C248.701 146.711 247.482 145.938 245.783 145.949ZM244.307 152.84H247.283V150.355C246.832 150.479 246.328 150.543 245.783 150.543C245.25 150.543 244.752 150.484 244.307 150.367V152.84Z" fill="#303D53"/>
</g>
<rect x="0.5" y="0.5" width="327" height="183" rx="7.5" stroke="#CFD8E7"/>
<defs>
<linearGradient id="paint0_linear_2135_52978" x1="-2" y1="-32" x2="-2" y2="187" gradientUnits="userSpaceOnUse">
<stop stop-color="#E8EDFC"/>
<stop offset="1" stop-color="#CCDAFF"/>
</linearGradient>
<linearGradient id="paint1_linear_2135_52978" x1="-2" y1="-19" x2="-2" y2="200" gradientUnits="userSpaceOnUse">
<stop stop-color="#E8EDFC"/>
<stop offset="1" stop-color="#CCDAFF"/>
</linearGradient>
<linearGradient id="paint2_linear_2135_52978" x1="19" y1="5" x2="19" y2="224" gradientUnits="userSpaceOnUse">
<stop stop-color="#E8EDFC"/>
<stop offset="1" stop-color="#CCDAFF"/>
</linearGradient>
<linearGradient id="paint3_linear_2135_52978" x1="192" y1="135" x2="192" y2="-84" gradientUnits="userSpaceOnUse">
<stop stop-color="#E8EDFC"/>
<stop offset="1" stop-color="#CCDAFF"/>
</linearGradient>
<linearGradient id="paint4_linear_2135_52978" x1="192" y1="122" x2="192" y2="-97" gradientUnits="userSpaceOnUse">
<stop stop-color="#E8EDFC"/>
<stop offset="1" stop-color="#CCDAFF"/>
</linearGradient>
<linearGradient id="paint5_linear_2135_52978" x1="171" y1="98" x2="171" y2="-121" gradientUnits="userSpaceOnUse">
<stop stop-color="#E8EDFC"/>
<stop offset="1" stop-color="#CCDAFF"/>
</linearGradient>
<clipPath id="clip0_2135_52978">
<rect width="328" height="184" rx="8" fill="white"/>
</clipPath>
</defs>
</svg>
