<svg width="328" height="184" viewBox="0 0 328 184" fill="none" xmlns="http://www.w3.org/2000/svg">
<g clip-path="url(#clip0_2135_52981)">
<rect width="328" height="184" rx="8" fill="#E8EDFC"/>
<path opacity="0.1" d="M-224 -32L220 187H-224V-32Z" fill="url(#paint0_linear_2135_52981)"/>
<path opacity="0.4" d="M-224 -19L220 200H-224V-19Z" fill="url(#paint1_linear_2135_52981)"/>
<path d="M-203 5L241 224H-203V5Z" fill="url(#paint2_linear_2135_52981)"/>
<path opacity="0.1" d="M414 135L-30 -84L414 -84L414 135Z" fill="url(#paint3_linear_2135_52981)"/>
<path opacity="0.4" d="M414 122L-30 -97L414 -97L414 122Z" fill="url(#paint4_linear_2135_52981)"/>
<path d="M393 98L-51 -121L393 -121L393 98Z" fill="url(#paint5_linear_2135_52981)"/>
<path d="M92.125 88.2188C92.125 91.5938 94.4688 94.8438 98.9375 96.2188L97.25 98.9375C94.0469 97.9688 91.7344 95.9219 90.4375 93.3125C89.1875 96.125 86.8594 98.3438 83.5625 99.4062L81.875 96.6875C86.3125 95.2812 88.6562 91.8438 88.6562 88.2188V87.7812H82.75V85.0312H88.6562V81.7188H92.1562V85.0312H98.0312V87.7812H92.125V88.2188ZM105.625 81.5625V102.531H102.156V92.75H97.0938V89.9688H102.156V81.5625H105.625ZM106.344 106.406V109.219H87.0938V100.719H90.5625V106.406H106.344ZM119.625 86.0312C119.625 89.5938 121.938 92.9375 126.281 94.3125L124.406 97.0312C121.359 96 119.172 93.9375 117.969 91.3125C116.719 94.3125 114.438 96.6719 111.188 97.8125L109.312 95.0938C113.875 93.5 116.125 89.75 116.156 85.7188V83.0312H119.625V86.0312ZM131.906 81.5312V88.4062H135.844V91.2812H131.906V98.4375H128.438V81.5312H131.906ZM122.719 99.0625C128.562 99.0312 132.156 101.031 132.188 104.375C132.156 107.781 128.562 109.75 122.719 109.75C116.812 109.75 113.156 107.781 113.156 104.375C113.156 101.031 116.812 99.0312 122.719 99.0625ZM122.719 101.781C118.844 101.781 116.625 102.719 116.625 104.375C116.625 106.125 118.844 107 122.719 107C126.594 107 128.75 106.125 128.75 104.375C128.75 102.719 126.594 101.781 122.719 101.781ZM161.656 81.5312V109.781H158.344V81.5312H161.656ZM155.812 82.2188V108.438H152.5V99H148.094V96.1562H152.5V91.9688H148.594C147.266 96.6562 144.312 100.688 139.031 103.812L137 101.344C142.859 97.8906 145.547 93.4688 146.062 87.7812H138.5V84.9688H149.5C149.5 86.3906 149.406 87.7812 149.219 89.125H152.5V82.2188H155.812ZM188.469 81.5625V97.5312H184.969V81.5625H188.469ZM188.469 98.9375V109.438H169.719V98.9375H188.469ZM173.156 101.688V106.625H185.062V101.688H173.156ZM175.469 85.375C175.469 88.9688 177.875 92.3438 182.281 93.75L180.594 96.4062C177.328 95.3906 174.984 93.3125 173.719 90.5938C172.422 93.5156 170.047 95.8438 166.656 96.9688L164.938 94.2188C169.531 92.75 171.875 89.0938 171.875 85.375V82.625H175.469V85.375ZM208.5 84V86.7812H206.031V95.125C207.266 95.0469 208.469 94.9219 209.625 94.7812L209.875 97.3438C204.188 98.2812 197.688 98.4062 192.906 98.4062L192.531 95.5938L195.781 95.5625V86.7812H193.281V84H208.5ZM214.875 81.5625V89.7188H218.812V92.625H214.875V102.344H211.406V81.5625H214.875ZM216 106.406V109.219H196.781V100.375H200.25V106.406H216ZM199.125 95.4688C200.281 95.4531 201.469 95.4062 202.656 95.3438V86.7812H199.125V95.4688ZM236.031 83.625V85.3125C236 87.25 236 90.0312 235.344 93.625L231.906 93.3125C232.453 90.3906 232.562 88.2344 232.625 86.5H221.625V83.625H236.031ZM228.906 90.0625V95.6875C231.828 95.5781 234.828 95.3594 237.562 94.9688L237.75 97.4688C231.875 98.5312 225.219 98.625 220.25 98.6562L219.938 95.875C221.609 95.8594 223.484 95.8438 225.469 95.8125V90.0625H228.906ZM242.781 81.5312V90.3438H246.438V93.25H242.781V102.688H239.219V81.5312H242.781ZM243.688 106.406V109.219H224.156V100.812H227.656V106.406H243.688Z" fill="#303D53"/>
<path d="M113.925 29.8672C113.911 31.6035 115.142 33.1348 116.933 33.7363L116.331 34.5703C114.991 34.0645 113.938 33.0801 113.419 31.7949C112.893 33.251 111.778 34.3857 110.315 34.9395L109.728 34.0645C111.601 33.4082 112.845 31.7949 112.858 29.9082V28.6504H113.925V29.8672ZM119.817 27.9531V35.1582H118.737V31.4531H116.03V30.5645H118.737V27.9531H119.817ZM115.784 35.5137C118.313 35.5137 119.858 36.3477 119.858 37.8105C119.858 39.2598 118.313 40.0801 115.784 40.0801C113.255 40.0801 111.71 39.2598 111.71 37.8105C111.71 36.3477 113.255 35.5137 115.784 35.5137ZM115.784 36.3613C113.925 36.3613 112.763 36.9082 112.776 37.8105C112.763 38.6855 113.925 39.2188 115.784 39.2188C117.644 39.2188 118.792 38.6855 118.792 37.8105C118.792 36.9082 117.644 36.3613 115.784 36.3613ZM125.956 30.2637C125.956 31.8496 127.146 33.2715 128.937 33.8594L128.431 34.707C127.029 34.249 125.97 33.2783 125.45 32.0547C124.924 33.4492 123.803 34.5361 122.347 35.0625L121.8 34.2012C123.618 33.5859 124.89 32.0137 124.903 30.2637V29.7441H122.128V28.8555H128.69V29.7441H125.956V30.2637ZM131.343 27.9531V31.0566H133.175V31.959H131.343V35.2949H130.276V27.9531H131.343ZM127.446 35.623C129.948 35.623 131.452 36.4434 131.452 37.8379C131.452 39.2598 129.948 40.0801 127.446 40.0801C124.944 40.0801 123.413 39.2598 123.413 37.8379C123.413 36.4434 124.944 35.623 127.446 35.623ZM127.446 36.4844C125.614 36.4844 124.479 36.9902 124.493 37.8379C124.479 38.7129 125.614 39.2188 127.446 39.2188C129.292 39.2188 130.413 38.7129 130.413 37.8379C130.413 36.9902 129.292 36.4844 127.446 36.4844ZM139.478 28.1719C142.185 28.1719 143.771 28.9102 143.771 30.2637C143.771 31.6445 142.185 32.3828 139.478 32.3965C136.771 32.3828 135.171 31.6445 135.171 30.2637C135.171 28.9102 136.771 28.1719 139.478 28.1719ZM139.478 28.9785C137.454 28.9785 136.278 29.4707 136.292 30.2637C136.278 31.1113 137.454 31.5762 139.478 31.5762C141.487 31.5762 142.677 31.1113 142.677 30.2637C142.677 29.4707 141.487 28.9785 139.478 28.9785ZM145.015 33.2168V34.0918H133.94V33.2168H145.015ZM143.593 35.1445V37.8652H136.374V39.123H143.962V39.9707H135.308V37.0723H142.54V35.9648H135.28V35.1445H143.593ZM160.628 34.0781V34.9531H155.61V36.3477H159.261V40.0664H158.181V37.2227H150.784V36.3477H154.558V34.9531H149.554V34.0781H160.628ZM155.61 27.8984V29.1562H159.507V30.0176H155.679C155.754 31.3984 157.675 32.3486 159.972 32.5742L159.616 33.3945C157.613 33.1758 155.822 32.4443 155.091 31.207C154.353 32.4443 152.562 33.1758 150.565 33.3945L150.21 32.5742C152.493 32.3486 154.414 31.3984 154.503 30.0176H150.702V29.1562H154.558V27.8984H155.61ZM171.06 27.9531V32.9707H173.097V33.8594H171.06V40.1074H169.993V27.9531H171.06ZM168.817 29.9082V30.7969H161.585V29.9082H164.716V28.1035H165.782V29.9082H168.817ZM165.263 31.8086C166.985 31.8086 168.229 32.957 168.243 34.5977C168.229 36.2383 166.985 37.3867 165.263 37.3867C163.526 37.3867 162.269 36.2383 162.282 34.5977C162.269 32.957 163.526 31.8086 165.263 31.8086ZM165.263 32.7109C164.128 32.7109 163.294 33.5039 163.308 34.5977C163.294 35.7051 164.128 36.4844 165.263 36.4707C166.384 36.4844 167.204 35.7051 167.218 34.5977C167.204 33.5039 166.384 32.7109 165.263 32.7109ZM183.255 27.9531V31.0703H185.087V31.9863H183.255V35.0215H182.188V27.9531H183.255ZM176.638 35.5547V36.8535H182.188V35.5547H183.255V39.9434H175.571V35.5547H176.638ZM176.638 39.082H182.188V37.7012H176.638V39.082ZM181.026 29.2109V30.0996H173.78V29.2109H176.87V27.8438H177.937V29.2109H181.026ZM177.403 30.6602C179.153 30.6602 180.315 31.4941 180.329 32.793C180.315 34.0918 179.153 34.9258 177.403 34.9258C175.64 34.9258 174.464 34.0918 174.478 32.793C174.464 31.4941 175.64 30.6602 177.403 30.6602ZM177.403 31.4941C176.255 31.4805 175.489 32.0137 175.503 32.793C175.489 33.5859 176.255 34.1055 177.403 34.1055C178.538 34.1055 179.304 33.5859 179.317 32.793C179.304 32.0137 178.538 31.4805 177.403 31.4941ZM195.874 27.9531V40.1074H194.808V27.9531H195.874ZM187.698 29.1562V36.0469C189.551 36.04 191.472 35.8896 193.509 35.459L193.659 36.375C191.499 36.8262 189.571 36.9766 187.63 36.9766H186.646V29.1562H187.698ZM207.358 27.9531V32.7656H209.396V33.668H207.358V40.1348H206.292V27.9531H207.358ZM204.159 29.1426V30.0312H199.552V36.1836C201.753 36.1836 203.312 36.0811 205.116 35.7461L205.253 36.6758C203.353 37.0176 201.753 37.0859 199.442 37.0859H198.485V29.1426H204.159ZM212.021 29.1016L211.925 36.2109H210.776L210.681 29.1016H212.021ZM211.351 39.082C210.872 39.082 210.462 38.6855 210.476 38.1934C210.462 37.7148 210.872 37.3184 211.351 37.3184C211.829 37.3184 212.226 37.7148 212.226 38.1934C212.226 38.6855 211.829 39.082 211.351 39.082ZM215.616 29.1016L215.521 36.2109H214.372L214.276 29.1016H215.616ZM214.946 39.082C214.468 39.082 214.058 38.6855 214.071 38.1934C214.058 37.7148 214.468 37.3184 214.946 37.3184C215.425 37.3184 215.821 37.7148 215.821 38.1934C215.821 38.6855 215.425 39.082 214.946 39.082Z" fill="#7585A2"/>
<path d="M83.0684 144.531V147.25H84.627V148.023H83.0684V150.754H82.1426V144.531H83.0684ZM79.7168 150.953C81.8379 150.953 83.1504 151.691 83.1504 152.934C83.1504 154.199 81.8379 154.926 79.7168 154.926C77.584 154.926 76.2598 154.199 76.2598 152.934C76.2598 151.691 77.584 150.953 79.7168 150.953ZM79.7168 151.715C78.1465 151.703 77.1621 152.172 77.1621 152.934C77.1621 153.707 78.1465 154.188 79.7168 154.188C81.2754 154.188 82.2598 153.707 82.2598 152.934C82.2598 152.172 81.2754 151.703 79.7168 151.715ZM80.0215 145.328V146.09H76.2949V149.148C78.4043 149.137 79.623 149.072 81.0176 148.785L81.1113 149.547C79.6582 149.84 78.4043 149.898 76.2012 149.898H75.3926V145.328H80.0215ZM93.8848 144.543V152.184H92.9707V144.543H93.8848ZM94.2129 153.953V154.727H87.1582V151.48H88.0723V153.953H94.2129ZM88.9746 146.172C88.9629 147.754 90.0527 149.184 91.5996 149.746L91.1191 150.484C89.9121 150.021 88.9746 149.084 88.5176 147.883C88.0547 149.16 87.1055 150.186 85.8926 150.672L85.3887 149.957C86.9707 149.348 88.0371 147.812 88.0371 146.172V145.129H88.9746V146.172ZM105.146 150.027V150.777H95.6543V150.027H105.146ZM104.092 153.953V154.727H96.8848V151.691H97.8105V153.953H104.092ZM100.4 144.906C102.639 144.895 104.08 145.668 104.08 146.969C104.08 148.27 102.639 149.043 100.4 149.043C98.1387 149.043 96.709 148.27 96.709 146.969C96.709 145.668 98.1387 144.895 100.4 144.906ZM100.4 145.645C98.7246 145.645 97.6465 146.148 97.6582 146.969C97.6465 147.789 98.7246 148.293 100.4 148.293C102.064 148.293 103.143 147.789 103.143 146.969C103.143 146.148 102.064 145.645 100.4 145.645ZM117.639 144.531V154.973H116.725V144.531H117.639ZM114.475 145.504V149.207H110.584V151.668C112.312 151.668 113.854 151.592 115.717 151.293L115.811 152.066C113.889 152.371 112.307 152.441 110.514 152.441H109.646V148.457H113.549V146.266H109.623V145.504H114.475ZM128.936 150.613V151.387H126.498V154.949H125.584V151.387H122.748V154.949H121.811V151.387H119.396V150.613H128.936ZM121.529 144.953V146.371H126.779V144.953H127.705V149.383H120.615V144.953H121.529ZM121.529 148.633H126.779V147.109H121.529V148.633ZM130.881 152.875C130.471 152.875 130.119 152.535 130.131 152.113C130.119 151.703 130.471 151.363 130.881 151.363C131.291 151.363 131.631 151.703 131.631 152.113C131.631 152.535 131.291 152.875 130.881 152.875ZM130.881 148.164C130.471 148.164 130.119 147.824 130.131 147.402C130.119 146.992 130.471 146.652 130.881 146.652C131.291 146.652 131.631 146.992 131.631 147.402C131.631 147.824 131.291 148.164 130.881 148.164ZM141.756 144.531V154.949H140.865V149.43H139.412V154.422H138.533V144.754H139.412V148.668H140.865V144.531H141.756ZM137.197 145.75V152.148H133.213V145.75H137.197ZM134.08 146.488V151.41H136.33V146.488H134.08ZM151.787 144.531V154.949H150.861V144.531H151.787ZM147.041 147.93C147.041 149.676 148.26 151.363 149.83 152.031L149.314 152.746C148.113 152.213 147.094 151.082 146.607 149.699C146.139 151.164 145.125 152.365 143.924 152.934L143.408 152.219C144.955 151.516 146.139 149.758 146.139 147.93V147.098H143.689V146.348H146.127V144.73H147.041V146.348H149.467V147.098H147.041V147.93ZM159.674 147.496C159.674 149.148 160.482 150.941 161.865 151.762L161.338 152.477C160.336 151.867 159.615 150.754 159.252 149.488C158.865 150.871 158.092 152.061 157.049 152.699L156.463 152.008C157.904 151.164 158.783 149.312 158.783 147.531V145.516H159.674V147.496ZM165.51 144.531V154.949H164.619V144.531H165.51ZM163.354 144.754V154.422H162.486V149.055H160.717V148.27H162.486V144.754H163.354ZM175.869 144.531V154.949H174.99V144.531H175.869ZM173.76 144.812V154.422H172.881V150.812H170.947V150.051H172.881V148.199H171.123C170.613 149.963 169.471 151.521 167.502 152.699L166.939 152.031C169.207 150.689 170.344 148.809 170.525 146.629H167.408V145.867H171.439C171.439 146.4 171.393 146.928 171.299 147.438H172.881V144.812H173.76ZM180.732 145.293C182.373 145.293 183.533 146.289 183.533 147.742C183.533 149.195 182.373 150.191 180.732 150.191C179.092 150.191 177.908 149.195 177.92 147.742C177.908 146.289 179.092 145.293 180.732 145.293ZM180.732 146.102C179.619 146.102 178.811 146.77 178.822 147.742C178.811 148.715 179.619 149.383 180.732 149.383C181.834 149.383 182.631 148.715 182.631 147.742C182.631 146.77 181.834 146.102 180.732 146.102ZM185.865 144.531V154.973H184.951V144.531H185.865ZM177.381 151.891C179.303 151.891 181.951 151.879 184.26 151.539L184.33 152.219C181.951 152.664 179.385 152.676 177.51 152.676L177.381 151.891ZM195.943 145.586V152.301H191.139V145.586H195.943ZM192.029 146.324V151.551H195.029V146.324H192.029ZM198.768 144.531V148.691H200.514V149.488H198.768V154.949H197.854V144.531H198.768ZM206.268 146.066C206.268 147.848 208.307 149.441 210.123 149.781L209.701 150.555C208.131 150.191 206.473 149.072 205.799 147.531C205.125 149.066 203.473 150.186 201.896 150.555L201.475 149.781C203.279 149.43 205.307 147.859 205.307 146.066V145.27H206.268V146.066ZM210.615 152.77V153.531H201.076V152.77H210.615ZM220.084 144.531V154.973H219.17V149.23H216.967V148.469H219.17V144.531H220.084ZM216.791 145.492V146.254H212.854V148.422H216.334V149.172H212.854V151.691C214.77 151.691 215.988 151.627 217.424 151.375L217.529 152.137C216.018 152.383 214.74 152.453 212.725 152.453H211.928V145.492H216.791ZM230.42 144.531V150.121H229.506V144.531H230.42ZM224.584 150.648V151.914H229.506V150.648H230.42V154.809H223.67V150.648H224.584ZM224.584 154.059H229.506V152.652H224.584V154.059ZM224.795 145.047C226.377 145.035 227.525 146.008 227.525 147.438C227.525 148.855 226.377 149.828 224.795 149.828C223.213 149.828 222.064 148.855 222.064 147.438C222.064 146.008 223.213 145.035 224.795 145.047ZM224.795 145.82C223.729 145.809 222.955 146.488 222.967 147.438C222.955 148.387 223.729 149.066 224.795 149.066C225.85 149.066 226.623 148.387 226.623 147.438C226.623 146.488 225.85 145.809 224.795 145.82ZM240.779 144.531V154.949H239.865V144.531H240.779ZM233.771 145.562V151.469C235.359 151.463 237.006 151.334 238.752 150.965L238.881 151.75C237.029 152.137 235.377 152.266 233.713 152.266H232.869V145.562H233.771ZM250.623 144.531V148.656H252.369V149.43H250.623V154.973H249.709V144.531H250.623ZM247.881 145.551V146.312H243.932V151.586C245.818 151.586 247.154 151.498 248.701 151.211L248.818 152.008C247.189 152.301 245.818 152.359 243.838 152.359H243.018V145.551H247.881Z" fill="#303D53"/>
<path d="M147.944 67V57.1016H149.722V65.4961H154.097V67H147.944ZM155.806 57.1016L158.376 64.9082H158.485L161.069 57.1016H163.024L159.524 67H157.337L153.851 57.1016H155.806ZM163.886 67.1094C163.298 67.1094 162.819 66.6309 162.819 66.043C162.819 65.4688 163.298 64.9902 163.886 64.9902C164.446 64.9902 164.938 65.4688 164.938 66.043C164.938 66.6309 164.446 67.1094 163.886 67.1094ZM169.86 67.1367C167.481 67.1367 166.06 65.291 166.06 62.0508C166.06 58.8242 167.481 56.9648 169.86 56.9648C172.226 56.9648 173.661 58.8242 173.661 62.0508C173.661 65.291 172.239 67.1367 169.86 67.1367ZM169.86 65.6465C171.104 65.6465 171.87 64.4297 171.87 62.0508C171.87 59.6855 171.091 58.4414 169.86 58.4414C168.63 58.4414 167.851 59.6855 167.851 62.0508C167.851 64.4297 168.616 65.6465 169.86 65.6465ZM178.665 67.1367C176.683 67.1367 175.233 65.9609 175.179 64.3203H176.915C176.97 65.127 177.722 65.7012 178.665 65.7012C179.772 65.7012 180.565 64.8945 180.565 63.8008C180.565 62.666 179.745 61.8594 178.61 61.8594C177.845 61.8457 177.284 62.1191 176.97 62.707H175.315L175.917 57.1016H181.769V58.5918H177.38L177.079 61.2168H177.175C177.558 60.7793 178.282 60.4648 179.089 60.4648C180.935 60.4648 182.288 61.8457 182.288 63.7461C182.288 65.7285 180.798 67.1367 178.665 67.1367Z" fill="#6691FF"/>
</g>
<rect x="0.5" y="0.5" width="327" height="183" rx="7.5" stroke="#CFD8E7"/>
<defs>
<linearGradient id="paint0_linear_2135_52981" x1="-2" y1="-32" x2="-2" y2="187" gradientUnits="userSpaceOnUse">
<stop stop-color="#E8EDFC"/>
<stop offset="1" stop-color="#CCDAFF"/>
</linearGradient>
<linearGradient id="paint1_linear_2135_52981" x1="-2" y1="-19" x2="-2" y2="200" gradientUnits="userSpaceOnUse">
<stop stop-color="#E8EDFC"/>
<stop offset="1" stop-color="#CCDAFF"/>
</linearGradient>
<linearGradient id="paint2_linear_2135_52981" x1="19" y1="5" x2="19" y2="224" gradientUnits="userSpaceOnUse">
<stop stop-color="#E8EDFC"/>
<stop offset="1" stop-color="#CCDAFF"/>
</linearGradient>
<linearGradient id="paint3_linear_2135_52981" x1="192" y1="135" x2="192" y2="-84" gradientUnits="userSpaceOnUse">
<stop stop-color="#E8EDFC"/>
<stop offset="1" stop-color="#CCDAFF"/>
</linearGradient>
<linearGradient id="paint4_linear_2135_52981" x1="192" y1="122" x2="192" y2="-97" gradientUnits="userSpaceOnUse">
<stop stop-color="#E8EDFC"/>
<stop offset="1" stop-color="#CCDAFF"/>
</linearGradient>
<linearGradient id="paint5_linear_2135_52981" x1="171" y1="98" x2="171" y2="-121" gradientUnits="userSpaceOnUse">
<stop stop-color="#E8EDFC"/>
<stop offset="1" stop-color="#CCDAFF"/>
</linearGradient>
<clipPath id="clip0_2135_52981">
<rect width="328" height="184" rx="8" fill="white"/>
</clipPath>
</defs>
</svg>
