<svg width="326" height="184" viewBox="0 0 326 184" fill="none" xmlns="http://www.w3.org/2000/svg">
<g clip-path="url(#clip0_2135_34793)">
<rect x="-136" width="600" height="184" fill="url(#paint0_linear_2135_34793)"/>
<path d="M39.293 29.082V46.7578H37.1445V29.082H39.293ZM33.8633 30.625V37.2461H27.7891V40.8008C30.5723 40.7812 32.9746 40.6445 35.7188 40.1758L35.9141 41.9531C32.9062 42.4805 30.2695 42.5781 27.1055 42.5781H25.5625V35.5273H31.6562V32.3828H25.543V30.625H33.8633ZM57.9844 39.1797V40.9375H54.1953V46.7383H52.0273V40.9375H47.8477V46.7383H45.6211V40.9375H41.8516V39.1797H57.9844ZM45.9531 29.7656V31.875H53.8438V29.7656H56.0312V37.3828H43.8047V29.7656H45.9531ZM45.9531 35.6445H53.8438V33.5742H45.9531V35.6445ZM77.8281 29.1016V34.6484H80.2891V36.4453H77.8281V42.2852H75.6602V29.1016H77.8281ZM74.3906 31.0547V32.793H63.9219V31.0547H68.082V29.082H70.25V31.0547H74.3906ZM69.1562 33.5156C71.6953 33.5156 73.4531 34.8633 73.4727 36.8945C73.4531 38.9062 71.6953 40.2344 69.1562 40.2344C66.5977 40.2344 64.8203 38.9062 64.8203 36.8945C64.8203 34.8633 66.5977 33.5156 69.1562 33.5156ZM69.1562 35.1953C67.8086 35.1953 66.9297 35.8203 66.9297 36.8945C66.9297 37.9492 67.8086 38.5742 69.1562 38.5547C70.5039 38.5742 71.4023 37.9492 71.4023 36.8945C71.4023 35.8203 70.5039 35.1953 69.1562 35.1953ZM78.5312 44.6289V46.3867H66.5195V41.25H68.6875V44.6289H78.5312ZM95.4844 34.0625V35.7812H83.2969V29.6289H85.4844V34.0625H95.4844ZM97.3008 37.5391V39.2578H90.4844V42.5586H88.3359V39.2578H81.1875V37.5391H97.3008ZM95.6211 44.6289V46.3867H83.1406V41.1328H85.2891V44.6289H95.6211ZM113.707 29.082V46.7383H111.617V29.082H113.707ZM110.074 29.3945V45.8789H108.004V37.4805H106.324C106.119 40.918 104.645 43.0469 102.457 43.0273C100.152 43.0469 98.6484 40.6055 98.6484 36.7188C98.6484 32.832 100.152 30.4297 102.457 30.4297C104.596 30.4297 106.051 32.4219 106.305 35.7227H108.004V29.3945H110.074ZM102.457 32.4805C101.344 32.4609 100.641 33.9648 100.66 36.7188C100.641 39.4727 101.344 40.9766 102.457 40.957C103.629 40.9766 104.332 39.4727 104.332 36.7188C104.332 33.9648 103.629 32.4609 102.457 32.4805ZM135.191 29.082V46.7578H133.004V29.082H135.191ZM123.609 30.5273V34.9414H127.887V30.5273H130.035V42.5977H121.441V30.5273H123.609ZM123.609 40.8203H127.887V36.6406H123.609V40.8203ZM152.262 30.7031V32.5C152.262 34.6875 152.262 37.0703 151.617 40.5273L149.488 40.3125C150.094 37.0508 150.094 34.6289 150.094 32.5V32.4414H139.41V30.7031H152.262ZM153.883 42.6758V44.4531H137.789V42.6758H141.402V37.0508H143.57V42.6758H145.816V37.0508H147.945V42.6758H153.883ZM168.902 29.082V36.1133H171.617V37.9102H168.902V46.7383H166.754V29.082H168.902ZM165.387 31.7969V33.5352H154.977V31.7969H159.156V29.3359H161.324V31.7969H165.387ZM160.25 34.6875C162.789 34.6875 164.684 36.4062 164.684 38.8477C164.684 41.2891 162.789 42.9883 160.25 42.9883C157.672 42.9883 155.777 41.2891 155.797 38.8477C155.777 36.4062 157.672 34.6875 160.25 34.6875ZM160.25 36.4648C158.863 36.4648 157.867 37.4023 157.867 38.8477C157.867 40.293 158.863 41.2109 160.25 41.1914C161.598 41.2109 162.594 40.293 162.613 38.8477C162.594 37.4023 161.598 36.4648 160.25 36.4648ZM186.773 30.7031V32.4023C186.754 34.5898 186.754 37.0508 186.07 40.7422L183.883 40.5078C184.566 37.0703 184.566 34.5605 184.586 32.4414H174.039V30.7031H186.773ZM188.453 42.6758V44.4531H172.359V42.6758H178.297V36.543H180.445V42.6758H188.453ZM40.6992 67.6094V69.3867H33.6875V74.7383H31.5391V69.3867H24.5664V67.6094H40.6992ZM38.9609 64.4258V66.1445H26.6367V57.8438H38.7656V59.5625H28.7852V61.125H38.375V62.8047H28.7852V64.4258H38.9609ZM58.0039 70.9492V72.707H41.8711V70.9492H46.0508V67.3164H43.2578V65.5586H45.7383V60.3242H43.1992V58.5859H56.5977V60.3242H54.0195V65.5586H56.5391V67.3164H53.7461V70.9492H58.0039ZM47.9062 65.5586H51.8711V60.3242H47.9062V65.5586ZM48.2188 70.9492H51.5781V67.3164H48.2188V70.9492ZM72.9844 57.082V64.1133H75.6992V65.9102H72.9844V74.7383H70.8359V57.082H72.9844ZM69.4688 59.7969V61.5352H59.0586V59.7969H63.2383V57.3359H65.4062V59.7969H69.4688ZM64.332 62.6875C66.8711 62.6875 68.7656 64.4062 68.7656 66.8477C68.7656 69.2891 66.8711 70.9883 64.332 70.9883C61.7539 70.9883 59.8594 69.2891 59.8789 66.8477C59.8594 64.4062 61.7539 62.6875 64.332 62.6875ZM64.332 64.4648C62.9453 64.4648 61.9492 65.4023 61.9492 66.8477C61.9492 68.293 62.9453 69.2109 64.332 69.1914C65.6797 69.2109 66.6758 68.293 66.6953 66.8477C66.6758 65.4023 65.6797 64.4648 64.332 64.4648ZM81.9492 61.7109C81.9492 64.5625 82.9453 67.5312 85.3281 69.0352L84.1367 70.6953C82.5449 69.7383 81.5098 68.0879 80.9336 66.1445C80.2891 68.2832 79.1562 70.0898 77.4961 71.1055L76.1484 69.4844C78.707 67.9219 79.8594 64.8164 79.8594 61.8086V58.6445H81.9492V61.7109ZM91.6758 57.082V74.7383H89.5859V57.082H91.6758ZM88.0039 57.3945V73.8789H85.9531V64.9531H83.4336V63.1562H85.9531V57.3945H88.0039ZM109.859 70.8125V72.5898H93.7266V70.8125H97.457V66.3398C96.0508 65.5391 95.2012 64.2793 95.2109 62.707C95.1914 59.8945 97.9648 58.0391 101.754 58.0391C105.562 58.0391 108.336 59.8945 108.336 62.707C108.336 64.25 107.516 65.4902 106.148 66.3008V70.8125H109.859ZM101.754 59.7578C99.1172 59.7578 97.3203 60.8711 97.3398 62.707C97.3203 64.5234 99.1172 65.6562 101.754 65.6562C104.391 65.6562 106.207 64.5234 106.207 62.707C106.207 60.8711 104.391 59.7578 101.754 59.7578ZM99.6055 70.8125H103.941V67.1211C103.268 67.2773 102.535 67.3555 101.754 67.3555C100.992 67.3555 100.27 67.2773 99.6055 67.1406V70.8125Z" fill="#1E293B"/>
<path d="M249.601 131.473C249.896 131.708 250.188 131.914 250.476 132.091C250.779 132.254 251.063 132.393 251.328 132.509C251.868 132.785 252.289 132.939 252.592 132.971C252.924 133.006 253.251 132.946 253.573 132.79C253.911 132.636 254.099 132.372 254.139 131.997C254.169 131.709 254.031 131.431 253.723 131.166C253.432 130.887 253.103 130.626 252.735 130.383C252.389 130.2 252.032 129.995 251.662 129.766C251.309 129.525 250.994 129.258 250.719 128.966C250.456 128.691 250.241 128.383 250.073 128.045C249.92 127.693 249.867 127.301 249.913 126.868C249.974 126.292 250.144 125.785 250.424 125.347C250.705 124.896 251.047 124.553 251.451 124.319C251.887 124.059 252.38 123.885 252.928 123.797C253.479 123.695 254.042 123.674 254.619 123.735C255.095 123.786 255.558 123.893 256.007 124.057C256.472 124.208 256.964 124.384 257.482 124.585L256.934 127.283C256.799 127.182 256.601 127.059 256.339 126.914C256.093 126.757 255.867 126.624 255.659 126.514C255.507 126.44 255.289 126.366 255.005 126.292C254.723 126.204 254.444 126.145 254.17 126.116C253.895 126.101 253.643 126.14 253.414 126.233C253.2 126.327 253.078 126.518 253.047 126.806C253.026 127.008 253.071 127.203 253.183 127.389C253.296 127.562 253.433 127.708 253.596 127.827C253.769 127.977 253.945 128.105 254.124 128.211C254.304 128.303 254.455 128.385 254.579 128.456C254.923 128.653 255.265 128.864 255.606 129.09C255.946 129.315 256.254 129.574 256.53 129.866C256.789 130.17 256.988 130.497 257.126 130.848C257.28 131.185 257.329 131.613 257.274 132.132C257.207 132.767 257.027 133.294 256.735 133.716C256.442 134.137 256.1 134.48 255.707 134.744C255.284 135.02 254.813 135.204 254.293 135.295C253.773 135.385 253.231 135.401 252.669 135.342C252.15 135.287 251.585 135.183 250.974 135.031C250.379 134.866 249.782 134.577 249.185 134.163L249.601 131.473Z" fill="#CCDAFF"/>
<path d="M243.833 134.402L240.869 134.088L238.211 122.213L241.239 122.533L242.802 130.093L245.89 123.026L248.94 123.348L243.833 134.402Z" fill="#CCDAFF"/>
<g filter="url(#filter0_ddiii_2135_34793)">
<g clip-path="url(#clip1_2135_34793)">
<rect x="175" y="125.4" width="50" height="50" rx="6" transform="rotate(-15.5446 175 125.4)" fill="#FAE100"/>
<g filter="url(#filter1_di_2135_34793)">
<path fill-rule="evenodd" clip-rule="evenodd" d="M200.737 124.642C208.009 122.619 215.544 126.875 217.566 134.146C218.929 139.044 217.208 142.809 213.736 149.916C212.571 152.3 212.057 156.757 211.832 160C211.794 160.54 211.35 160.906 210.853 161.008C210.374 161.177 209.805 161.094 209.494 160.651C207.626 157.99 204.885 154.438 202.656 152.998C196.013 148.705 192.595 146.369 191.233 141.471C189.21 134.2 193.465 126.665 200.737 124.642ZM203.309 132.954C203.228 132.976 203.148 133.001 203.07 133.027C202.989 133.045 202.908 133.065 202.827 133.088C200.432 133.754 199.031 136.235 199.697 138.629C200.363 141.023 202.844 142.425 205.239 141.758C205.32 141.736 205.399 141.711 205.478 141.685C205.559 141.667 205.64 141.647 205.72 141.624C208.115 140.958 209.516 138.478 208.85 136.083C208.184 133.689 205.703 132.288 203.309 132.954Z" fill="#007DFF"/>
<path d="M200.804 124.883C207.943 122.897 215.34 127.075 217.325 134.214C218.658 139.004 216.992 142.681 213.511 149.806C212.912 151.032 212.488 152.772 212.185 154.595C211.881 156.423 211.696 158.357 211.582 159.983C211.555 160.377 211.226 160.676 210.802 160.763L210.786 160.767L210.769 160.772C210.361 160.916 209.926 160.83 209.699 160.506C208.762 159.172 207.604 157.613 206.4 156.204C205.199 154.799 203.937 153.528 202.792 152.788C196.131 148.484 192.806 146.195 191.474 141.405L191.385 141.07C189.619 134.036 193.777 126.838 200.804 124.883ZM203.242 132.712C203.161 132.735 203.081 132.76 203.003 132.786C202.922 132.804 202.841 132.824 202.76 132.846C200.233 133.549 198.754 136.168 199.457 138.696C200.16 141.223 202.779 142.702 205.306 141.999C205.387 141.976 205.467 141.952 205.545 141.925C205.625 141.907 205.706 141.888 205.788 141.865C208.315 141.162 209.794 138.543 209.091 136.016C208.388 133.489 205.769 132.01 203.242 132.712Z" stroke="#005EC0" stroke-width="0.5"/>
</g>
</g>
<rect x="175.616" y="125.748" width="49" height="49" rx="5.5" transform="rotate(-15.5446 175.616 125.748)" stroke="url(#paint1_linear_2135_34793)"/>
</g>
<g filter="url(#filter2_ddii_2135_34793)">
<g clip-path="url(#clip2_2135_34793)">
<rect x="263.191" y="56" width="56.7329" height="56.7329" rx="6.80794" transform="rotate(11.3755 263.191 56)" fill="white"/>
<g filter="url(#filter3_d_2135_34793)">
<rect x="278.391" y="95.5156" width="34.2288" height="9.07726" transform="rotate(11.3755 278.391 95.5156)" fill="#256BFA"/>
</g>
<g filter="url(#filter4_di_2135_34793)">
<path d="M294.573 84.1106C293.206 90.904 279.558 102.09 276.75 104.331C276.481 104.546 276.1 104.47 275.932 104.169C274.182 101.017 265.767 85.3859 267.134 78.5903C268.659 71.0134 276.037 66.1069 283.614 67.6313C291.191 69.1557 296.097 76.5337 294.573 84.1106Z" fill="#04C75A"/>
<path d="M283.558 67.9089C290.981 69.4024 295.788 76.6313 294.294 84.0546C293.965 85.6898 292.887 87.6218 291.378 89.6519C289.874 91.6754 287.963 93.7699 286.002 95.7275C282.079 99.6424 277.974 102.992 276.573 104.11C276.441 104.215 276.262 104.18 276.18 104.031C275.307 102.459 272.771 97.7739 270.626 92.6369C269.553 90.0683 268.581 87.3931 267.961 84.9417C267.34 82.4821 267.083 80.2811 267.412 78.6462C268.905 71.2229 276.135 66.4154 283.558 67.9089Z" stroke="#CEFFE4" stroke-width="0.567329"/>
</g>
<g filter="url(#filter5_d_2135_34793)">
<path d="M282.575 81.6621L280.039 75.7836L277.076 75.1876L275.137 84.8281L278.24 85.4525L279.278 80.2924L281.815 86.1717L284.777 86.7677L286.717 77.1272L283.613 76.5028L282.575 81.6621Z" fill="white"/>
<path d="M278.462 85.7861L279.377 81.2385L281.554 86.2836L281.613 86.42L284.999 87.1013L287.051 76.9052L283.391 76.1688L282.476 80.7164L280.299 75.6713L280.241 75.5351L276.855 74.8538L274.803 85.0499L278.462 85.7861Z" stroke="#019944" stroke-width="0.567329"/>
</g>
</g>
<rect x="263.636" y="56.6681" width="55.5982" height="55.5982" rx="6.24061" transform="rotate(11.3755 263.636 56.6681)" stroke="url(#paint2_linear_2135_34793)" stroke-width="1.13466"/>
</g>
<path d="M29.3477 101.461C29.3477 103.195 30.3672 105.023 32.0781 105.738L31.3633 106.77C30.1094 106.23 29.1953 105.117 28.7148 103.77C28.2227 105.223 27.2969 106.441 26.0547 107.027L25.3047 106.008C26.9805 105.234 28.0234 103.266 28.0234 101.461V100.57H25.6914V99.4922H31.668V100.57H29.3477V101.461ZM34.1641 98.4492V109.043H32.8516V98.4492H34.1641ZM44.2188 98.9648V99.7852C44.2188 100.605 44.2188 101.543 43.9609 102.797H45.4023V103.852H35.7227V102.797H42.6484C42.8945 101.654 42.918 100.781 42.918 100.008H36.918V98.9648H44.2188ZM44.207 105.082V108.914H36.8828V105.082H44.207ZM38.1602 106.102V107.859H42.918V106.102H38.1602ZM52.9492 100.992C52.9375 102.938 53.957 104.883 55.6797 105.621L54.9062 106.664C53.6875 106.102 52.791 104.977 52.3047 103.594C51.8184 105.088 50.9102 106.307 49.6211 106.91L48.8242 105.82C50.5938 105.059 51.625 103.031 51.625 100.992V99.3047H52.9492V100.992ZM57.7539 98.4492V109.055H56.4414V98.4492H57.7539ZM63.1094 100.289C63.1094 101.59 63.9531 102.879 65.6172 103.43L64.9609 104.438C63.7773 104.045 62.9336 103.248 62.4766 102.258C62.002 103.342 61.123 104.203 59.8867 104.625L59.1953 103.617C60.9062 103.055 61.7969 101.684 61.7969 100.289V100.16H59.5586V99.1172H65.3125V100.16H63.1094V100.289ZM67.668 98.4492V101.098H69.1445V102.188H67.668V104.836H66.3672V98.4492H67.668ZM67.668 105.328V109.043H66.3672V106.371H60.6133V105.328H67.668ZM77.9805 98.4492V102.668H79.6094V103.746H77.9805V109.043H76.6914V98.4492H77.9805ZM75.8711 100.078V101.121H69.625V100.078H72.1328V98.6016H73.4336V100.078H75.8711ZM72.7891 101.812C74.3125 101.812 75.4492 102.844 75.4492 104.309C75.4492 105.773 74.3125 106.793 72.7891 106.793C71.2422 106.793 70.1055 105.773 70.1172 104.309C70.1055 102.844 71.2422 101.812 72.7891 101.812ZM72.7891 102.879C71.957 102.879 71.3594 103.441 71.3594 104.309C71.3594 105.176 71.957 105.727 72.7891 105.715C73.5977 105.727 74.1953 105.176 74.207 104.309C74.1953 103.441 73.5977 102.879 72.7891 102.879ZM88.9023 98.4492V109.043H87.5898V98.4492H88.9023ZM85.7383 99.5742C85.7383 102.727 84.5195 105.41 80.8047 107.168L80.125 106.125C82.8965 104.807 84.1855 103.014 84.4141 100.605H80.6641V99.5742H85.7383Z" fill="#7585A2"/>
<path d="M97 109L103 104L97 99" stroke="#7585A2" stroke-linecap="round" stroke-linejoin="round"/>
<g clip-path="url(#clip3_2135_34793)">
<rect x="170" y="75" width="72.9167" height="19.7917" rx="9.89583" fill="white"/>
<path d="M223.125 100L229.375 94.7917H216.875L223.125 100Z" fill="white"/>
<path d="M179.443 81.373C180.524 81.373 181.329 82.2651 181.491 83.7021H182.88V80.8105H183.987V88.8262H182.88V84.5986H181.5C181.381 86.1367 180.56 87.0771 179.443 87.0771C178.23 87.0771 177.36 85.9785 177.369 84.2207C177.36 82.4805 178.23 81.373 179.443 81.373ZM179.443 82.3838C178.846 82.3838 178.433 83.0342 178.441 84.2207C178.433 85.416 178.846 86.0576 179.443 86.0576C180.05 86.0576 180.445 85.416 180.445 84.2207C180.445 83.0342 180.05 82.3838 179.443 82.3838ZM191.537 84.3438V85.2578H185.833V81.5049H186.958V84.3438H191.537ZM192.337 86.9277V87.8594H185.016V86.9277H192.337ZM198.551 81.9883C198.542 82.5068 198.999 83.0693 199.957 83.2803L199.482 84.0889C198.709 83.9043 198.204 83.4868 197.936 82.9639C197.667 83.4297 197.188 83.8164 196.441 83.9834C195.699 83.8076 195.211 83.4209 194.938 82.9639C194.67 83.4824 194.169 83.8999 193.4 84.0889L192.935 83.2803C193.875 83.0605 194.341 82.4893 194.341 81.9883H193.277V81.083H196.274V81.9883H195.448C195.457 82.3794 195.795 82.8188 196.441 83.0693C197.074 82.8232 197.399 82.3838 197.408 81.9883H196.6V81.083H199.588V81.9883H198.551ZM200.089 84.6426V85.5303H192.794V84.6426H195.879V83.9922H196.995V84.6426H200.089ZM199.219 86.1719V88.8086H198.094V87.0684H193.585V86.1719H199.219ZM207.27 80.8105V88.8262H206.136V80.8105H207.27ZM202.928 81.373C204.132 81.373 205.028 82.4805 205.028 84.2207C205.028 85.9785 204.132 87.0771 202.928 87.0771C201.697 87.0771 200.801 85.9785 200.81 84.2207C200.801 82.4805 201.697 81.373 202.928 81.373ZM202.928 82.3838C202.304 82.3838 201.891 83.0342 201.891 84.2207C201.891 85.416 202.304 86.0576 202.928 86.0576C203.534 86.0576 203.947 85.416 203.947 84.2207C203.947 83.0342 203.534 82.3838 202.928 82.3838ZM217.122 80.8105V88.8262H215.988V80.8105H217.122ZM212.78 81.373C213.984 81.373 214.881 82.4805 214.881 84.2207C214.881 85.9785 213.984 87.0771 212.78 87.0771C211.55 87.0771 210.653 85.9785 210.662 84.2207C210.653 82.4805 211.55 81.373 212.78 81.373ZM212.78 82.3838C212.156 82.3838 211.743 83.0342 211.743 84.2207C211.743 85.416 212.156 86.0576 212.78 86.0576C213.387 86.0576 213.8 85.416 213.8 84.2207C213.8 83.0342 213.387 82.3838 212.78 82.3838ZM224.9 80.8105V84.8359H223.775V80.8105H224.9ZM222.475 81.1006C222.466 83.2979 221.244 84.4932 218.713 85.0029L218.317 84.0977C220.291 83.7329 221.112 82.9683 221.235 82.0059H218.748V81.1006H222.475ZM224.9 85.1523V87.3145H220.682V87.8594H225.12V88.7295H219.548V86.5059H223.767V86.0225H219.53V85.1523H224.9ZM232.389 80.8105V83.9482H233.452V84.8711H232.389V88.8086H231.264V80.8105H232.389ZM228.372 81.6279C228.363 83.8252 228.135 85.5391 226.702 87.1123L225.823 86.4883C226.913 85.3105 227.229 84.1372 227.3 82.542H226.175V81.6279H228.372ZM230.587 81.6279C230.587 83.9131 230.385 85.8906 228.97 87.6309L228.082 87.0068C229.167 85.6709 229.462 84.2998 229.532 82.542H228.636V81.6279H230.587ZM235.157 85.9961C235.166 84.9062 235.456 84.5635 235.983 84.2383C236.361 83.9922 236.651 83.7197 236.651 83.3154C236.651 82.876 236.309 82.5859 235.887 82.5859C235.474 82.5859 235.096 82.8584 235.078 83.377H233.83C233.856 82.1377 234.771 81.5488 235.896 81.5488C237.117 81.5488 237.987 82.1904 237.987 83.2715C237.987 83.9922 237.618 84.458 237.038 84.8008C236.546 85.0996 236.326 85.3809 236.317 85.9961V86.0928H235.157V85.9961ZM235.764 88.0791C235.351 88.0791 235.017 87.7451 235.025 87.3408C235.017 86.9365 235.351 86.6113 235.764 86.6113C236.15 86.6113 236.493 86.9365 236.493 87.3408C236.493 87.7451 236.15 88.0791 235.764 88.0791Z" fill="#0048FF"/>
</g>
</g>
<defs>
<filter id="filter0_ddiii_2135_34793" x="174" y="110" width="70.5703" height="71.5723" filterUnits="userSpaceOnUse" color-interpolation-filters="sRGB">
<feFlood flood-opacity="0" result="BackgroundImageFix"/>
<feColorMatrix in="SourceAlpha" type="matrix" values="0 0 0 0 0 0 0 0 0 0 0 0 0 0 0 0 0 0 127 0" result="hardAlpha"/>
<feOffset dx="4" dy="4"/>
<feGaussianBlur stdDeviation="2"/>
<feComposite in2="hardAlpha" operator="out"/>
<feColorMatrix type="matrix" values="0 0 0 0 0 0 0 0 0 0 0 0 0 0 0 0 0 0 0.25 0"/>
<feBlend mode="normal" in2="BackgroundImageFix" result="effect1_dropShadow_2135_34793"/>
<feColorMatrix in="SourceAlpha" type="matrix" values="0 0 0 0 0 0 0 0 0 0 0 0 0 0 0 0 0 0 127 0" result="hardAlpha"/>
<feOffset dx="1" dy="1"/>
<feComposite in2="hardAlpha" operator="out"/>
<feColorMatrix type="matrix" values="0 0 0 0 0.18087 0 0 0 0 0.247247 0 0 0 0 0.415142 0 0 0 1 0"/>
<feBlend mode="normal" in2="effect1_dropShadow_2135_34793" result="effect2_dropShadow_2135_34793"/>
<feBlend mode="normal" in="SourceGraphic" in2="effect2_dropShadow_2135_34793" result="shape"/>
<feColorMatrix in="SourceAlpha" type="matrix" values="0 0 0 0 0 0 0 0 0 0 0 0 0 0 0 0 0 0 127 0" result="hardAlpha"/>
<feMorphology radius="4" operator="erode" in="SourceAlpha" result="effect3_innerShadow_2135_34793"/>
<feOffset/>
<feGaussianBlur stdDeviation="6"/>
<feComposite in2="hardAlpha" operator="arithmetic" k2="-1" k3="1"/>
<feColorMatrix type="matrix" values="0 0 0 0 1 0 0 0 0 0.984756 0 0 0 0 0.847556 0 0 0 1 0"/>
<feBlend mode="normal" in2="shape" result="effect3_innerShadow_2135_34793"/>
<feColorMatrix in="SourceAlpha" type="matrix" values="0 0 0 0 0 0 0 0 0 0 0 0 0 0 0 0 0 0 127 0" result="hardAlpha"/>
<feMorphology radius="1" operator="erode" in="SourceAlpha" result="effect4_innerShadow_2135_34793"/>
<feOffset dx="1" dy="2"/>
<feGaussianBlur stdDeviation="2"/>
<feComposite in2="hardAlpha" operator="arithmetic" k2="-1" k3="1"/>
<feColorMatrix type="matrix" values="0 0 0 0 1 0 0 0 0 1 0 0 0 0 1 0 0 0 1 0"/>
<feBlend mode="normal" in2="effect3_innerShadow_2135_34793" result="effect4_innerShadow_2135_34793"/>
<feColorMatrix in="SourceAlpha" type="matrix" values="0 0 0 0 0 0 0 0 0 0 0 0 0 0 0 0 0 0 127 0" result="hardAlpha"/>
<feMorphology radius="3" operator="erode" in="SourceAlpha" result="effect5_innerShadow_2135_34793"/>
<feOffset dx="-1" dy="-2"/>
<feGaussianBlur stdDeviation="4"/>
<feComposite in2="hardAlpha" operator="arithmetic" k2="-1" k3="1"/>
<feColorMatrix type="matrix" values="0 0 0 0 1 0 0 0 0 0.806263 0 0 0 0 0.105828 0 0 0 0.73 0"/>
<feBlend mode="normal" in2="effect4_innerShadow_2135_34793" result="effect5_innerShadow_2135_34793"/>
</filter>
<filter id="filter1_di_2135_34793" x="181.73" y="115.139" width="45.3047" height="54.9512" filterUnits="userSpaceOnUse" color-interpolation-filters="sRGB">
<feFlood flood-opacity="0" result="BackgroundImageFix"/>
<feColorMatrix in="SourceAlpha" type="matrix" values="0 0 0 0 0 0 0 0 0 0 0 0 0 0 0 0 0 0 127 0" result="hardAlpha"/>
<feOffset/>
<feGaussianBlur stdDeviation="4.5"/>
<feComposite in2="hardAlpha" operator="out"/>
<feColorMatrix type="matrix" values="0 0 0 0 0.863941 0 0 0 0 0.59036 0 0 0 0 0 0 0 0 1 0"/>
<feBlend mode="normal" in2="BackgroundImageFix" result="effect1_dropShadow_2135_34793"/>
<feBlend mode="normal" in="SourceGraphic" in2="effect1_dropShadow_2135_34793" result="shape"/>
<feColorMatrix in="SourceAlpha" type="matrix" values="0 0 0 0 0 0 0 0 0 0 0 0 0 0 0 0 0 0 127 0" result="hardAlpha"/>
<feOffset/>
<feGaussianBlur stdDeviation="1.5"/>
<feComposite in2="hardAlpha" operator="arithmetic" k2="-1" k3="1"/>
<feColorMatrix type="matrix" values="0 0 0 0 0.779447 0 0 0 0 0.897075 0 0 0 0 1 0 0 0 1 0"/>
<feBlend mode="normal" in2="shape" result="effect2_innerShadow_2135_34793"/>
</filter>
<filter id="filter2_ddii_2135_34793" x="252" y="56" width="75.8859" height="75.8859" filterUnits="userSpaceOnUse" color-interpolation-filters="sRGB">
<feFlood flood-opacity="0" result="BackgroundImageFix"/>
<feColorMatrix in="SourceAlpha" type="matrix" values="0 0 0 0 0 0 0 0 0 0 0 0 0 0 0 0 0 0 127 0" result="hardAlpha"/>
<feOffset dx="4.53863" dy="4.53863"/>
<feGaussianBlur stdDeviation="2.26931"/>
<feComposite in2="hardAlpha" operator="out"/>
<feColorMatrix type="matrix" values="0 0 0 0 0 0 0 0 0 0 0 0 0 0 0 0 0 0 0.25 0"/>
<feBlend mode="normal" in2="BackgroundImageFix" result="effect1_dropShadow_2135_34793"/>
<feColorMatrix in="SourceAlpha" type="matrix" values="0 0 0 0 0 0 0 0 0 0 0 0 0 0 0 0 0 0 127 0" result="hardAlpha"/>
<feOffset dx="1.13466" dy="1.13466"/>
<feComposite in2="hardAlpha" operator="out"/>
<feColorMatrix type="matrix" values="0 0 0 0 0.180392 0 0 0 0 0.247059 0 0 0 0 0.415686 0 0 0 1 0"/>
<feBlend mode="normal" in2="effect1_dropShadow_2135_34793" result="effect2_dropShadow_2135_34793"/>
<feBlend mode="normal" in="SourceGraphic" in2="effect2_dropShadow_2135_34793" result="shape"/>
<feColorMatrix in="SourceAlpha" type="matrix" values="0 0 0 0 0 0 0 0 0 0 0 0 0 0 0 0 0 0 127 0" result="hardAlpha"/>
<feOffset/>
<feGaussianBlur stdDeviation="4.53863"/>
<feComposite in2="hardAlpha" operator="arithmetic" k2="-1" k3="1"/>
<feColorMatrix type="matrix" values="0 0 0 0 0 0 0 0 0 0 0 0 0 0 0 0 0 0 0.25 0"/>
<feBlend mode="normal" in2="shape" result="effect3_innerShadow_2135_34793"/>
<feColorMatrix in="SourceAlpha" type="matrix" values="0 0 0 0 0 0 0 0 0 0 0 0 0 0 0 0 0 0 127 0" result="hardAlpha"/>
<feOffset dx="2.26931" dy="2.26931"/>
<feGaussianBlur stdDeviation="2.26931"/>
<feComposite in2="hardAlpha" operator="arithmetic" k2="-1" k3="1"/>
<feColorMatrix type="matrix" values="0 0 0 0 1 0 0 0 0 1 0 0 0 0 1 0 0 0 1 0"/>
<feBlend mode="normal" in2="effect3_innerShadow_2135_34793" result="effect4_innerShadow_2135_34793"/>
</filter>
<filter id="filter3_d_2135_34793" x="272.063" y="92.1117" width="44.421" height="24.7276" filterUnits="userSpaceOnUse" color-interpolation-filters="sRGB">
<feFlood flood-opacity="0" result="BackgroundImageFix"/>
<feColorMatrix in="SourceAlpha" type="matrix" values="0 0 0 0 0 0 0 0 0 0 0 0 0 0 0 0 0 0 127 0" result="hardAlpha"/>
<feOffset dy="1.13466"/>
<feGaussianBlur stdDeviation="2.26931"/>
<feComposite in2="hardAlpha" operator="out"/>
<feColorMatrix type="matrix" values="0 0 0 0 0 0 0 0 0 0 0 0 0 0 0 0 0 0 0.25 0"/>
<feBlend mode="normal" in2="BackgroundImageFix" result="effect1_dropShadow_2135_34793"/>
<feBlend mode="normal" in="SourceGraphic" in2="effect1_dropShadow_2135_34793" result="shape"/>
</filter>
<filter id="filter4_di_2135_34793" x="256.772" y="57.1416" width="48.291" height="57.5234" filterUnits="userSpaceOnUse" color-interpolation-filters="sRGB">
<feFlood flood-opacity="0" result="BackgroundImageFix"/>
<feColorMatrix in="SourceAlpha" type="matrix" values="0 0 0 0 0 0 0 0 0 0 0 0 0 0 0 0 0 0 127 0" result="hardAlpha"/>
<feOffset/>
<feGaussianBlur stdDeviation="5.10596"/>
<feComposite in2="hardAlpha" operator="out"/>
<feColorMatrix type="matrix" values="0 0 0 0 0.204235 0 0 0 0 1 0 0 0 0 0.557457 0 0 0 1 0"/>
<feBlend mode="normal" in2="BackgroundImageFix" result="effect1_dropShadow_2135_34793"/>
<feBlend mode="normal" in="SourceGraphic" in2="effect1_dropShadow_2135_34793" result="shape"/>
<feColorMatrix in="SourceAlpha" type="matrix" values="0 0 0 0 0 0 0 0 0 0 0 0 0 0 0 0 0 0 127 0" result="hardAlpha"/>
<feOffset/>
<feGaussianBlur stdDeviation="2.83664"/>
<feComposite in2="hardAlpha" operator="arithmetic" k2="-1" k3="1"/>
<feColorMatrix type="matrix" values="0 0 0 0 1 0 0 0 0 1 0 0 0 0 1 0 0 0 1 0"/>
<feBlend mode="normal" in2="shape" result="effect2_innerShadow_2135_34793"/>
</filter>
<filter id="filter5_d_2135_34793" x="269.93" y="69.9809" width="21.9952" height="21.9933" filterUnits="userSpaceOnUse" color-interpolation-filters="sRGB">
<feFlood flood-opacity="0" result="BackgroundImageFix"/>
<feColorMatrix in="SourceAlpha" type="matrix" values="0 0 0 0 0 0 0 0 0 0 0 0 0 0 0 0 0 0 127 0" result="hardAlpha"/>
<feOffset/>
<feGaussianBlur stdDeviation="2.26931"/>
<feComposite in2="hardAlpha" operator="out"/>
<feColorMatrix type="matrix" values="0 0 0 0 0 0 0 0 0 0 0 0 0 0 0 0 0 0 0.25 0"/>
<feBlend mode="normal" in2="BackgroundImageFix" result="effect1_dropShadow_2135_34793"/>
<feBlend mode="normal" in="SourceGraphic" in2="effect1_dropShadow_2135_34793" result="shape"/>
</filter>
<linearGradient id="paint0_linear_2135_34793" x1="-136" y1="0" x2="464" y2="184" gradientUnits="userSpaceOnUse">
<stop stop-color="#C7D6FC"/>
<stop offset="1" stop-color="#F5F8FF"/>
</linearGradient>
<linearGradient id="paint1_linear_2135_34793" x1="178.5" y1="125.4" x2="218.5" y2="177.9" gradientUnits="userSpaceOnUse">
<stop stop-color="white"/>
<stop offset="1" stop-color="#FFCC26"/>
</linearGradient>
<linearGradient id="paint2_linear_2135_34793" x1="263.191" y1="56" x2="319.924" y2="112.733" gradientUnits="userSpaceOnUse">
<stop stop-color="white"/>
<stop offset="1" stop-color="#4D7FFF"/>
</linearGradient>
<clipPath id="clip0_2135_34793">
<rect width="326" height="184" rx="8" fill="white"/>
</clipPath>
<clipPath id="clip1_2135_34793">
<rect x="175" y="125.4" width="50" height="50" rx="6" transform="rotate(-15.5446 175 125.4)" fill="white"/>
</clipPath>
<clipPath id="clip2_2135_34793">
<rect x="263.191" y="56" width="56.7329" height="56.7329" rx="6.80794" transform="rotate(11.3755 263.191 56)" fill="white"/>
</clipPath>
<clipPath id="clip3_2135_34793">
<rect width="72.9167" height="25" fill="white" transform="translate(170 75)"/>
</clipPath>
</defs>
</svg>
