<svg width="328" height="130" viewBox="0 0 328 130" fill="none" xmlns="http://www.w3.org/2000/svg">
<g clip-path="url(#clip0_1828_29668)">
<g clip-path="url(#clip1_1828_29668)">
<path d="M166.762 94.8188C167.144 95.0624 167.518 95.2712 167.884 95.4453C168.267 95.6019 168.623 95.7324 168.954 95.8368C169.633 96.0979 170.155 96.2284 170.52 96.2284C170.92 96.2284 171.303 96.1153 171.669 95.8891C172.051 95.6628 172.243 95.3235 172.243 94.871C172.243 94.5229 172.043 94.2097 171.642 93.9312C171.26 93.6353 170.833 93.3656 170.364 93.122C169.928 92.9479 169.476 92.7478 169.006 92.5215C168.554 92.2779 168.145 91.9994 167.779 91.6862C167.431 91.3903 167.136 91.051 166.892 90.6681C166.666 90.2678 166.553 89.8067 166.553 89.2846C166.553 88.5884 166.692 87.9619 166.97 87.405C167.249 86.8307 167.614 86.3782 168.067 86.0476C168.554 85.6821 169.119 85.4124 169.763 85.2383C170.407 85.0469 171.077 84.9512 171.773 84.9512C172.347 84.9512 172.913 85.0208 173.47 85.16C174.044 85.2818 174.653 85.4298 175.297 85.6038L174.983 88.893C174.809 88.7886 174.557 88.6667 174.226 88.5275C173.913 88.3709 173.626 88.2404 173.365 88.1359C173.174 88.0663 172.904 88.0054 172.556 87.9532C172.208 87.8836 171.869 87.8488 171.538 87.8488C171.207 87.8662 170.912 87.9445 170.651 88.0837C170.407 88.223 170.285 88.4666 170.285 88.8147C170.285 89.0583 170.364 89.2846 170.52 89.4934C170.677 89.6848 170.859 89.8415 171.068 89.9633C171.294 90.1199 171.521 90.2504 171.747 90.3549C171.973 90.4419 172.164 90.5202 172.321 90.5898C172.756 90.7812 173.191 90.9901 173.626 91.2163C174.061 91.4425 174.461 91.7123 174.827 92.0256C175.175 92.3562 175.453 92.7217 175.662 93.122C175.888 93.5048 176.001 94.0095 176.001 94.636C176.001 95.4018 175.853 96.0544 175.558 96.5939C175.262 97.1334 174.896 97.5859 174.461 97.9513C173.992 98.3342 173.452 98.6126 172.843 98.7867C172.234 98.9607 171.59 99.0477 170.912 99.0477C170.285 99.0477 169.598 98.9955 168.85 98.8911C168.119 98.7693 167.371 98.4995 166.605 98.0819L166.762 94.8188Z" fill="#CCDAFF"/>
<path d="M160.249 99.0425H156.673L152.001 85.207H155.655L158.474 94.0304L161.267 85.207H164.947L160.249 99.0425Z" fill="#CCDAFF"/>
</g>
<g filter="url(#filter0_diiii_1828_29668)">
<g clip-path="url(#clip2_1828_29668)">
<rect x="56" y="32" width="60" height="60" rx="7.2" fill="#FAE100"/>
<g filter="url(#filter1_di_1828_29668)">
<path fill-rule="evenodd" clip-rule="evenodd" d="M85.9996 39.4004C95.0571 39.4004 102.4 46.743 102.4 55.8004C102.4 61.9004 99.1996 65.7004 92.8996 72.8004C90.7866 75.1817 88.7593 80.1689 87.4555 83.8461C87.2384 84.4582 86.6074 84.7377 85.9996 84.6965C85.3918 84.7377 84.7608 84.4582 84.5437 83.8461C83.2399 80.1689 81.2126 75.1817 79.0996 72.8004C72.7996 65.7004 69.5996 61.9004 69.5996 55.8004C69.5997 46.743 76.9422 39.4004 85.9996 39.4004ZM86.2996 49.8363C86.1989 49.8363 86.0989 49.8393 85.9996 49.8447C85.9003 49.8393 85.8003 49.8363 85.6996 49.8363C82.7173 49.8363 80.2996 52.254 80.2996 55.2363C80.2996 58.2187 82.7173 60.6363 85.6996 60.6363C85.8003 60.6363 85.9003 60.6332 85.9996 60.6277C86.0989 60.6332 86.1989 60.6363 86.2996 60.6363C89.2819 60.6363 91.6996 58.2187 91.6996 55.2363C91.6996 52.254 89.2819 49.8363 86.2996 49.8363Z" fill="#007DFF"/>
<path d="M86 39.7002C94.8916 39.7004 102.1 46.9092 102.1 55.8008C102.099 61.7676 98.9911 65.4833 92.6748 72.6016C91.5885 73.826 90.5392 75.701 89.6025 77.7109C88.6631 79.7269 87.8265 81.9027 87.1729 83.7461C87.0142 84.1934 86.538 84.4326 86.0195 84.3975L86 84.3955L85.9795 84.3975C85.461 84.4326 84.9849 84.1934 84.8262 83.7461C84.1726 81.9028 83.3368 79.7268 82.3975 77.7109C81.4608 75.701 80.4106 73.826 79.3242 72.6016C73.008 65.4833 69.8995 61.7676 69.8994 55.8008C69.8995 46.909 77.1082 39.7002 86 39.7002ZM86.2998 49.5361C86.1986 49.5361 86.0982 49.5388 85.999 49.5439C85.9002 49.5388 85.8 49.5361 85.6992 49.5361C82.5514 49.5363 80 52.0884 80 55.2363C80 58.3842 82.5514 60.9363 85.6992 60.9365C85.8003 60.9365 85.9006 60.9329 85.999 60.9277C86.0979 60.9329 86.1983 60.9365 86.2998 60.9365C89.4477 60.9364 92 58.3843 92 55.2363C92 52.0884 89.4477 49.5362 86.2998 49.5361Z" stroke="white" stroke-width="0.6"/>
</g>
</g>
<rect x="56.6" y="32.6" width="58.8" height="58.8" rx="6.6" stroke="url(#paint0_linear_1828_29668)" stroke-width="1.2"/>
</g>
<g filter="url(#filter2_di_1828_29668)">
<g clip-path="url(#clip3_1828_29668)">
<rect x="192" y="12" width="100" height="100" rx="12" fill="white"/>
<g filter="url(#filter3_d_1828_29668)">
<rect x="232" y="75" width="60.3333" height="16" fill="#256BFA"/>
</g>
<g filter="url(#filter4_di_1828_29668)">
<path d="M255.999 49.6667C255.999 61.8809 236.305 85.9553 232.231 90.8039C231.84 91.2692 231.156 91.2713 230.762 90.8087C226.642 85.9711 206.666 61.8849 206.666 49.6667C206.666 36.0436 217.71 25 231.333 25C244.956 25 255.999 36.0436 255.999 49.6667Z" fill="#04C75A"/>
<path d="M231.333 25.5C244.68 25.5002 255.499 36.3202 255.499 49.667C255.499 52.607 254.308 56.32 252.406 60.3525C250.511 64.3721 247.936 68.655 245.227 72.7197C239.809 80.8486 233.881 88.0636 231.849 90.4824C231.657 90.7107 231.336 90.7116 231.143 90.4844C229.087 88.0711 223.077 80.8566 217.583 72.7256C214.836 68.6596 212.225 64.3746 210.303 60.3535C208.374 56.3194 207.166 52.6064 207.166 49.667C207.166 36.3201 217.986 25.5 231.333 25.5Z" stroke="#CEFFE4"/>
</g>
<g filter="url(#filter5_d_1828_29668)">
<path d="M234.419 49.6089L227.993 40.3327H222.666V57.666H228.246V48.3883L234.673 57.666H239.999V40.3327H234.419V49.6089Z" fill="white"/>
<path d="M228.746 58.166V49.9883L234.262 57.9512L234.411 58.166H240.499V39.833H233.919V48.0098L228.403 40.0479L228.255 39.833H222.166V58.166H228.746Z" stroke="#019944"/>
</g>
</g>
<rect x="193" y="13" width="98" height="98" rx="11" stroke="url(#paint1_linear_1828_29668)" stroke-width="2"/>
</g>
</g>
<defs>
<filter id="filter0_diiii_1828_29668" x="44.48" y="29.12" width="75.84" height="74.4" filterUnits="userSpaceOnUse" color-interpolation-filters="sRGB">
<feFlood flood-opacity="0" result="BackgroundImageFix"/>
<feColorMatrix in="SourceAlpha" type="matrix" values="0 0 0 0 0 0 0 0 0 0 0 0 0 0 0 0 0 0 127 0" result="hardAlpha"/>
<feOffset dx="-5.76" dy="5.76"/>
<feGaussianBlur stdDeviation="2.88"/>
<feComposite in2="hardAlpha" operator="out"/>
<feColorMatrix type="matrix" values="0 0 0 0 0 0 0 0 0 0 0 0 0 0 0 0 0 0 0.25 0"/>
<feBlend mode="normal" in2="BackgroundImageFix" result="effect1_dropShadow_1828_29668"/>
<feBlend mode="normal" in="SourceGraphic" in2="effect1_dropShadow_1828_29668" result="shape"/>
<feColorMatrix in="SourceAlpha" type="matrix" values="0 0 0 0 0 0 0 0 0 0 0 0 0 0 0 0 0 0 127 0" result="hardAlpha"/>
<feMorphology radius="5.76" operator="erode" in="SourceAlpha" result="effect2_innerShadow_1828_29668"/>
<feOffset/>
<feGaussianBlur stdDeviation="8.64"/>
<feComposite in2="hardAlpha" operator="arithmetic" k2="-1" k3="1"/>
<feColorMatrix type="matrix" values="0 0 0 0 1 0 0 0 0 0.984756 0 0 0 0 0.847556 0 0 0 1 0"/>
<feBlend mode="normal" in2="shape" result="effect2_innerShadow_1828_29668"/>
<feColorMatrix in="SourceAlpha" type="matrix" values="0 0 0 0 0 0 0 0 0 0 0 0 0 0 0 0 0 0 127 0" result="hardAlpha"/>
<feOffset dx="4.32" dy="2.88"/>
<feGaussianBlur stdDeviation="3.6"/>
<feComposite in2="hardAlpha" operator="arithmetic" k2="-1" k3="1"/>
<feColorMatrix type="matrix" values="0 0 0 0 1 0 0 0 0 1 0 0 0 0 1 0 0 0 1 0"/>
<feBlend mode="normal" in2="effect2_innerShadow_1828_29668" result="effect3_innerShadow_1828_29668"/>
<feColorMatrix in="SourceAlpha" type="matrix" values="0 0 0 0 0 0 0 0 0 0 0 0 0 0 0 0 0 0 127 0" result="hardAlpha"/>
<feMorphology radius="4.32" operator="erode" in="SourceAlpha" result="effect4_innerShadow_1828_29668"/>
<feOffset dx="-1.44" dy="-2.88"/>
<feGaussianBlur stdDeviation="5.76"/>
<feComposite in2="hardAlpha" operator="arithmetic" k2="-1" k3="1"/>
<feColorMatrix type="matrix" values="0 0 0 0 1 0 0 0 0 0.806263 0 0 0 0 0.105828 0 0 0 0.73 0"/>
<feBlend mode="normal" in2="effect3_innerShadow_1828_29668" result="effect4_innerShadow_1828_29668"/>
<feColorMatrix in="SourceAlpha" type="matrix" values="0 0 0 0 0 0 0 0 0 0 0 0 0 0 0 0 0 0 127 0" result="hardAlpha"/>
<feOffset dx="2.88" dy="2.88"/>
<feGaussianBlur stdDeviation="2.16"/>
<feComposite in2="hardAlpha" operator="arithmetic" k2="-1" k3="1"/>
<feColorMatrix type="matrix" values="0 0 0 0 1 0 0 0 0 1 0 0 0 0 1 0 0 0 1 0"/>
<feBlend mode="normal" in2="effect4_innerShadow_1828_29668" result="effect5_innerShadow_1828_29668"/>
</filter>
<filter id="filter1_di_1828_29668" x="59.9996" y="29.8004" width="51.9998" height="64.5008" filterUnits="userSpaceOnUse" color-interpolation-filters="sRGB">
<feFlood flood-opacity="0" result="BackgroundImageFix"/>
<feColorMatrix in="SourceAlpha" type="matrix" values="0 0 0 0 0 0 0 0 0 0 0 0 0 0 0 0 0 0 127 0" result="hardAlpha"/>
<feOffset/>
<feGaussianBlur stdDeviation="4.8"/>
<feComposite in2="hardAlpha" operator="out"/>
<feColorMatrix type="matrix" values="0 0 0 0 1 0 0 0 0 0.683981 0 0 0 0 0.138129 0 0 0 1 0"/>
<feBlend mode="normal" in2="BackgroundImageFix" result="effect1_dropShadow_1828_29668"/>
<feBlend mode="normal" in="SourceGraphic" in2="effect1_dropShadow_1828_29668" result="shape"/>
<feColorMatrix in="SourceAlpha" type="matrix" values="0 0 0 0 0 0 0 0 0 0 0 0 0 0 0 0 0 0 127 0" result="hardAlpha"/>
<feOffset/>
<feGaussianBlur stdDeviation="1.8"/>
<feComposite in2="hardAlpha" operator="arithmetic" k2="-1" k3="1"/>
<feColorMatrix type="matrix" values="0 0 0 0 0.779447 0 0 0 0 0.897075 0 0 0 0 1 0 0 0 1 0"/>
<feBlend mode="normal" in2="shape" result="effect2_innerShadow_1828_29668"/>
</filter>
<filter id="filter2_di_1828_29668" x="192" y="12" width="119.2" height="119.2" filterUnits="userSpaceOnUse" color-interpolation-filters="sRGB">
<feFlood flood-opacity="0" result="BackgroundImageFix"/>
<feColorMatrix in="SourceAlpha" type="matrix" values="0 0 0 0 0 0 0 0 0 0 0 0 0 0 0 0 0 0 127 0" result="hardAlpha"/>
<feOffset dx="9.6" dy="9.6"/>
<feGaussianBlur stdDeviation="4.8"/>
<feComposite in2="hardAlpha" operator="out"/>
<feColorMatrix type="matrix" values="0 0 0 0 0 0 0 0 0 0 0 0 0 0 0 0 0 0 0.25 0"/>
<feBlend mode="normal" in2="BackgroundImageFix" result="effect1_dropShadow_1828_29668"/>
<feBlend mode="normal" in="SourceGraphic" in2="effect1_dropShadow_1828_29668" result="shape"/>
<feColorMatrix in="SourceAlpha" type="matrix" values="0 0 0 0 0 0 0 0 0 0 0 0 0 0 0 0 0 0 127 0" result="hardAlpha"/>
<feOffset dx="4.8" dy="4.8"/>
<feGaussianBlur stdDeviation="4.8"/>
<feComposite in2="hardAlpha" operator="arithmetic" k2="-1" k3="1"/>
<feColorMatrix type="matrix" values="0 0 0 0 1 0 0 0 0 1 0 0 0 0 1 0 0 0 1 0"/>
<feBlend mode="normal" in2="shape" result="effect2_innerShadow_1828_29668"/>
</filter>
<filter id="filter3_d_1828_29668" x="224" y="69" width="76.333" height="32" filterUnits="userSpaceOnUse" color-interpolation-filters="sRGB">
<feFlood flood-opacity="0" result="BackgroundImageFix"/>
<feColorMatrix in="SourceAlpha" type="matrix" values="0 0 0 0 0 0 0 0 0 0 0 0 0 0 0 0 0 0 127 0" result="hardAlpha"/>
<feOffset dy="2"/>
<feGaussianBlur stdDeviation="4"/>
<feComposite in2="hardAlpha" operator="out"/>
<feColorMatrix type="matrix" values="0 0 0 0 0 0 0 0 0 0 0 0 0 0 0 0 0 0 0.25 0"/>
<feBlend mode="normal" in2="BackgroundImageFix" result="effect1_dropShadow_1828_29668"/>
<feBlend mode="normal" in="SourceGraphic" in2="effect1_dropShadow_1828_29668" result="shape"/>
</filter>
<filter id="filter4_di_1828_29668" x="188.666" y="7" width="85.333" height="102.154" filterUnits="userSpaceOnUse" color-interpolation-filters="sRGB">
<feFlood flood-opacity="0" result="BackgroundImageFix"/>
<feColorMatrix in="SourceAlpha" type="matrix" values="0 0 0 0 0 0 0 0 0 0 0 0 0 0 0 0 0 0 127 0" result="hardAlpha"/>
<feOffset/>
<feGaussianBlur stdDeviation="9"/>
<feComposite in2="hardAlpha" operator="out"/>
<feColorMatrix type="matrix" values="0 0 0 0 0.204235 0 0 0 0 1 0 0 0 0 0.557457 0 0 0 1 0"/>
<feBlend mode="normal" in2="BackgroundImageFix" result="effect1_dropShadow_1828_29668"/>
<feBlend mode="normal" in="SourceGraphic" in2="effect1_dropShadow_1828_29668" result="shape"/>
<feColorMatrix in="SourceAlpha" type="matrix" values="0 0 0 0 0 0 0 0 0 0 0 0 0 0 0 0 0 0 127 0" result="hardAlpha"/>
<feOffset/>
<feGaussianBlur stdDeviation="5"/>
<feComposite in2="hardAlpha" operator="arithmetic" k2="-1" k3="1"/>
<feColorMatrix type="matrix" values="0 0 0 0 1 0 0 0 0 1 0 0 0 0 1 0 0 0 1 0"/>
<feBlend mode="normal" in2="shape" result="effect2_innerShadow_1828_29668"/>
</filter>
<filter id="filter5_d_1828_29668" x="213.666" y="31.332" width="35.333" height="35.334" filterUnits="userSpaceOnUse" color-interpolation-filters="sRGB">
<feFlood flood-opacity="0" result="BackgroundImageFix"/>
<feColorMatrix in="SourceAlpha" type="matrix" values="0 0 0 0 0 0 0 0 0 0 0 0 0 0 0 0 0 0 127 0" result="hardAlpha"/>
<feOffset/>
<feGaussianBlur stdDeviation="4"/>
<feComposite in2="hardAlpha" operator="out"/>
<feColorMatrix type="matrix" values="0 0 0 0 0 0 0 0 0 0 0 0 0 0 0 0 0 0 0.25 0"/>
<feBlend mode="normal" in2="BackgroundImageFix" result="effect1_dropShadow_1828_29668"/>
<feBlend mode="normal" in="SourceGraphic" in2="effect1_dropShadow_1828_29668" result="shape"/>
</filter>
<linearGradient id="paint0_linear_1828_29668" x1="53" y1="22.5" x2="108.2" y2="95" gradientUnits="userSpaceOnUse">
<stop offset="0.0810824" stop-color="white"/>
<stop offset="1" stop-color="#6D96FF"/>
</linearGradient>
<linearGradient id="paint1_linear_1828_29668" x1="192" y1="12" x2="292" y2="112" gradientUnits="userSpaceOnUse">
<stop stop-color="white"/>
<stop offset="1" stop-color="#4D7FFF"/>
</linearGradient>
<clipPath id="clip0_1828_29668">
<rect width="328" height="130" fill="white"/>
</clipPath>
<clipPath id="clip1_1828_29668">
<rect width="24.0004" height="14.0966" fill="white" transform="translate(152.001 84.9512)"/>
</clipPath>
<clipPath id="clip2_1828_29668">
<rect x="56" y="32" width="60" height="60" rx="7.2" fill="white"/>
</clipPath>
<clipPath id="clip3_1828_29668">
<rect x="192" y="12" width="100" height="100" rx="12" fill="white"/>
</clipPath>
</defs>
</svg>
