<svg width="146" height="25" viewBox="0 0 146 25" fill="none" xmlns="http://www.w3.org/2000/svg">
<path d="M4.1845 10.608H12.2965V13.56H0.8005V2.808H10.7605V5.928H4.1845V10.608ZM17.5765 14.136H14.0965V1.248H17.5765V6.24H21.0325V9.432H17.5765V14.136ZM9.8725 19.44C9.8725 19.984 10.0805 20.448 10.4965 20.832C10.9125 21.216 11.4245 21.408 12.0325 21.408C12.6245 21.408 13.1285 21.216 13.5445 20.832C13.9765 20.448 14.1925 19.984 14.1925 19.44C14.1925 18.912 13.9765 18.456 13.5445 18.072C13.1285 17.688 12.6245 17.496 12.0325 17.496C11.4245 17.496 10.9125 17.688 10.4965 18.072C10.0805 18.456 9.8725 18.912 9.8725 19.44ZM6.6325 19.44C6.6325 18.768 6.7685 18.136 7.0405 17.544C7.3285 16.936 7.7205 16.408 8.2165 15.96C8.6965 15.528 9.2645 15.184 9.9205 14.928C10.5765 14.656 11.2805 14.52 12.0325 14.52C12.7685 14.52 13.4645 14.656 14.1205 14.928C14.7765 15.184 15.3605 15.528 15.8725 15.96C16.3525 16.408 16.7285 16.936 17.0005 17.544C17.2885 18.136 17.4325 18.768 17.4325 19.44C17.4325 20.128 17.2885 20.768 17.0005 21.36C16.7285 21.968 16.3525 22.488 15.8725 22.92C15.3605 23.368 14.7765 23.72 14.1205 23.976C13.4645 24.232 12.7685 24.36 12.0325 24.36C11.2805 24.36 10.5765 24.232 9.9205 23.976C9.2645 23.72 8.6965 23.368 8.2165 22.92C7.7205 22.488 7.3285 21.968 7.0405 21.36C6.7685 20.768 6.6325 20.128 6.6325 19.44ZM40.1431 15.6H36.6391V1.248H40.1431V15.6ZM39.5191 23.472H27.2071V15.816H30.7111V20.4H39.5191V23.472ZM34.3591 12L31.5511 14.016L27.8311 7.368L24.1111 14.016L21.3271 12L27.8311 1.608L34.3591 12ZM49.8419 13.848C49.0419 13.848 48.2899 13.704 47.5859 13.416C46.8819 13.112 46.2739 12.704 45.7619 12.192C45.2179 11.696 44.7939 11.112 44.4899 10.44C44.1859 9.752 44.0339 9.016 44.0339 8.232C44.0339 7.448 44.1859 6.72 44.4899 6.048C44.7939 5.36 45.2179 4.76 45.7619 4.248C46.2739 3.736 46.8819 3.336 47.5859 3.048C48.2899 2.744 49.0419 2.592 49.8419 2.592C50.6419 2.592 51.3859 2.744 52.0739 3.048C52.7779 3.336 53.3939 3.736 53.9219 4.248C54.4339 4.76 54.8419 5.36 55.1459 6.048C55.4659 6.72 55.6259 7.448 55.6259 8.232C55.6259 9.016 55.4659 9.752 55.1459 10.44C54.8419 11.112 54.4339 11.696 53.9219 12.192C53.3939 12.704 52.7779 13.112 52.0739 13.416C51.3859 13.704 50.6419 13.848 49.8419 13.848ZM49.8419 5.712C49.1539 5.712 48.5699 5.96 48.0899 6.456C47.6259 6.936 47.3939 7.528 47.3939 8.232C47.3939 8.936 47.6259 9.528 48.0899 10.008C48.5699 10.488 49.1539 10.728 49.8419 10.728C50.1619 10.728 50.4659 10.672 50.7539 10.56C51.0579 10.432 51.3219 10.248 51.5459 10.008C51.7699 9.784 51.9459 9.52 52.0739 9.216C52.2019 8.896 52.2659 8.568 52.2659 8.232C52.2659 7.896 52.2019 7.576 52.0739 7.272C51.9459 6.952 51.7699 6.672 51.5459 6.432C51.3219 6.208 51.0579 6.032 50.7539 5.904C50.4659 5.776 50.1619 5.712 49.8419 5.712ZM61.6259 19.392H58.1939V1.248H61.6259V19.392ZM57.2819 15.912V18.96H43.4099V15.912H57.2819ZM89.5699 23.472H77.2579V15.816H80.7859V20.4H89.5699V23.472ZM82.3939 5.856H86.5939V1.248H90.0979V15.6H86.5939V8.976H82.3939V5.856ZM83.9059 12.048L81.0979 14.04L77.3779 7.392L73.6579 14.04L70.8739 12.048L77.3779 1.632L83.9059 12.048ZM109.561 1.248H112.921V14.136H109.561V9.432H107.617V13.992H104.281V2.112H107.617V6.24H109.561V1.248ZM96.5048 10.776H103.321V13.68H93.1208V2.496H101.785V5.4H96.5048V6.672H101.185V9.576H96.5048V10.776ZM112.321 23.616H108.817V18.288H100.657V15.432H112.321V23.616ZM133.206 12.408V15.456H115.326V12.408H133.206ZM121.35 16.416V20.568H131.262V23.472H117.87V16.416H121.35ZM124.278 3.312C123.526 3.312 122.894 3.552 122.382 4.032C121.886 4.512 121.638 5.104 121.638 5.808C121.638 6.496 121.886 7.08 122.382 7.56C122.894 8.04 123.526 8.28 124.278 8.28C125.014 8.28 125.638 8.04 126.15 7.56C126.662 7.08 126.918 6.496 126.918 5.808C126.918 5.104 126.662 4.512 126.15 4.032C125.638 3.552 125.014 3.312 124.278 3.312ZM124.278 11.28C123.43 11.28 122.638 11.136 121.902 10.848C121.166 10.56 120.526 10.168 119.982 9.672C119.422 9.192 118.982 8.616 118.662 7.944C118.342 7.272 118.182 6.56 118.182 5.808C118.182 5.04 118.342 4.32 118.662 3.648C118.982 2.976 119.422 2.392 119.982 1.896C120.526 1.416 121.166 1.032 121.902 0.743999C122.638 0.455999 123.43 0.311999 124.278 0.311999C125.11 0.311999 125.894 0.455999 126.63 0.743999C127.382 1.032 128.038 1.416 128.598 1.896C129.126 2.392 129.55 2.976 129.87 3.648C130.19 4.32 130.35 5.04 130.35 5.808C130.35 6.56 130.19 7.272 129.87 7.944C129.55 8.616 129.126 9.192 128.598 9.672C128.038 10.168 127.382 10.56 126.63 10.848C125.894 11.136 125.11 11.28 124.278 11.28ZM140.005 16.152C140.581 16.152 141.061 16.36 141.445 16.776C141.845 17.176 142.045 17.64 142.045 18.168C142.045 18.696 141.845 19.16 141.445 19.56C141.061 19.96 140.581 20.16 140.005 20.16C139.413 20.16 138.925 19.96 138.541 19.56C138.173 19.16 137.989 18.696 137.989 18.168C137.989 17.64 138.173 17.176 138.541 16.776C138.925 16.36 139.413 16.152 140.005 16.152ZM135.805 6.216V2.808C136.413 2.328 137.093 1.96 137.845 1.704C138.597 1.432 139.325 1.296 140.029 1.296C141.645 1.296 142.885 1.68 143.749 2.448C144.613 3.2 145.045 4.248 145.045 5.592C145.045 6.088 144.965 6.56 144.805 7.008C144.661 7.44 144.477 7.848 144.253 8.232C144.013 8.632 143.749 9 143.461 9.336C143.173 9.672 142.901 9.976 142.645 10.248C142.181 10.728 141.829 11.136 141.589 11.472C141.349 11.808 141.229 12.24 141.229 12.768C141.229 13.04 141.245 13.328 141.277 13.632C141.325 13.936 141.437 14.376 141.613 14.952H138.805C138.661 14.552 138.565 14.16 138.517 13.776C138.485 13.376 138.469 13.008 138.469 12.672C138.469 11.824 138.629 11.104 138.949 10.512C139.269 9.904 139.701 9.32 140.245 8.76C140.693 8.312 141.093 7.864 141.445 7.416C141.797 6.952 141.973 6.44 141.973 5.88C141.973 5.224 141.773 4.744 141.373 4.44C140.989 4.12 140.437 3.96 139.717 3.96C139.189 3.96 138.613 4.12 137.989 4.44C137.365 4.744 136.637 5.336 135.805 6.216Z" fill="white"/>
</svg>
