<svg width="600" height="184" viewBox="0 0 600 184" fill="none" xmlns="http://www.w3.org/2000/svg">
<g clip-path="url(#clip0_2102_29445)">
<rect width="600" height="184" fill="#50627F"/>
<path d="M-1 160L599 0V184H-1V160Z" fill="#7585A2"/>
<path d="M225.07 30.2969C227.195 30.2969 228.727 32.2344 228.742 35.2812C228.727 38.3594 227.195 40.2812 225.07 40.2812C222.93 40.2812 221.383 38.3594 221.398 35.2812C221.383 32.2344 222.93 30.2969 225.07 30.2969ZM225.07 31.8594C223.883 31.8594 223.07 33.125 223.07 35.2812C223.07 37.4531 223.883 38.7188 225.07 38.7188C226.273 38.7188 227.07 37.4531 227.07 35.2812C227.07 33.125 226.273 31.8594 225.07 31.8594ZM232.336 29.2656V34.6875H234.508V36.1562H232.336V43.3906H230.602V29.2656H232.336ZM240.461 31.7188C240.461 33.4688 241.664 35.2031 243.914 35.9062L243.023 37.25C241.422 36.7422 240.258 35.6719 239.617 34.3281C238.977 35.7891 237.781 36.9531 236.102 37.5156L235.211 36.1719C237.477 35.4062 238.695 33.5625 238.711 31.7188V31.5469H235.664V30.1562H243.43V31.5469H240.461V31.7188ZM246.867 29.2656V37.7812H245.117V29.2656H246.867ZM246.867 38.4375V43.3906H245.117V39.8438H237.227V38.4375H246.867ZM261.805 36.5625V37.9531H248.93V36.5625H261.805ZM260.352 41.7031V43.1094H250.523V39H252.258V41.7031H260.352ZM255.352 29.7188C258.43 29.7188 260.43 30.7969 260.445 32.5781C260.43 34.375 258.43 35.4688 255.352 35.4688C252.273 35.4688 250.258 34.375 250.258 32.5781C250.258 30.7969 252.273 29.7188 255.352 29.7188ZM255.352 31.1094C253.305 31.1094 252.055 31.6406 252.07 32.5781C252.055 33.5312 253.305 34.0625 255.352 34.0469C257.414 34.0625 258.648 33.5312 258.648 32.5781C258.648 31.6406 257.414 31.1094 255.352 31.1094ZM279.445 37.6875V39.1094H273.836V43.3906H272.117V39.1094H266.539V37.6875H279.445ZM278.055 35.1406V36.5156H268.195V29.875H277.898V31.25H269.914V32.5H277.586V33.8438H269.914V35.1406H278.055ZM293.289 40.3594V41.7656H280.383V40.3594H283.727V37.4531H281.492V36.0469H283.477V31.8594H281.445V30.4688H292.164V31.8594H290.102V36.0469H292.117V37.4531H289.883V40.3594H293.289ZM285.211 36.0469H288.383V31.8594H285.211V36.0469ZM285.461 40.3594H288.148V37.4531H285.461V40.3594ZM305.352 29.2344V32.4219H307.336V33.8281H305.352V36.9375H303.617V29.2344H305.352ZM305.352 37.5625V40.9688H297.852V41.9688H305.789V43.2656H296.133V39.7656H303.617V38.8281H296.117V37.5625H305.352ZM302.602 30.4062V31.7344H294.227V30.4062H297.555V29.1562H299.289V30.4062H302.602ZM298.414 32.1719C300.508 32.1875 301.852 33.0781 301.867 34.4844C301.852 35.9375 300.508 36.7969 298.414 36.7969C296.32 36.7969 294.945 35.9375 294.945 34.4844C294.945 33.0781 296.32 32.1875 298.414 32.1719ZM298.414 33.4219C297.32 33.4219 296.633 33.8125 296.633 34.4844C296.633 35.1719 297.32 35.5469 298.414 35.5469C299.508 35.5469 300.211 35.1719 300.211 34.4844C300.211 33.8125 299.508 33.4219 298.414 33.4219ZM319.195 30.4375C319.195 32.2188 321.18 34.0156 324.195 34.4062L323.508 35.8125C321.109 35.4531 319.203 34.2734 318.289 32.6719C317.359 34.2734 315.461 35.4531 313.086 35.8125L312.398 34.4062C315.383 34.0156 317.367 32.2188 317.367 30.4375V29.7188H319.195V30.4375ZM324.711 37.0312V38.4688H319.102V43.3906H317.383V38.4688H311.836V37.0312H324.711ZM332.664 37.5312V39.0469H334.523V37.5312H336.133V42.0156C337.789 41.3203 338.555 39.8906 338.555 38.5469V37.4219H340.289V38.5469C340.289 40.0156 341.039 41.4375 342.789 42.0312L341.898 43.3281C340.656 42.8828 339.852 42.0234 339.414 40.9531C338.938 41.9922 338.133 42.8516 336.961 43.3281L336.133 42.0938V43.2188H331.039V37.5312H332.664ZM332.664 41.8906H334.523V40.3438H332.664V41.8906ZM333.383 29.8438C335.203 29.8438 336.641 30.8594 337.008 32.3906H339.555V29.2656H341.289V36.75H339.555V33.8281H337.008C336.664 35.3984 335.211 36.4375 333.383 36.4375C331.211 36.4375 329.648 35.0781 329.648 33.125C329.648 31.1875 331.211 29.8438 333.383 29.8438ZM333.383 31.2812C332.164 31.2812 331.305 32 331.305 33.125C331.305 34.2656 332.164 35.0156 333.383 35.0156C334.57 35.0156 335.414 34.2656 335.43 33.125C335.414 32 334.57 31.2812 333.383 31.2812ZM347.148 30.2969C349.062 30.2969 350.477 31.8906 350.727 34.4688H353.414V29.2656H355.133V43.4062H353.414V35.875H350.742C350.555 38.6016 349.117 40.2812 347.148 40.2812C345.023 40.2812 343.523 38.3594 343.523 35.2812C343.523 32.2344 345.023 30.2969 347.148 30.2969ZM347.148 31.8594C345.977 31.8594 345.18 33.125 345.195 35.2812C345.18 37.4531 345.977 38.7188 347.148 38.7188C348.32 38.7188 349.102 37.4531 349.117 35.2812C349.102 33.125 348.32 31.8594 347.148 31.8594ZM370.023 40.25V41.6719H357.117V40.25H360.102V36.6719C358.977 36.0312 358.297 35.0234 358.305 33.7656C358.289 31.5156 360.508 30.0312 363.539 30.0312C366.586 30.0312 368.805 31.5156 368.805 33.7656C368.805 35 368.148 35.9922 367.055 36.6406V40.25H370.023ZM363.539 31.4062C361.43 31.4062 359.992 32.2969 360.008 33.7656C359.992 35.2188 361.43 36.125 363.539 36.125C365.648 36.125 367.102 35.2188 367.102 33.7656C367.102 32.2969 365.648 31.4062 363.539 31.4062ZM361.82 40.25H365.289V37.2969C364.75 37.4219 364.164 37.4844 363.539 37.4844C362.93 37.4844 362.352 37.4219 361.82 37.3125V40.25ZM372.664 42.125C371.992 42.125 371.445 41.5781 371.445 40.9062C371.445 40.25 371.992 39.7031 372.664 39.7031C373.305 39.7031 373.867 40.25 373.867 40.9062C373.867 41.5781 373.305 42.125 372.664 42.125ZM377.023 42.125C376.352 42.125 375.805 41.5781 375.805 40.9062C375.805 40.25 376.352 39.7031 377.023 39.7031C377.664 39.7031 378.227 40.25 378.227 40.9062C378.227 41.5781 377.664 42.125 377.023 42.125Z" fill="white"/>
<path d="M214.756 56.3242C216.094 56.3242 217.09 57.1543 217.1 58.3164C217.09 59.4883 216.094 60.3086 214.756 60.3086C213.408 60.3086 212.412 59.4883 212.412 58.3164C212.412 57.1543 213.408 56.3242 214.756 56.3242ZM214.756 57.2227C214.014 57.2227 213.467 57.6426 213.467 58.3164C213.467 59 214.014 59.4297 214.756 59.4297C215.498 59.4297 216.045 59 216.045 58.3164C216.045 57.6426 215.498 57.2227 214.756 57.2227ZM219.609 56.041V60.5039H218.516V56.041H219.609ZM219.609 60.8848V63.1895H214.834V63.9023H219.873V64.7617H213.77V62.3887H218.525V61.7344H213.75V60.8848H219.609ZM228.291 56.041V61.2852H227.207V59.127H225.703V58.2383H227.207V56.041H228.291ZM225.303 61.5098C227.178 61.5098 228.32 62.125 228.32 63.1895C228.32 64.2539 227.178 64.8691 225.303 64.8691C223.438 64.8691 222.295 64.2539 222.305 63.1895C222.295 62.125 223.438 61.5098 225.303 61.5098ZM225.303 62.3398C224.072 62.3398 223.379 62.6328 223.379 63.1895C223.379 63.7363 224.072 64.0293 225.303 64.0293C226.533 64.0293 227.236 63.7363 227.236 63.1895C227.236 62.6328 226.533 62.3398 225.303 62.3398ZM224.141 57.5547C224.141 58.6289 224.854 59.7129 226.221 60.1719L225.674 61.0312C224.692 60.6992 223.994 60.0254 223.613 59.1953C223.223 60.1377 222.485 60.8896 221.436 61.2656L220.869 60.4062C222.285 59.918 223.037 58.7266 223.037 57.5645V57.4961H221.201V56.6172H225.967V57.4961H224.141V57.5547ZM236.514 56.7734C236.514 57.8867 237.754 59.0098 239.639 59.2539L239.209 60.1328C237.71 59.9082 236.519 59.1709 235.947 58.1699C235.366 59.1709 234.18 59.9082 232.695 60.1328L232.266 59.2539C234.131 59.0098 235.371 57.8867 235.371 56.7734V56.3242H236.514V56.7734ZM239.961 60.8945V61.793H236.455V64.8691H235.381V61.793H231.914V60.8945H239.961ZM247.881 56.4414V57.3105H245.322C245.42 58.1406 246.499 58.9316 248.203 59.1367L247.793 59.9961C246.211 59.8057 245.044 59.1074 244.57 58.1504C244.097 59.1025 242.939 59.8057 241.357 59.9961L240.957 59.1367C242.661 58.9316 243.726 58.1406 243.828 57.3105H241.289V56.4414H247.881ZM248.613 60.4844V61.3633H245.205V62.9746H244.131V61.3633H240.547V60.4844H248.613ZM247.725 63.8145V64.6934H241.523V62.1641H242.607V63.8145H247.725ZM252.061 56.6562C253.457 56.6465 254.482 57.5352 254.492 58.7852C254.482 60.0449 253.457 60.9238 252.061 60.9238C250.674 60.9238 249.639 60.0449 249.639 58.7852C249.639 57.5352 250.674 56.6465 252.061 56.6562ZM252.061 57.5938C251.289 57.5938 250.713 58.0527 250.713 58.7852C250.713 59.5273 251.289 59.9766 252.061 59.9766C252.842 59.9766 253.428 59.5273 253.428 58.7852C253.428 58.0527 252.842 57.5938 252.061 57.5938ZM256.553 56.041V64.8789H255.469V56.041H256.553ZM249.238 62.1445C250.83 62.1445 253.037 62.125 254.941 61.8516L255.029 62.6426C253.047 63.0234 250.928 63.0332 249.375 63.0332L249.238 62.1445ZM267.832 56.041V64.8691H266.777V56.041H267.832ZM265.977 56.2168V64.4395H264.961V60.2012H263.262V59.3125H264.961V56.2168H265.977ZM263.867 57.0762V57.9453H261.572V61.9395C262.617 61.9297 263.364 61.8857 264.229 61.7051L264.316 62.5938C263.32 62.7988 262.441 62.8379 261.104 62.8477H260.508V57.0762H263.867ZM276.201 56.041V64.8789H275.107V56.041H276.201ZM271.445 56.6855C272.773 56.6855 273.74 57.8965 273.75 59.8008C273.74 61.7246 272.773 62.9258 271.445 62.9258C270.107 62.9258 269.141 61.7246 269.141 59.8008C269.141 57.8965 270.107 56.6855 271.445 56.6855ZM271.445 57.6621C270.693 57.6621 270.186 58.4531 270.186 59.8008C270.186 61.1582 270.693 61.9492 271.445 61.9492C272.188 61.9492 272.695 61.1582 272.695 59.8008C272.695 58.4531 272.188 57.6621 271.445 57.6621ZM284.902 56.041V64.8789H283.828V60.1133H282.168V59.2344H283.828V56.041H284.902ZM282.031 56.8027V57.6914H278.994V59.2734H281.68V60.1328H278.994V61.9492C280.337 61.9443 281.343 61.9004 282.48 61.7148L282.588 62.5938C281.299 62.7891 280.176 62.8379 278.594 62.8477H277.9V56.8027H282.031ZM293.057 56.041V59.4883H294.365V60.3965H293.057V64.8496H291.973V56.041H293.057ZM290.723 56.959C290.723 59.5566 289.648 61.832 286.709 63.2773L286.094 62.4375C288.242 61.3682 289.404 59.8643 289.629 57.8574H286.572V56.959H290.723ZM304.355 56.041V57.8574H305.361V58.7461H304.355V60.6992H303.271V56.041H304.355ZM299.375 56.8125C299.365 57.501 299.512 58.3994 300.068 59.0684C300.605 58.4141 300.742 57.5254 300.742 56.8125V56.3828H300.996V56.373H301.758V56.8125C301.758 57.8086 302.09 58.9121 303.105 59.4395L302.529 60.2207C301.885 59.8789 301.489 59.3125 301.27 58.6484C301.055 59.3271 300.688 59.9424 300.059 60.3184L300.049 60.2988C299.424 59.9229 299.058 59.2979 298.857 58.6191C298.623 59.2881 298.232 59.8691 297.598 60.2207L297.021 59.4395C298.018 58.8828 298.34 57.75 298.35 56.8125V56.373H299.375V56.8125ZM304.639 61.1387V61.9688H298.311V61.1387H300.938V60.3574H302.031V61.1387H304.639ZM301.484 62.291C303.154 62.291 304.131 62.7598 304.131 63.5703C304.131 64.4102 303.154 64.8594 301.484 64.8594C299.785 64.8594 298.818 64.4102 298.818 63.5703C298.818 62.7598 299.785 62.291 301.484 62.291ZM301.484 63.0625C300.41 63.0625 299.893 63.2383 299.902 63.5703C299.893 63.9219 300.41 64.0879 301.484 64.0879C302.52 64.0879 303.066 63.9219 303.066 63.5703C303.066 63.2383 302.52 63.0625 301.484 63.0625ZM308.213 56.6855C309.014 56.6855 309.673 57.1299 310.068 57.9062H312.129V56.041H313.203V64.8789H312.129V61.5391H310.146C309.766 62.418 309.067 62.9258 308.213 62.9258C306.885 62.9258 305.947 61.7246 305.947 59.8008C305.947 57.8965 306.885 56.6855 308.213 56.6855ZM308.213 57.6621C307.48 57.6621 306.982 58.4531 306.992 59.8008C306.982 61.1582 307.48 61.9492 308.213 61.9492C308.945 61.9492 309.434 61.1582 309.443 59.8008C309.434 58.4531 308.945 57.6621 308.213 57.6621ZM310.371 58.7949C310.435 59.1025 310.469 59.4395 310.469 59.8008C310.469 60.1084 310.444 60.3916 310.4 60.6602H312.129V58.7949H310.371ZM316.816 56.6855C318.145 56.6855 319.102 57.8965 319.111 59.8008C319.102 61.7246 318.145 62.9258 316.816 62.9258C315.479 62.9258 314.512 61.7246 314.521 59.8008C314.512 57.8965 315.479 56.6855 316.816 56.6855ZM316.816 57.6621C316.074 57.6621 315.566 58.4531 315.566 59.8008C315.566 61.1582 316.074 61.9492 316.816 61.9492C317.568 61.9492 318.066 61.1582 318.066 59.8008C318.066 58.4531 317.568 57.6621 316.816 57.6621ZM322.666 58.1504V59.0586H321.357V60.7578H322.666V61.6465H321.357V64.8691H320.273V56.041H321.357V58.1504H322.666ZM333.516 61.3047V62.1934H330.01V64.8691H328.936V62.1934H325.449V61.3047H333.516ZM332.646 59.7129V60.5723H326.484V56.4219H332.549V57.2812H327.559V58.0625H332.354V58.9023H327.559V59.7129H332.646ZM342.168 62.9746V63.8535H334.102V62.9746H336.191V61.1582H334.795V60.2793H336.035V57.6621H334.766V56.793H341.465V57.6621H340.176V60.2793H341.436V61.1582H340.039V62.9746H342.168ZM337.119 60.2793H339.102V57.6621H337.119V60.2793ZM337.275 62.9746H338.955V61.1582H337.275V62.9746ZM349.658 56.041V59.4883H350.967V60.3965H349.658V64.8496H348.574V56.041H349.658ZM347.324 56.959C347.324 59.5566 346.25 61.832 343.311 63.2773L342.695 62.4375C344.844 61.3682 346.006 59.8643 346.23 57.8574H343.174V56.959H347.324ZM360.674 56.041V59.4883H361.982V60.3965H360.674V64.8496H359.59V56.041H360.674ZM358.34 56.959C358.34 59.5566 357.266 61.832 354.326 63.2773L353.711 62.4375C355.859 61.3682 357.021 59.8643 357.246 57.8574H354.189V56.959H358.34ZM369.541 58.3359V59.2148H363.447V56.1973H364.531V58.3359H369.541ZM370.459 60.0645V60.9434H362.402V60.0645H370.459ZM366.416 61.5781C368.32 61.5879 369.463 62.1738 369.473 63.209C369.463 64.2441 368.32 64.8301 366.416 64.8301C364.492 64.8301 363.34 64.2441 363.34 63.209C363.34 62.1738 364.492 61.5879 366.416 61.5781ZM366.416 62.4277C365.127 62.4375 364.434 62.6816 364.443 63.209C364.434 63.7168 365.127 64 366.416 64C367.676 64 368.379 63.7168 368.389 63.209C368.379 62.6816 367.676 62.4375 366.416 62.4277ZM375.352 57.4473V58.3164H371.025V57.4473H372.666V56.2949H373.74V57.4473H375.352ZM373.203 58.7852C374.326 58.7852 375.127 59.6348 375.127 60.8359C375.127 62.0566 374.326 62.916 373.203 62.916C372.09 62.916 371.27 62.0566 371.279 60.8359C371.27 59.6348 372.09 58.7852 373.203 58.7852ZM373.203 59.6836C372.627 59.6836 372.227 60.1426 372.236 60.8359C372.227 61.5488 372.627 61.998 373.203 61.9883C373.77 61.998 374.17 61.5488 374.17 60.8359C374.17 60.1426 373.77 59.6836 373.203 59.6836ZM378.633 56.041V64.8691H377.598V60.5527H376.738V64.4688H375.723V56.2266H376.738V59.6738H377.598V56.041H378.633ZM387.754 62.9062V63.7949H379.688V62.9062H381.553V60.6699C380.85 60.2695 380.425 59.6396 380.43 58.8535C380.42 57.4473 381.807 56.5195 383.701 56.5195C385.605 56.5195 386.992 57.4473 386.992 58.8535C386.992 59.625 386.582 60.2451 385.898 60.6504V62.9062H387.754ZM383.701 57.3789C382.383 57.3789 381.484 57.9355 381.494 58.8535C381.484 59.7617 382.383 60.3281 383.701 60.3281C385.02 60.3281 385.928 59.7617 385.928 58.8535C385.928 57.9355 385.02 57.3789 383.701 57.3789ZM382.627 62.9062H384.795V61.0605C384.458 61.1387 384.092 61.1777 383.701 61.1777C383.32 61.1777 382.959 61.1387 382.627 61.0703V62.9062Z" fill="white"/>
<g style="mix-blend-mode:luminosity">
<g filter="url(#filter0_diiii_2102_29445)">
<g clip-path="url(#clip1_2102_29445)">
<rect x="179" y="103" width="68" height="68" rx="8.16" transform="rotate(-15 179 103)" fill="#FAE100"/>
<g filter="url(#filter1_di_2102_29445)">
<path fill-rule="evenodd" clip-rule="evenodd" d="M214.012 102.301C223.927 99.6442 234.119 105.528 236.776 115.444C238.565 122.122 236.177 127.22 231.363 136.841C229.748 140.067 228.992 146.121 228.643 150.529C228.585 151.263 227.976 151.754 227.299 151.887C226.645 152.111 225.873 151.99 225.455 151.383C222.949 147.74 219.267 142.876 216.256 140.888C207.276 134.964 202.658 131.743 200.869 125.065C198.212 115.15 204.097 104.958 214.012 102.301ZM217.402 113.637C217.291 113.667 217.183 113.699 217.076 113.735C216.965 113.758 216.855 113.784 216.745 113.813C213.48 114.688 211.542 118.044 212.417 121.309C213.292 124.574 216.648 126.511 219.913 125.636C220.023 125.607 220.131 125.574 220.239 125.539C220.349 125.516 220.459 125.49 220.569 125.46C223.834 124.586 225.772 121.23 224.897 117.965C224.022 114.7 220.666 112.763 217.402 113.637Z" fill="#007DFF"/>
<path d="M214.1 102.629C223.834 100.021 233.839 105.798 236.447 115.532C238.197 122.064 235.885 127.043 231.059 136.689C230.229 138.348 229.629 140.708 229.193 143.183C228.756 145.665 228.478 148.293 228.304 150.502C228.261 151.039 227.811 151.44 227.233 151.554L227.211 151.558L227.188 151.565C226.631 151.756 226.04 151.634 225.735 151.19C224.479 149.364 222.925 147.227 221.306 145.296C219.691 143.371 217.991 141.627 216.442 140.605C207.44 134.665 202.948 131.509 201.198 124.977C198.589 115.243 204.366 105.237 214.1 102.629ZM217.314 113.309C217.203 113.338 217.094 113.371 216.988 113.405C216.878 113.429 216.768 113.455 216.657 113.485C213.211 114.408 211.166 117.95 212.089 121.397C213.013 124.843 216.555 126.888 220.001 125.964C220.112 125.935 220.22 125.902 220.327 125.867C220.436 125.844 220.547 125.818 220.657 125.789C224.104 124.865 226.149 121.323 225.225 117.877C224.302 114.431 220.76 112.386 217.314 113.309Z" stroke="white" stroke-width="0.68"/>
</g>
</g>
<rect x="179.833" y="103.481" width="66.64" height="66.64" rx="7.48" transform="rotate(-15 179.833 103.481)" stroke="url(#paint0_linear_2102_29445)" stroke-width="1.36"/>
</g>
<g filter="url(#filter2_dii_2102_29445)">
<g clip-path="url(#clip2_2102_29445)">
<rect x="360.6" y="84.9998" width="68" height="68" rx="8.16" transform="rotate(15 360.6 84.9998)" fill="white"/>
<g filter="url(#filter3_d_2102_29445)">
<rect x="375.785" y="133.418" width="41.0267" height="10.88" transform="rotate(15 375.785 133.418)" fill="#256BFA"/>
</g>
<g filter="url(#filter4_di_2102_29445)">
<path d="M396.008 121.003C393.858 129.026 376.685 141.372 373.156 143.84C372.817 144.077 372.367 143.958 372.19 143.585C370.335 139.682 361.454 120.346 363.604 112.321C366.002 103.373 375.199 98.0625 384.147 100.46C393.095 102.858 398.405 112.055 396.008 121.003Z" fill="#04C75A"/>
<path d="M384.059 100.788C392.826 103.137 398.029 112.149 395.68 120.915C395.162 122.846 393.726 125.075 391.767 127.389C389.815 129.696 387.37 132.056 384.875 134.249C379.886 138.635 374.721 142.331 372.961 143.562C372.795 143.678 372.584 143.622 372.497 143.439C371.571 141.491 368.894 135.695 366.717 129.388C365.628 126.234 364.666 122.96 364.111 119.981C363.555 116.991 363.415 114.339 363.932 112.409C366.281 103.642 375.293 98.4394 384.059 100.788Z" stroke="#CEFFE4" stroke-width="0.68"/>
</g>
<g filter="url(#filter5_d_2102_29445)">
<path d="M381.843 117.168L379.254 109.944L375.756 109.007L372.705 120.392L376.37 121.374L378.003 115.28L380.591 122.505L384.09 123.442L387.141 112.057L383.476 111.075L381.843 117.168Z" fill="white"/>
<path d="M376.611 121.79L378.05 116.42L380.271 122.619L380.331 122.787L384.331 123.859L387.558 111.817L383.235 110.658L381.796 116.03L379.574 109.829L379.514 109.661L375.516 108.59L372.289 120.632L376.611 121.79Z" stroke="#019944" stroke-width="0.68"/>
</g>
</g>
<rect x="361.08" y="85.8326" width="66.64" height="66.64" rx="7.48" transform="rotate(15 361.08 85.8326)" stroke="url(#paint1_linear_2102_29445)" stroke-width="1.36"/>
</g>
<path d="M308.771 132.223C309.362 132.599 309.939 132.921 310.503 133.189C311.094 133.431 311.644 133.632 312.154 133.793C313.201 134.196 314.006 134.397 314.57 134.397C315.188 134.397 315.778 134.223 316.342 133.874C316.933 133.525 317.228 133.001 317.228 132.303C317.228 131.766 316.919 131.283 316.302 130.853C315.711 130.397 315.053 129.981 314.329 129.605C313.657 129.336 312.959 129.028 312.235 128.679C311.537 128.303 310.906 127.873 310.342 127.39C309.805 126.934 309.349 126.41 308.973 125.819C308.624 125.202 308.449 124.49 308.449 123.685C308.449 122.611 308.664 121.644 309.094 120.785C309.523 119.899 310.087 119.201 310.785 118.691C311.537 118.127 312.409 117.711 313.402 117.443C314.396 117.147 315.429 117 316.503 117C317.389 117 318.262 117.107 319.121 117.322C320.007 117.51 320.946 117.738 321.939 118.006L321.456 123.081C321.188 122.92 320.799 122.732 320.288 122.517C319.805 122.275 319.362 122.074 318.96 121.913C318.664 121.805 318.248 121.711 317.711 121.631C317.174 121.524 316.651 121.47 316.141 121.47C315.631 121.497 315.174 121.617 314.772 121.832C314.396 122.047 314.208 122.423 314.208 122.96C314.208 123.336 314.329 123.685 314.57 124.007C314.812 124.302 315.094 124.544 315.416 124.732C315.765 124.974 316.114 125.175 316.463 125.336C316.812 125.47 317.107 125.591 317.349 125.698C318.02 125.994 318.691 126.316 319.362 126.665C320.033 127.014 320.651 127.43 321.215 127.914C321.752 128.424 322.181 128.987 322.503 129.605C322.852 130.196 323.027 130.974 323.027 131.941C323.027 133.122 322.799 134.129 322.342 134.961C321.886 135.794 321.322 136.492 320.651 137.056C319.926 137.646 319.094 138.076 318.154 138.344C317.215 138.613 316.221 138.747 315.174 138.747C314.208 138.747 313.147 138.666 311.993 138.505C310.865 138.317 309.711 137.901 308.53 137.257L308.771 132.223Z" fill="white" fill-opacity="0.5"/>
<path d="M298.725 138.738H293.208L286 117.394H291.638L295.987 131.006L300.296 117.394H305.974L298.725 138.738Z" fill="white" fill-opacity="0.5"/>
<rect x="433" y="85.9998" width="12" height="12" fill="#FEE500"/>
<rect x="420" y="77.9998" width="6" height="6" fill="#03C75A"/>
<rect x="164" y="161.5" width="6" height="6" fill="#03C75A"/>
<rect x="174.5" y="160" width="3" height="3" fill="#FEE500"/>
</g>
</g>
<defs>
<filter id="filter0_diiii_2102_29445" x="177.64" y="82.6801" width="95.5232" height="96.8825" filterUnits="userSpaceOnUse" color-interpolation-filters="sRGB">
<feFlood flood-opacity="0" result="BackgroundImageFix"/>
<feColorMatrix in="SourceAlpha" type="matrix" values="0 0 0 0 0 0 0 0 0 0 0 0 0 0 0 0 0 0 127 0" result="hardAlpha"/>
<feOffset dx="5.44" dy="5.44"/>
<feGaussianBlur stdDeviation="2.72"/>
<feComposite in2="hardAlpha" operator="out"/>
<feColorMatrix type="matrix" values="0 0 0 0 0 0 0 0 0 0 0 0 0 0 0 0 0 0 0.25 0"/>
<feBlend mode="normal" in2="BackgroundImageFix" result="effect1_dropShadow_2102_29445"/>
<feBlend mode="normal" in="SourceGraphic" in2="effect1_dropShadow_2102_29445" result="shape"/>
<feColorMatrix in="SourceAlpha" type="matrix" values="0 0 0 0 0 0 0 0 0 0 0 0 0 0 0 0 0 0 127 0" result="hardAlpha"/>
<feMorphology radius="5.44" operator="erode" in="SourceAlpha" result="effect2_innerShadow_2102_29445"/>
<feOffset/>
<feGaussianBlur stdDeviation="8.16"/>
<feComposite in2="hardAlpha" operator="arithmetic" k2="-1" k3="1"/>
<feColorMatrix type="matrix" values="0 0 0 0 1 0 0 0 0 0.984756 0 0 0 0 0.847556 0 0 0 1 0"/>
<feBlend mode="normal" in2="shape" result="effect2_innerShadow_2102_29445"/>
<feColorMatrix in="SourceAlpha" type="matrix" values="0 0 0 0 0 0 0 0 0 0 0 0 0 0 0 0 0 0 127 0" result="hardAlpha"/>
<feOffset dx="4.08" dy="2.72"/>
<feGaussianBlur stdDeviation="3.4"/>
<feComposite in2="hardAlpha" operator="arithmetic" k2="-1" k3="1"/>
<feColorMatrix type="matrix" values="0 0 0 0 1 0 0 0 0 1 0 0 0 0 1 0 0 0 1 0"/>
<feBlend mode="normal" in2="effect2_innerShadow_2102_29445" result="effect3_innerShadow_2102_29445"/>
<feColorMatrix in="SourceAlpha" type="matrix" values="0 0 0 0 0 0 0 0 0 0 0 0 0 0 0 0 0 0 127 0" result="hardAlpha"/>
<feMorphology radius="4.08" operator="erode" in="SourceAlpha" result="effect4_innerShadow_2102_29445"/>
<feOffset dx="-1.36" dy="-2.72"/>
<feGaussianBlur stdDeviation="5.44"/>
<feComposite in2="hardAlpha" operator="arithmetic" k2="-1" k3="1"/>
<feColorMatrix type="matrix" values="0 0 0 0 1 0 0 0 0 0.806263 0 0 0 0 0.105828 0 0 0 0.73 0"/>
<feBlend mode="normal" in2="effect3_innerShadow_2102_29445" result="effect4_innerShadow_2102_29445"/>
<feColorMatrix in="SourceAlpha" type="matrix" values="0 0 0 0 0 0 0 0 0 0 0 0 0 0 0 0 0 0 127 0" result="hardAlpha"/>
<feOffset dx="2.72" dy="2.72"/>
<feGaussianBlur stdDeviation="2.04"/>
<feComposite in2="hardAlpha" operator="arithmetic" k2="-1" k3="1"/>
<feColorMatrix type="matrix" values="0 0 0 0 1 0 0 0 0 1 0 0 0 0 1 0 0 0 1 0"/>
<feBlend mode="normal" in2="effect4_innerShadow_2102_29445" result="effect5_innerShadow_2102_29445"/>
</filter>
<filter id="filter1_di_2102_29445" x="189.35" y="90.7831" width="58.8987" height="72.0886" filterUnits="userSpaceOnUse" color-interpolation-filters="sRGB">
<feFlood flood-opacity="0" result="BackgroundImageFix"/>
<feColorMatrix in="SourceAlpha" type="matrix" values="0 0 0 0 0 0 0 0 0 0 0 0 0 0 0 0 0 0 127 0" result="hardAlpha"/>
<feOffset/>
<feGaussianBlur stdDeviation="5.44"/>
<feComposite in2="hardAlpha" operator="out"/>
<feColorMatrix type="matrix" values="0 0 0 0 1 0 0 0 0 0.683981 0 0 0 0 0.138129 0 0 0 1 0"/>
<feBlend mode="normal" in2="BackgroundImageFix" result="effect1_dropShadow_2102_29445"/>
<feBlend mode="normal" in="SourceGraphic" in2="effect1_dropShadow_2102_29445" result="shape"/>
<feColorMatrix in="SourceAlpha" type="matrix" values="0 0 0 0 0 0 0 0 0 0 0 0 0 0 0 0 0 0 127 0" result="hardAlpha"/>
<feOffset/>
<feGaussianBlur stdDeviation="2.04"/>
<feComposite in2="hardAlpha" operator="arithmetic" k2="-1" k3="1"/>
<feColorMatrix type="matrix" values="0 0 0 0 0.779447 0 0 0 0 0.897075 0 0 0 0 1 0 0 0 1 0"/>
<feBlend mode="normal" in2="shape" result="effect2_innerShadow_2102_29445"/>
</filter>
<filter id="filter2_dii_2102_29445" x="343" y="84.9998" width="94.1632" height="94.1627" filterUnits="userSpaceOnUse" color-interpolation-filters="sRGB">
<feFlood flood-opacity="0" result="BackgroundImageFix"/>
<feColorMatrix in="SourceAlpha" type="matrix" values="0 0 0 0 0 0 0 0 0 0 0 0 0 0 0 0 0 0 127 0" result="hardAlpha"/>
<feOffset dx="5.44" dy="5.44"/>
<feGaussianBlur stdDeviation="2.72"/>
<feComposite in2="hardAlpha" operator="out"/>
<feColorMatrix type="matrix" values="0 0 0 0 0 0 0 0 0 0 0 0 0 0 0 0 0 0 0.25 0"/>
<feBlend mode="normal" in2="BackgroundImageFix" result="effect1_dropShadow_2102_29445"/>
<feBlend mode="normal" in="SourceGraphic" in2="effect1_dropShadow_2102_29445" result="shape"/>
<feColorMatrix in="SourceAlpha" type="matrix" values="0 0 0 0 0 0 0 0 0 0 0 0 0 0 0 0 0 0 127 0" result="hardAlpha"/>
<feOffset/>
<feGaussianBlur stdDeviation="5.44"/>
<feComposite in2="hardAlpha" operator="arithmetic" k2="-1" k3="1"/>
<feColorMatrix type="matrix" values="0 0 0 0 0 0 0 0 0 0 0 0 0 0 0 0 0 0 0.25 0"/>
<feBlend mode="normal" in2="shape" result="effect2_innerShadow_2102_29445"/>
<feColorMatrix in="SourceAlpha" type="matrix" values="0 0 0 0 0 0 0 0 0 0 0 0 0 0 0 0 0 0 127 0" result="hardAlpha"/>
<feOffset dx="2.72" dy="2.72"/>
<feGaussianBlur stdDeviation="2.72"/>
<feComposite in2="hardAlpha" operator="arithmetic" k2="-1" k3="1"/>
<feColorMatrix type="matrix" values="0 0 0 0 1 0 0 0 0 1 0 0 0 0 1 0 0 0 1 0"/>
<feBlend mode="normal" in2="effect2_innerShadow_2102_29445" result="effect3_innerShadow_2102_29445"/>
</filter>
<filter id="filter3_d_2102_29445" x="367.529" y="129.338" width="53.3253" height="32.0077" filterUnits="userSpaceOnUse" color-interpolation-filters="sRGB">
<feFlood flood-opacity="0" result="BackgroundImageFix"/>
<feColorMatrix in="SourceAlpha" type="matrix" values="0 0 0 0 0 0 0 0 0 0 0 0 0 0 0 0 0 0 127 0" result="hardAlpha"/>
<feOffset dy="1.36"/>
<feGaussianBlur stdDeviation="2.72"/>
<feComposite in2="hardAlpha" operator="out"/>
<feColorMatrix type="matrix" values="0 0 0 0 0 0 0 0 0 0 0 0 0 0 0 0 0 0 0.25 0"/>
<feBlend mode="normal" in2="BackgroundImageFix" result="effect1_dropShadow_2102_29445"/>
<feBlend mode="normal" in="SourceGraphic" in2="effect1_dropShadow_2102_29445" result="shape"/>
</filter>
<filter id="filter4_di_2102_29445" x="351.031" y="87.6445" width="57.7925" height="68.5579" filterUnits="userSpaceOnUse" color-interpolation-filters="sRGB">
<feFlood flood-opacity="0" result="BackgroundImageFix"/>
<feColorMatrix in="SourceAlpha" type="matrix" values="0 0 0 0 0 0 0 0 0 0 0 0 0 0 0 0 0 0 127 0" result="hardAlpha"/>
<feOffset/>
<feGaussianBlur stdDeviation="6.12"/>
<feComposite in2="hardAlpha" operator="out"/>
<feColorMatrix type="matrix" values="0 0 0 0 0.204235 0 0 0 0 1 0 0 0 0 0.557457 0 0 0 1 0"/>
<feBlend mode="normal" in2="BackgroundImageFix" result="effect1_dropShadow_2102_29445"/>
<feBlend mode="normal" in="SourceGraphic" in2="effect1_dropShadow_2102_29445" result="shape"/>
<feColorMatrix in="SourceAlpha" type="matrix" values="0 0 0 0 0 0 0 0 0 0 0 0 0 0 0 0 0 0 127 0" result="hardAlpha"/>
<feOffset/>
<feGaussianBlur stdDeviation="3.4"/>
<feComposite in2="hardAlpha" operator="arithmetic" k2="-1" k3="1"/>
<feColorMatrix type="matrix" values="0 0 0 0 1 0 0 0 0 1 0 0 0 0 1 0 0 0 1 0"/>
<feBlend mode="normal" in2="shape" result="effect2_innerShadow_2102_29445"/>
</filter>
<filter id="filter5_d_2102_29445" x="366.433" y="102.734" width="26.9796" height="26.9813" filterUnits="userSpaceOnUse" color-interpolation-filters="sRGB">
<feFlood flood-opacity="0" result="BackgroundImageFix"/>
<feColorMatrix in="SourceAlpha" type="matrix" values="0 0 0 0 0 0 0 0 0 0 0 0 0 0 0 0 0 0 127 0" result="hardAlpha"/>
<feOffset/>
<feGaussianBlur stdDeviation="2.72"/>
<feComposite in2="hardAlpha" operator="out"/>
<feColorMatrix type="matrix" values="0 0 0 0 0 0 0 0 0 0 0 0 0 0 0 0 0 0 0.25 0"/>
<feBlend mode="normal" in2="BackgroundImageFix" result="effect1_dropShadow_2102_29445"/>
<feBlend mode="normal" in="SourceGraphic" in2="effect1_dropShadow_2102_29445" result="shape"/>
</filter>
<linearGradient id="paint0_linear_2102_29445" x1="175.6" y1="92.2331" x2="238.16" y2="174.4" gradientUnits="userSpaceOnUse">
<stop offset="0.0810824" stop-color="white"/>
<stop offset="1" stop-color="#6D96FF"/>
</linearGradient>
<linearGradient id="paint1_linear_2102_29445" x1="360.6" y1="84.9998" x2="428.6" y2="153" gradientUnits="userSpaceOnUse">
<stop stop-color="white"/>
<stop offset="1" stop-color="#4D7FFF"/>
</linearGradient>
<clipPath id="clip0_2102_29445">
<rect width="600" height="184" fill="white"/>
</clipPath>
<clipPath id="clip1_2102_29445">
<rect x="179" y="103" width="68" height="68" rx="8.16" transform="rotate(-15 179 103)" fill="white"/>
</clipPath>
<clipPath id="clip2_2102_29445">
<rect x="360.6" y="84.9998" width="68" height="68" rx="8.16" transform="rotate(15 360.6 84.9998)" fill="white"/>
</clipPath>
</defs>
</svg>
