<svg width="600" height="184" viewBox="0 0 600 184" fill="none" xmlns="http://www.w3.org/2000/svg">
<g clip-path="url(#clip0_1104_13939)">
<rect width="600" height="184" fill="#001D66"/>
<rect width="600" height="184" fill="#001D66"/>
<path d="M303.405 79.232H292.653L307.245 103.808V60.992H321.261V80.96H332.493V93.728H321.261V112.544H307.245V106.4L296.973 110.72L285.837 91.52L273.453 110.72L261.165 91.52L249.933 110.72L238.701 105.824L254.157 79.232H243.597V67.232H303.405V79.232ZM274.797 133.76C274.797 131.072 275.341 128.544 276.429 126.176C277.581 123.744 279.149 121.632 281.133 119.84C283.053 118.112 285.325 116.736 287.949 115.712C290.637 114.624 293.453 114.08 296.397 114.08C299.341 114.08 302.125 114.624 304.749 115.712C307.437 116.736 309.773 118.112 311.757 119.84C313.677 121.632 315.181 123.744 316.269 126.176C317.421 128.544 317.997 131.072 317.997 133.76C317.997 136.512 317.421 139.072 316.269 141.44C315.181 143.872 313.677 145.952 311.757 147.68C309.773 149.472 307.437 150.88 304.749 151.904C302.125 152.928 299.341 153.44 296.397 153.44C293.453 153.44 290.637 152.928 287.949 151.904C285.325 150.88 283.053 149.472 281.133 147.68C279.149 145.952 277.581 143.872 276.429 141.44C275.341 139.072 274.797 136.512 274.797 133.76ZM287.757 133.76C287.757 135.936 288.589 137.792 290.253 139.328C291.981 140.864 294.029 141.632 296.397 141.632C298.829 141.632 300.877 140.864 302.541 139.328C304.205 137.792 305.037 135.936 305.037 133.76C305.037 131.648 304.205 129.824 302.541 128.288C300.877 126.752 298.829 125.984 296.397 125.984C294.029 125.984 291.981 126.752 290.253 128.288C288.589 129.824 287.757 131.648 287.757 133.76ZM273.453 89.12L279.117 79.232H267.885L273.453 89.12ZM340.214 62.24H354.326L352.31 115.232H341.75L340.214 62.24ZM347.126 120.512C349.558 120.512 351.51 121.344 352.982 123.008C354.518 124.608 355.286 126.432 355.286 128.48C355.286 130.72 354.518 132.64 352.982 134.24C351.51 135.776 349.558 136.544 347.126 136.544C344.758 136.544 342.838 135.776 341.366 134.24C339.894 132.64 339.158 130.72 339.158 128.48C339.158 126.432 339.894 124.608 341.366 123.008C342.838 121.344 344.758 120.512 347.126 120.512Z" fill="white"/>
<path d="M246.359 37.6875V39.1094H240.75V43.3906H239.031V39.1094H233.453V37.6875H246.359ZM244.969 35.1406V36.5156H235.109V29.875H244.812V31.25H236.828V32.5H244.5V33.8438H236.828V35.1406H244.969ZM260.203 40.3594V41.7656H247.297V40.3594H250.641V37.4531H248.406V36.0469H250.391V31.8594H248.359V30.4688H259.078V31.8594H257.016V36.0469H259.031V37.4531H256.797V40.3594H260.203ZM252.125 36.0469H255.297V31.8594H252.125V36.0469ZM252.375 40.3594H255.062V37.4531H252.375V40.3594ZM272.188 29.2656V34.7812H274.281V36.2344H272.188V43.3594H270.453V29.2656H272.188ZM268.453 30.7344C268.453 34.8906 266.734 38.5312 262.031 40.8438L261.047 39.5C264.484 37.7891 266.344 35.3828 266.703 32.1719H261.812V30.7344H268.453ZM289.891 29.2812V33.3594H291.859V34.7969H289.891V39.6719H288.156V29.2812H289.891ZM290.453 41.7031V43.1094H280.844V38.625H282.578V41.7031H290.453ZM280.953 30.2812V32.4375H284.25V30.2812H285.969V37.375H279.234V30.2812H280.953ZM280.953 36H284.25V33.7812H280.953V36ZM296.5 30.0625C297.641 30.0625 298.625 30.4844 299.297 31.1875H302.672V29.2656H304.406V37.5781H302.672V35.7812H299.297C298.625 36.4844 297.633 36.8984 296.5 36.8906C294.375 36.9062 292.766 35.4688 292.766 33.4844C292.766 31.4844 294.375 30.0625 296.5 30.0625ZM296.5 31.5469C295.281 31.5469 294.422 32.2969 294.422 33.4844C294.422 34.6406 295.281 35.4219 296.5 35.4219C297.672 35.4219 298.531 34.6406 298.547 33.4844C298.531 32.2969 297.672 31.5469 296.5 31.5469ZM299.625 37.875C302.594 37.875 304.453 38.8906 304.453 40.625C304.453 42.3594 302.594 43.375 299.625 43.375C296.672 43.375 294.812 42.3594 294.828 40.625C294.812 38.8906 296.672 37.875 299.625 37.875ZM299.625 39.2031C297.656 39.2031 296.516 39.7031 296.531 40.625C296.516 41.5156 297.656 42.0156 299.625 42.0156C301.625 42.0156 302.75 41.5156 302.75 40.625C302.75 39.7031 301.625 39.2031 299.625 39.2031ZM300.078 32.5781C300.156 32.8672 300.203 33.1641 300.203 33.4844C300.203 33.7969 300.156 34.0938 300.094 34.375H302.672V32.5781H300.078ZM314.812 35.125V36.5312H311.953V39C313.188 38.9453 314.422 38.8594 315.594 38.7344L315.734 40.0156C312.625 40.4844 309.359 40.5156 306.688 40.5156L306.469 39.0781C307.633 39.0859 308.906 39.0859 310.219 39.0469V36.5312H307.453V30.5625H314.75V31.9375H309.172V35.125H314.812ZM318.172 29.2656V43.4062H316.438V29.2656H318.172ZM325.406 38.4219C325.391 39.6172 325.938 40.8516 327.156 41.6406C328.375 40.7891 328.922 39.4844 328.938 38.4219V37.7656H330.641V38.4219C330.641 39.8906 331.5 41.3125 333.391 41.9062L332.516 43.2031C331.148 42.7188 330.242 41.8125 329.766 40.6719C329.297 41.7969 328.453 42.7969 327.156 43.3125C325.844 42.8203 325.008 41.8594 324.547 40.7188C324.047 41.8125 323.148 42.7109 321.844 43.2031L321 41.9062C322.828 41.2812 323.703 39.8125 323.719 38.4219V37.7656H325.406V38.4219ZM324.156 30.0156C325.961 30.0156 327.414 31.0781 327.781 32.6406H330.328V29.2656H332.062V37.2344H330.328V34.0469H327.797C327.461 35.6562 325.992 36.7344 324.156 36.7344C322.016 36.7344 320.422 35.3438 320.422 33.375C320.422 31.4219 322.016 30.0156 324.156 30.0156ZM324.156 31.4688C322.969 31.4688 322.094 32.2188 322.094 33.375C322.094 34.5156 322.969 35.2969 324.156 35.2969C325.312 35.2969 326.188 34.5156 326.188 33.375C326.188 32.2188 325.312 31.4688 324.156 31.4688ZM337.922 30.2969C339.836 30.2969 341.25 31.8906 341.5 34.4688H344.188V29.2656H345.906V43.4062H344.188V35.875H341.516C341.328 38.6016 339.891 40.2812 337.922 40.2812C335.797 40.2812 334.297 38.3594 334.297 35.2812C334.297 32.2344 335.797 30.2969 337.922 30.2969ZM337.922 31.8594C336.75 31.8594 335.953 33.125 335.969 35.2812C335.953 37.4531 336.75 38.7188 337.922 38.7188C339.094 38.7188 339.875 37.4531 339.891 35.2812C339.875 33.125 339.094 31.8594 337.922 31.8594ZM360.797 40.25V41.6719H347.891V40.25H350.875V36.6719C349.75 36.0312 349.07 35.0234 349.078 33.7656C349.062 31.5156 351.281 30.0312 354.312 30.0312C357.359 30.0312 359.578 31.5156 359.578 33.7656C359.578 35 358.922 35.9922 357.828 36.6406V40.25H360.797ZM354.312 31.4062C352.203 31.4062 350.766 32.2969 350.781 33.7656C350.766 35.2188 352.203 36.125 354.312 36.125C356.422 36.125 357.875 35.2188 357.875 33.7656C357.875 32.2969 356.422 31.4062 354.312 31.4062ZM352.594 40.25H356.062V37.2969C355.523 37.4219 354.938 37.4844 354.312 37.4844C353.703 37.4844 353.125 37.4219 352.594 37.3125V40.25ZM364.625 30.6875L364.453 38.6719H362.688L362.5 30.6875H364.625ZM363.578 42.125C362.906 42.125 362.359 41.5781 362.359 40.9062C362.359 40.25 362.906 39.7031 363.578 39.7031C364.219 39.7031 364.781 40.25 364.781 40.9062C364.781 41.5781 364.219 42.125 363.578 42.125Z" fill="white"/>
</g>
<defs>
<clipPath id="clip0_1104_13939">
<rect width="600" height="184" fill="white"/>
</clipPath>
</defs>
</svg>
