<svg width="600" height="184" viewBox="0 0 600 184" fill="none" xmlns="http://www.w3.org/2000/svg">
<g clip-path="url(#clip0_1104_13890)">
<rect width="600" height="184" fill="#003ACC"/>
<path d="M0 160L600 20V184H0V160Z" fill="#002C99"/>
<g filter="url(#filter0_diiii_1104_13890)">
<g clip-path="url(#clip1_1104_13890)">
<rect x="179" y="103" width="68" height="68" rx="8.16" transform="rotate(-15 179 103)" fill="#FAE100"/>
<g filter="url(#filter1_di_1104_13890)">
<path fill-rule="evenodd" clip-rule="evenodd" d="M214.012 102.301C223.927 99.6447 234.119 105.529 236.776 115.444C238.565 122.122 236.177 127.221 231.363 136.841C229.748 140.068 228.992 146.122 228.643 150.53C228.585 151.264 227.976 151.755 227.299 151.888C226.645 152.111 225.873 151.99 225.455 151.384C222.949 147.741 219.267 142.876 216.256 140.889C207.276 134.964 202.658 131.743 200.869 125.065C198.212 115.15 204.097 104.958 214.012 102.301ZM217.402 113.638C217.291 113.667 217.183 113.7 217.076 113.735C216.965 113.758 216.855 113.784 216.745 113.814C213.48 114.689 211.542 118.044 212.417 121.309C213.292 124.574 216.648 126.512 219.913 125.637C220.023 125.607 220.131 125.574 220.239 125.539C220.349 125.516 220.459 125.49 220.569 125.461C223.834 124.586 225.772 121.23 224.897 117.965C224.022 114.701 220.666 112.763 217.402 113.638Z" fill="#007DFF"/>
<path d="M214.1 102.63C223.834 100.022 233.839 105.799 236.447 115.533C238.197 122.065 235.885 127.044 231.059 136.689C230.229 138.348 229.629 140.708 229.193 143.183C228.756 145.666 228.478 148.293 228.304 150.503C228.261 151.039 227.811 151.44 227.233 151.554L227.211 151.559L227.188 151.566C226.631 151.756 226.04 151.634 225.735 151.191C224.479 149.365 222.925 147.228 221.306 145.297C219.691 143.371 217.991 141.627 216.442 140.606C207.44 134.666 202.948 131.51 201.198 124.978C198.589 115.244 204.366 105.238 214.1 102.63ZM217.314 113.309C217.203 113.339 217.094 113.371 216.988 113.406C216.878 113.429 216.768 113.456 216.657 113.485C213.211 114.409 211.166 117.951 212.089 121.397C213.013 124.843 216.555 126.888 220.001 125.965C220.112 125.935 220.22 125.902 220.327 125.868C220.436 125.844 220.547 125.819 220.657 125.789C224.104 124.866 226.149 121.323 225.225 117.877C224.302 114.431 220.76 112.386 217.314 113.309Z" stroke="white" stroke-width="0.68"/>
</g>
</g>
<rect x="179.833" y="103.481" width="66.64" height="66.64" rx="7.48" transform="rotate(-15 179.833 103.481)" stroke="url(#paint0_linear_1104_13890)" stroke-width="1.36"/>
</g>
<g filter="url(#filter2_dii_1104_13890)">
<g clip-path="url(#clip2_1104_13890)">
<rect x="360.6" y="85.0002" width="68" height="68" rx="8.16" transform="rotate(15 360.6 85.0002)" fill="white"/>
<g filter="url(#filter3_d_1104_13890)">
<rect x="375.785" y="133.418" width="41.0267" height="10.88" transform="rotate(15 375.785 133.418)" fill="#256BFA"/>
</g>
<g filter="url(#filter4_di_1104_13890)">
<path d="M396.008 121.004C393.858 129.026 376.685 141.373 373.156 143.841C372.817 144.078 372.367 143.958 372.19 143.585C370.335 139.683 361.454 120.346 363.604 112.321C366.002 103.373 375.199 98.063 384.147 100.461C393.095 102.858 398.405 112.056 396.008 121.004Z" fill="#04C75A"/>
<path d="M384.059 100.789C392.826 103.138 398.029 112.149 395.68 120.916C395.162 122.847 393.726 125.076 391.767 127.39C389.815 129.696 387.37 132.057 384.875 134.25C379.886 138.635 374.721 142.331 372.961 143.562C372.795 143.678 372.584 143.622 372.497 143.439C371.571 141.492 368.894 135.695 366.717 129.388C365.628 126.234 364.666 122.961 364.111 119.981C363.555 116.992 363.415 114.34 363.932 112.409C366.281 103.643 375.293 98.4399 384.059 100.789Z" stroke="#CEFFE4" stroke-width="0.68"/>
</g>
<g filter="url(#filter5_d_1104_13890)">
<path d="M381.843 117.168L379.254 109.945L375.756 109.007L372.705 120.392L376.37 121.374L378.003 115.28L380.591 122.505L384.09 123.443L387.141 112.058L383.476 111.076L381.843 117.168Z" fill="white"/>
<path d="M376.611 121.791L378.05 116.42L380.271 122.62L380.331 122.787L384.331 123.859L387.558 111.817L383.235 110.659L381.796 116.03L379.574 109.83L379.514 109.662L375.516 108.59L372.289 120.632L376.611 121.791Z" stroke="#019944" stroke-width="0.68"/>
</g>
</g>
<rect x="361.08" y="85.8331" width="66.64" height="66.64" rx="7.48" transform="rotate(15 361.08 85.8331)" stroke="url(#paint1_linear_1104_13890)" stroke-width="1.36"/>
</g>
<path d="M308.771 132.223C309.362 132.599 309.939 132.921 310.503 133.19C311.094 133.431 311.644 133.633 312.154 133.794C313.201 134.197 314.006 134.398 314.57 134.398C315.188 134.398 315.778 134.223 316.342 133.874C316.933 133.525 317.228 133.002 317.228 132.304C317.228 131.767 316.919 131.284 316.302 130.854C315.711 130.398 315.053 129.981 314.329 129.605C313.657 129.337 312.959 129.028 312.235 128.679C311.537 128.303 310.906 127.874 310.342 127.39C309.805 126.934 309.349 126.41 308.973 125.82C308.624 125.202 308.449 124.491 308.449 123.685C308.449 122.611 308.664 121.645 309.094 120.786C309.523 119.9 310.087 119.202 310.785 118.691C311.537 118.128 312.409 117.711 313.402 117.443C314.396 117.148 315.429 117 316.503 117C317.389 117 318.262 117.107 319.121 117.322C320.007 117.51 320.946 117.738 321.939 118.007L321.456 123.081C321.188 122.92 320.799 122.732 320.288 122.517C319.805 122.276 319.362 122.074 318.96 121.913C318.664 121.806 318.248 121.712 317.711 121.631C317.174 121.524 316.651 121.47 316.141 121.47C315.631 121.497 315.174 121.618 314.772 121.833C314.396 122.048 314.208 122.423 314.208 122.96C314.208 123.336 314.329 123.685 314.57 124.008C314.812 124.303 315.094 124.544 315.416 124.732C315.765 124.974 316.114 125.175 316.463 125.337C316.812 125.471 317.107 125.592 317.349 125.699C318.02 125.994 318.691 126.317 319.362 126.666C320.033 127.015 320.651 127.431 321.215 127.914C321.752 128.424 322.181 128.988 322.503 129.605C322.852 130.196 323.027 130.975 323.027 131.941C323.027 133.123 322.799 134.129 322.342 134.962C321.886 135.794 321.322 136.492 320.651 137.056C319.926 137.647 319.094 138.076 318.154 138.345C317.215 138.613 316.221 138.747 315.174 138.747C314.208 138.747 313.147 138.667 311.993 138.506C310.865 138.318 309.711 137.902 308.53 137.257L308.771 132.223Z" fill="white" fill-opacity="0.5"/>
<path d="M298.725 138.739H293.208L286 117.394H291.638L295.987 131.006L300.296 117.394H305.974L298.725 138.739Z" fill="white" fill-opacity="0.5"/>
<rect x="433" y="86.0002" width="12" height="12" fill="#FEE500"/>
<rect x="420" y="78.0002" width="6" height="6" fill="#03C75A"/>
<rect x="164" y="161.5" width="6" height="6" fill="#03C75A"/>
<rect x="174.5" y="160" width="3" height="3" fill="#FEE500"/>
</g>
<defs>
<filter id="filter0_diiii_1104_13890" x="177.64" y="82.6806" width="95.5232" height="96.8825" filterUnits="userSpaceOnUse" color-interpolation-filters="sRGB">
<feFlood flood-opacity="0" result="BackgroundImageFix"/>
<feColorMatrix in="SourceAlpha" type="matrix" values="0 0 0 0 0 0 0 0 0 0 0 0 0 0 0 0 0 0 127 0" result="hardAlpha"/>
<feOffset dx="5.44" dy="5.44"/>
<feGaussianBlur stdDeviation="2.72"/>
<feComposite in2="hardAlpha" operator="out"/>
<feColorMatrix type="matrix" values="0 0 0 0 0 0 0 0 0 0 0 0 0 0 0 0 0 0 0.25 0"/>
<feBlend mode="normal" in2="BackgroundImageFix" result="effect1_dropShadow_1104_13890"/>
<feBlend mode="normal" in="SourceGraphic" in2="effect1_dropShadow_1104_13890" result="shape"/>
<feColorMatrix in="SourceAlpha" type="matrix" values="0 0 0 0 0 0 0 0 0 0 0 0 0 0 0 0 0 0 127 0" result="hardAlpha"/>
<feMorphology radius="5.44" operator="erode" in="SourceAlpha" result="effect2_innerShadow_1104_13890"/>
<feOffset/>
<feGaussianBlur stdDeviation="8.16"/>
<feComposite in2="hardAlpha" operator="arithmetic" k2="-1" k3="1"/>
<feColorMatrix type="matrix" values="0 0 0 0 1 0 0 0 0 0.984756 0 0 0 0 0.847556 0 0 0 1 0"/>
<feBlend mode="normal" in2="shape" result="effect2_innerShadow_1104_13890"/>
<feColorMatrix in="SourceAlpha" type="matrix" values="0 0 0 0 0 0 0 0 0 0 0 0 0 0 0 0 0 0 127 0" result="hardAlpha"/>
<feOffset dx="4.08" dy="2.72"/>
<feGaussianBlur stdDeviation="3.4"/>
<feComposite in2="hardAlpha" operator="arithmetic" k2="-1" k3="1"/>
<feColorMatrix type="matrix" values="0 0 0 0 1 0 0 0 0 1 0 0 0 0 1 0 0 0 1 0"/>
<feBlend mode="normal" in2="effect2_innerShadow_1104_13890" result="effect3_innerShadow_1104_13890"/>
<feColorMatrix in="SourceAlpha" type="matrix" values="0 0 0 0 0 0 0 0 0 0 0 0 0 0 0 0 0 0 127 0" result="hardAlpha"/>
<feMorphology radius="4.08" operator="erode" in="SourceAlpha" result="effect4_innerShadow_1104_13890"/>
<feOffset dx="-1.36" dy="-2.72"/>
<feGaussianBlur stdDeviation="5.44"/>
<feComposite in2="hardAlpha" operator="arithmetic" k2="-1" k3="1"/>
<feColorMatrix type="matrix" values="0 0 0 0 1 0 0 0 0 0.806263 0 0 0 0 0.105828 0 0 0 0.73 0"/>
<feBlend mode="normal" in2="effect3_innerShadow_1104_13890" result="effect4_innerShadow_1104_13890"/>
<feColorMatrix in="SourceAlpha" type="matrix" values="0 0 0 0 0 0 0 0 0 0 0 0 0 0 0 0 0 0 127 0" result="hardAlpha"/>
<feOffset dx="2.72" dy="2.72"/>
<feGaussianBlur stdDeviation="2.04"/>
<feComposite in2="hardAlpha" operator="arithmetic" k2="-1" k3="1"/>
<feColorMatrix type="matrix" values="0 0 0 0 1 0 0 0 0 1 0 0 0 0 1 0 0 0 1 0"/>
<feBlend mode="normal" in2="effect4_innerShadow_1104_13890" result="effect5_innerShadow_1104_13890"/>
</filter>
<filter id="filter1_di_1104_13890" x="189.35" y="90.7836" width="58.8987" height="72.0886" filterUnits="userSpaceOnUse" color-interpolation-filters="sRGB">
<feFlood flood-opacity="0" result="BackgroundImageFix"/>
<feColorMatrix in="SourceAlpha" type="matrix" values="0 0 0 0 0 0 0 0 0 0 0 0 0 0 0 0 0 0 127 0" result="hardAlpha"/>
<feOffset/>
<feGaussianBlur stdDeviation="5.44"/>
<feComposite in2="hardAlpha" operator="out"/>
<feColorMatrix type="matrix" values="0 0 0 0 1 0 0 0 0 0.683981 0 0 0 0 0.138129 0 0 0 1 0"/>
<feBlend mode="normal" in2="BackgroundImageFix" result="effect1_dropShadow_1104_13890"/>
<feBlend mode="normal" in="SourceGraphic" in2="effect1_dropShadow_1104_13890" result="shape"/>
<feColorMatrix in="SourceAlpha" type="matrix" values="0 0 0 0 0 0 0 0 0 0 0 0 0 0 0 0 0 0 127 0" result="hardAlpha"/>
<feOffset/>
<feGaussianBlur stdDeviation="2.04"/>
<feComposite in2="hardAlpha" operator="arithmetic" k2="-1" k3="1"/>
<feColorMatrix type="matrix" values="0 0 0 0 0.779447 0 0 0 0 0.897075 0 0 0 0 1 0 0 0 1 0"/>
<feBlend mode="normal" in2="shape" result="effect2_innerShadow_1104_13890"/>
</filter>
<filter id="filter2_dii_1104_13890" x="343" y="85.0002" width="94.1632" height="94.1627" filterUnits="userSpaceOnUse" color-interpolation-filters="sRGB">
<feFlood flood-opacity="0" result="BackgroundImageFix"/>
<feColorMatrix in="SourceAlpha" type="matrix" values="0 0 0 0 0 0 0 0 0 0 0 0 0 0 0 0 0 0 127 0" result="hardAlpha"/>
<feOffset dx="5.44" dy="5.44"/>
<feGaussianBlur stdDeviation="2.72"/>
<feComposite in2="hardAlpha" operator="out"/>
<feColorMatrix type="matrix" values="0 0 0 0 0 0 0 0 0 0 0 0 0 0 0 0 0 0 0.25 0"/>
<feBlend mode="normal" in2="BackgroundImageFix" result="effect1_dropShadow_1104_13890"/>
<feBlend mode="normal" in="SourceGraphic" in2="effect1_dropShadow_1104_13890" result="shape"/>
<feColorMatrix in="SourceAlpha" type="matrix" values="0 0 0 0 0 0 0 0 0 0 0 0 0 0 0 0 0 0 127 0" result="hardAlpha"/>
<feOffset/>
<feGaussianBlur stdDeviation="5.44"/>
<feComposite in2="hardAlpha" operator="arithmetic" k2="-1" k3="1"/>
<feColorMatrix type="matrix" values="0 0 0 0 0 0 0 0 0 0 0 0 0 0 0 0 0 0 0.25 0"/>
<feBlend mode="normal" in2="shape" result="effect2_innerShadow_1104_13890"/>
<feColorMatrix in="SourceAlpha" type="matrix" values="0 0 0 0 0 0 0 0 0 0 0 0 0 0 0 0 0 0 127 0" result="hardAlpha"/>
<feOffset dx="2.72" dy="2.72"/>
<feGaussianBlur stdDeviation="2.72"/>
<feComposite in2="hardAlpha" operator="arithmetic" k2="-1" k3="1"/>
<feColorMatrix type="matrix" values="0 0 0 0 1 0 0 0 0 1 0 0 0 0 1 0 0 0 1 0"/>
<feBlend mode="normal" in2="effect2_innerShadow_1104_13890" result="effect3_innerShadow_1104_13890"/>
</filter>
<filter id="filter3_d_1104_13890" x="367.529" y="129.338" width="53.3253" height="32.0077" filterUnits="userSpaceOnUse" color-interpolation-filters="sRGB">
<feFlood flood-opacity="0" result="BackgroundImageFix"/>
<feColorMatrix in="SourceAlpha" type="matrix" values="0 0 0 0 0 0 0 0 0 0 0 0 0 0 0 0 0 0 127 0" result="hardAlpha"/>
<feOffset dy="1.36"/>
<feGaussianBlur stdDeviation="2.72"/>
<feComposite in2="hardAlpha" operator="out"/>
<feColorMatrix type="matrix" values="0 0 0 0 0 0 0 0 0 0 0 0 0 0 0 0 0 0 0.25 0"/>
<feBlend mode="normal" in2="BackgroundImageFix" result="effect1_dropShadow_1104_13890"/>
<feBlend mode="normal" in="SourceGraphic" in2="effect1_dropShadow_1104_13890" result="shape"/>
</filter>
<filter id="filter4_di_1104_13890" x="351.031" y="87.645" width="57.7925" height="68.5579" filterUnits="userSpaceOnUse" color-interpolation-filters="sRGB">
<feFlood flood-opacity="0" result="BackgroundImageFix"/>
<feColorMatrix in="SourceAlpha" type="matrix" values="0 0 0 0 0 0 0 0 0 0 0 0 0 0 0 0 0 0 127 0" result="hardAlpha"/>
<feOffset/>
<feGaussianBlur stdDeviation="6.12"/>
<feComposite in2="hardAlpha" operator="out"/>
<feColorMatrix type="matrix" values="0 0 0 0 0.204235 0 0 0 0 1 0 0 0 0 0.557457 0 0 0 1 0"/>
<feBlend mode="normal" in2="BackgroundImageFix" result="effect1_dropShadow_1104_13890"/>
<feBlend mode="normal" in="SourceGraphic" in2="effect1_dropShadow_1104_13890" result="shape"/>
<feColorMatrix in="SourceAlpha" type="matrix" values="0 0 0 0 0 0 0 0 0 0 0 0 0 0 0 0 0 0 127 0" result="hardAlpha"/>
<feOffset/>
<feGaussianBlur stdDeviation="3.4"/>
<feComposite in2="hardAlpha" operator="arithmetic" k2="-1" k3="1"/>
<feColorMatrix type="matrix" values="0 0 0 0 1 0 0 0 0 1 0 0 0 0 1 0 0 0 1 0"/>
<feBlend mode="normal" in2="shape" result="effect2_innerShadow_1104_13890"/>
</filter>
<filter id="filter5_d_1104_13890" x="366.433" y="102.734" width="26.9796" height="26.9813" filterUnits="userSpaceOnUse" color-interpolation-filters="sRGB">
<feFlood flood-opacity="0" result="BackgroundImageFix"/>
<feColorMatrix in="SourceAlpha" type="matrix" values="0 0 0 0 0 0 0 0 0 0 0 0 0 0 0 0 0 0 127 0" result="hardAlpha"/>
<feOffset/>
<feGaussianBlur stdDeviation="2.72"/>
<feComposite in2="hardAlpha" operator="out"/>
<feColorMatrix type="matrix" values="0 0 0 0 0 0 0 0 0 0 0 0 0 0 0 0 0 0 0.25 0"/>
<feBlend mode="normal" in2="BackgroundImageFix" result="effect1_dropShadow_1104_13890"/>
<feBlend mode="normal" in="SourceGraphic" in2="effect1_dropShadow_1104_13890" result="shape"/>
</filter>
<linearGradient id="paint0_linear_1104_13890" x1="175.6" y1="92.2336" x2="238.16" y2="174.4" gradientUnits="userSpaceOnUse">
<stop offset="0.0810824" stop-color="white"/>
<stop offset="1" stop-color="#6D96FF"/>
</linearGradient>
<linearGradient id="paint1_linear_1104_13890" x1="360.6" y1="85.0002" x2="428.6" y2="153" gradientUnits="userSpaceOnUse">
<stop stop-color="white"/>
<stop offset="1" stop-color="#4D7FFF"/>
</linearGradient>
<clipPath id="clip0_1104_13890">
<rect width="600" height="184" fill="white"/>
</clipPath>
<clipPath id="clip1_1104_13890">
<rect x="179" y="103" width="68" height="68" rx="8.16" transform="rotate(-15 179 103)" fill="white"/>
</clipPath>
<clipPath id="clip2_1104_13890">
<rect x="360.6" y="85.0002" width="68" height="68" rx="8.16" transform="rotate(15 360.6 85.0002)" fill="white"/>
</clipPath>
</defs>
</svg>
