<svg width="328" height="184" viewBox="0 0 328 184" fill="none" xmlns="http://www.w3.org/2000/svg">
<g clip-path="url(#clip0_1398_24058)">
<rect x="-136" width="600" height="184" fill="#003ACC"/>
<path d="M-136 160L464 20V184H-136V160Z" fill="#002C99"/>
<g filter="url(#filter0_diiii_1398_24058)">
<g clip-path="url(#clip1_1398_24058)">
<rect x="43" y="103" width="68" height="68" rx="8.16" transform="rotate(-15 43 103)" fill="#FAE100"/>
<g filter="url(#filter1_di_1398_24058)">
<path fill-rule="evenodd" clip-rule="evenodd" d="M78.0119 102.301C87.9273 99.6439 98.119 105.528 100.776 115.444C102.565 122.121 100.177 127.22 95.3626 136.84C93.748 140.067 92.9916 146.121 92.6429 150.529C92.5848 151.263 91.976 151.754 91.2986 151.887C90.6453 152.11 89.8725 151.99 89.4554 151.383C86.9494 147.74 83.2672 142.875 80.2556 140.888C71.2762 134.964 66.6585 131.742 64.8692 125.065C62.2124 115.149 68.0966 104.958 78.0119 102.301ZM81.4015 113.637C81.2913 113.667 81.1827 113.699 81.0756 113.734C80.9652 113.758 80.8549 113.784 80.7447 113.813C77.4799 114.688 75.5424 118.044 76.4172 121.309C77.292 124.573 80.6478 126.511 83.9126 125.636C84.0228 125.607 84.1314 125.574 84.2385 125.539C84.3488 125.515 84.4592 125.49 84.5695 125.46C87.8343 124.585 89.7717 121.229 88.8969 117.965C88.0221 114.7 84.6663 112.762 81.4015 113.637Z" fill="#007DFF"/>
<path d="M78.1001 102.629C87.834 100.021 97.839 105.798 100.447 115.532C102.197 122.064 99.8852 127.043 95.0586 136.688C94.2285 138.347 93.6293 140.707 93.1935 143.182C92.7564 145.665 92.4785 148.292 92.3037 150.502C92.2612 151.038 91.8105 151.44 91.2326 151.553L91.2107 151.558L91.1883 151.565C90.631 151.756 90.04 151.633 89.7351 151.19C88.4789 149.364 86.9254 147.227 85.3057 145.296C83.6907 143.37 81.9909 141.626 80.4424 140.605C71.4399 134.665 66.9479 131.509 65.1975 124.977C62.5893 115.243 68.3662 105.237 78.1001 102.629ZM81.3136 113.309C81.2031 113.338 81.0944 113.37 80.9876 113.405C80.8777 113.428 80.7675 113.455 80.657 113.485C77.2109 114.408 75.1658 117.95 76.0892 121.396C77.0126 124.843 80.5548 126.888 84.001 125.964C84.1118 125.934 84.2203 125.901 84.3267 125.867C84.4361 125.844 84.5467 125.818 84.6575 125.788C88.1036 124.865 90.1488 121.323 89.2254 117.876C88.3019 114.43 84.7597 112.385 81.3136 113.309Z" stroke="white" stroke-width="0.68"/>
</g>
</g>
<rect x="43.8328" y="103.481" width="66.64" height="66.64" rx="7.48" transform="rotate(-15 43.8328 103.481)" stroke="url(#paint0_linear_1398_24058)" stroke-width="1.36"/>
</g>
<g filter="url(#filter2_dii_1398_24058)">
<g clip-path="url(#clip2_1398_24058)">
<rect x="224.6" y="85" width="68" height="68" rx="8.16" transform="rotate(15 224.6 85)" fill="white"/>
<g filter="url(#filter3_d_1398_24058)">
<rect x="239.785" y="133.418" width="41.0267" height="10.88" transform="rotate(15 239.785 133.418)" fill="#256BFA"/>
</g>
<g filter="url(#filter4_di_1398_24058)">
<path d="M260.008 121.003C257.858 129.026 240.685 141.373 237.156 143.841C236.817 144.077 236.367 143.958 236.19 143.585C234.335 139.682 225.454 120.346 227.604 112.321C230.002 103.373 239.199 98.0628 248.147 100.46C257.095 102.858 262.405 112.055 260.008 121.003Z" fill="#04C75A"/>
<path d="M248.059 100.789C256.826 103.138 262.029 112.149 259.68 120.916C259.162 122.847 257.726 125.075 255.767 127.389C253.815 129.696 251.37 132.056 248.875 134.249C243.886 138.635 238.721 142.331 236.961 143.562C236.795 143.678 236.584 143.622 236.497 143.439C235.571 141.492 232.894 135.695 230.717 129.388C229.628 126.234 228.666 122.96 228.111 119.981C227.555 116.992 227.415 114.34 227.932 112.409C230.281 103.642 239.293 98.4397 248.059 100.789Z" stroke="#CEFFE4" stroke-width="0.68"/>
</g>
<g filter="url(#filter5_d_1398_24058)">
<path d="M245.843 117.169L243.254 109.945L239.756 109.008L236.705 120.393L240.37 121.375L242.003 115.281L244.591 122.506L248.09 123.443L251.141 112.058L247.476 111.076L245.843 117.169Z" fill="white"/>
<path d="M240.611 121.791L242.05 116.421L244.271 122.62L244.331 122.788L248.331 123.86L251.558 111.818L247.235 110.659L245.796 116.03L243.574 109.83L243.514 109.662L239.516 108.591L236.289 120.633L240.611 121.791Z" stroke="#019944" stroke-width="0.68"/>
</g>
</g>
<rect x="225.08" y="85.8328" width="66.64" height="66.64" rx="7.48" transform="rotate(15 225.08 85.8328)" stroke="url(#paint1_linear_1398_24058)" stroke-width="1.36"/>
</g>
<path d="M172.77 132.223C173.361 132.599 173.938 132.921 174.502 133.19C175.093 133.431 175.643 133.633 176.153 133.794C177.2 134.197 178.005 134.398 178.569 134.398C179.187 134.398 179.777 134.223 180.341 133.874C180.932 133.525 181.227 133.002 181.227 132.304C181.227 131.767 180.918 131.284 180.301 130.854C179.71 130.398 179.052 129.981 178.328 129.605C177.656 129.337 176.958 129.028 176.234 128.679C175.536 128.303 174.905 127.874 174.341 127.39C173.804 126.934 173.348 126.41 172.972 125.82C172.623 125.202 172.448 124.491 172.448 123.685C172.448 122.611 172.663 121.645 173.093 120.786C173.522 119.9 174.086 119.202 174.784 118.691C175.536 118.128 176.408 117.711 177.401 117.443C178.395 117.148 179.428 117 180.502 117C181.388 117 182.261 117.107 183.12 117.322C184.006 117.51 184.945 117.738 185.938 118.007L185.455 123.081C185.187 122.92 184.798 122.732 184.287 122.517C183.804 122.276 183.361 122.074 182.959 121.913C182.663 121.806 182.247 121.712 181.71 121.631C181.173 121.524 180.65 121.47 180.14 121.47C179.63 121.497 179.173 121.618 178.771 121.833C178.395 122.048 178.207 122.423 178.207 122.96C178.207 123.336 178.328 123.685 178.569 124.008C178.811 124.303 179.093 124.544 179.415 124.732C179.764 124.974 180.113 125.175 180.462 125.337C180.811 125.471 181.106 125.592 181.348 125.699C182.019 125.994 182.69 126.317 183.361 126.666C184.032 127.015 184.65 127.431 185.214 127.914C185.751 128.424 186.18 128.988 186.502 129.605C186.851 130.196 187.026 130.975 187.026 131.941C187.026 133.123 186.798 134.129 186.341 134.962C185.885 135.794 185.321 136.492 184.65 137.056C183.925 137.647 183.093 138.076 182.153 138.345C181.214 138.613 180.22 138.747 179.173 138.747C178.207 138.747 177.146 138.667 175.992 138.506C174.864 138.318 173.71 137.902 172.529 137.257L172.77 132.223Z" fill="white" fill-opacity="0.5"/>
<path d="M162.725 138.739H157.208L150 117.395H155.638L159.987 131.007L164.296 117.395H169.974L162.725 138.739Z" fill="white" fill-opacity="0.5"/>
<rect x="297" y="86" width="12" height="12" fill="#FEE500"/>
<rect x="284" y="78" width="6" height="6" fill="#03C75A"/>
<rect x="28" y="161.5" width="6" height="6" fill="#03C75A"/>
<rect x="38.5" y="160" width="3" height="3" fill="#FEE500"/>
<path d="M76.3594 24.832C77.7461 24.8418 79.1133 25.6621 79.123 28.25C79.123 30.6914 78.0195 32.0977 76.2812 32.0977C74.9141 32.0977 73.9766 31.248 73.8203 30.0762H75.0801C75.207 30.6328 75.6367 30.9941 76.2812 30.9941C77.3066 30.9941 77.8828 30.0859 77.8926 28.5723H77.8145C77.4531 29.1875 76.7793 29.5488 75.998 29.5488C74.7383 29.5488 73.7617 28.5918 73.752 27.2539C73.752 25.8672 74.7871 24.8223 76.3594 24.832ZM76.3691 25.8574C75.5781 25.8574 74.9824 26.4727 74.9922 27.2246C74.9922 27.9863 75.5586 28.582 76.3496 28.582C77.1309 28.582 77.7461 27.9473 77.7363 27.2148C77.7363 26.4922 77.1602 25.8574 76.3691 25.8574ZM82.6875 24.832C84.0742 24.8418 85.4414 25.6621 85.4512 28.25C85.4512 30.6914 84.3477 32.0977 82.6094 32.0977C81.2422 32.0977 80.3047 31.248 80.1484 30.0762H81.4082C81.5352 30.6328 81.9648 30.9941 82.6094 30.9941C83.6348 30.9941 84.2109 30.0859 84.2207 28.5723H84.1426C83.7812 29.1875 83.1074 29.5488 82.3262 29.5488C81.0664 29.5488 80.0898 28.5918 80.0801 27.2539C80.0801 25.8672 81.1152 24.8223 82.6875 24.832ZM82.6973 25.8574C81.9062 25.8574 81.3105 26.4727 81.3203 27.2246C81.3203 27.9863 81.8867 28.582 82.6777 28.582C83.459 28.582 84.0742 27.9473 84.0645 27.2148C84.0645 26.4922 83.4883 25.8574 82.6973 25.8574ZM89.0156 24.832C90.4023 24.8418 91.7695 25.6621 91.7793 28.25C91.7793 30.6914 90.6758 32.0977 88.9375 32.0977C87.5703 32.0977 86.6328 31.248 86.4766 30.0762H87.7363C87.8633 30.6328 88.293 30.9941 88.9375 30.9941C89.9629 30.9941 90.5391 30.0859 90.5488 28.5723H90.4707C90.1094 29.1875 89.4355 29.5488 88.6543 29.5488C87.3945 29.5488 86.418 28.5918 86.4082 27.2539C86.4082 25.8672 87.4434 24.8223 89.0156 24.832ZM89.0254 25.8574C88.2344 25.8574 87.6387 26.4727 87.6484 27.2246C87.6484 27.9863 88.2148 28.582 89.0059 28.582C89.7871 28.582 90.4023 27.9473 90.3926 27.2148C90.3926 26.4922 89.8164 25.8574 89.0254 25.8574ZM93.9766 31.3066L93.1562 34.041H92.2285L92.7363 31.3066H93.9766ZM97.7168 24.832C99.1035 24.8418 100.471 25.6621 100.48 28.25C100.48 30.6914 99.377 32.0977 97.6387 32.0977C96.2715 32.0977 95.334 31.248 95.1777 30.0762H96.4375C96.5645 30.6328 96.9941 30.9941 97.6387 30.9941C98.6641 30.9941 99.2402 30.0859 99.25 28.5723H99.1719C98.8105 29.1875 98.1367 29.5488 97.3555 29.5488C96.0957 29.5488 95.1191 28.5918 95.1094 27.2539C95.1094 25.8672 96.1445 24.8223 97.7168 24.832ZM97.7266 25.8574C96.9355 25.8574 96.3398 26.4727 96.3496 27.2246C96.3496 27.9863 96.916 28.582 97.707 28.582C98.4883 28.582 99.1035 27.9473 99.0938 27.2148C99.0938 26.4922 98.5176 25.8574 97.7266 25.8574ZM104.045 24.832C105.432 24.8418 106.799 25.6621 106.809 28.25C106.809 30.6914 105.705 32.0977 103.967 32.0977C102.6 32.0977 101.662 31.248 101.506 30.0762H102.766C102.893 30.6328 103.322 30.9941 103.967 30.9941C104.992 30.9941 105.568 30.0859 105.578 28.5723H105.5C105.139 29.1875 104.465 29.5488 103.684 29.5488C102.424 29.5488 101.447 28.5918 101.438 27.2539C101.438 25.8672 102.473 24.8223 104.045 24.832ZM104.055 25.8574C103.264 25.8574 102.668 26.4727 102.678 27.2246C102.678 27.9863 103.244 28.582 104.035 28.582C104.816 28.582 105.432 27.9473 105.422 27.2148C105.422 26.4922 104.846 25.8574 104.055 25.8574ZM110.373 24.832C111.76 24.8418 113.127 25.6621 113.137 28.25C113.137 30.6914 112.033 32.0977 110.295 32.0977C108.928 32.0977 107.99 31.248 107.834 30.0762H109.094C109.221 30.6328 109.65 30.9941 110.295 30.9941C111.32 30.9941 111.896 30.0859 111.906 28.5723H111.828C111.467 29.1875 110.793 29.5488 110.012 29.5488C108.752 29.5488 107.775 28.5918 107.766 27.2539C107.766 25.8672 108.801 24.8223 110.373 24.832ZM110.383 25.8574C109.592 25.8574 108.996 26.4727 109.006 27.2246C109.006 27.9863 109.572 28.582 110.363 28.582C111.145 28.582 111.76 27.9473 111.75 27.2148C111.75 26.4922 111.174 25.8574 110.383 25.8574ZM121.291 24.041V29.2363H120.207V28.0156H118.43V28.6992H114.279V24.7051H118.43V25.3887H120.207V24.041H121.291ZM115.363 25.5645V27.8301H117.355V25.5645H115.363ZM118.303 29.4707C120.178 29.4707 121.32 30.0957 121.32 31.1699C121.32 32.2441 120.178 32.8594 118.303 32.8594C116.438 32.8594 115.295 32.2441 115.305 31.1699C115.295 30.0957 116.438 29.4707 118.303 29.4707ZM118.303 30.3008C117.072 30.3008 116.379 30.6035 116.379 31.1699C116.379 31.7168 117.072 32.0195 118.303 32.0195C119.533 32.0195 120.236 31.7168 120.236 31.1699C120.236 30.6035 119.533 30.3008 118.303 30.3008ZM118.43 27.1367H120.207V26.248H118.43V27.1367ZM125.402 24.6562C126.799 24.6465 127.824 25.5352 127.834 26.7852C127.824 28.0449 126.799 28.9238 125.402 28.9238C124.016 28.9238 122.98 28.0449 122.98 26.7852C122.98 25.5352 124.016 24.6465 125.402 24.6562ZM125.402 25.5938C124.631 25.5938 124.055 26.0527 124.055 26.7852C124.055 27.5273 124.631 27.9766 125.402 27.9766C126.184 27.9766 126.77 27.5273 126.77 26.7852C126.77 26.0527 126.184 25.5938 125.402 25.5938ZM129.895 24.041V32.8789H128.811V24.041H129.895ZM122.58 30.1445C124.172 30.1445 126.379 30.125 128.283 29.8516L128.371 30.6426C126.389 31.0234 124.27 31.0332 122.717 31.0332L122.58 30.1445ZM141.613 28.9922V29.8711H139.65V32.8691H138.547V29.8711H136.594V32.8691H135.48V29.8711H133.547V28.9922H141.613ZM137.561 24.3535C139.436 24.3633 140.744 25.125 140.744 26.3262C140.744 27.5078 139.436 28.2598 137.561 28.2598C135.676 28.2598 134.387 27.5078 134.396 26.3262C134.387 25.125 135.676 24.3633 137.561 24.3535ZM137.561 25.2324C136.311 25.2324 135.5 25.6328 135.51 26.3262C135.5 27 136.311 27.4004 137.561 27.4004C138.811 27.4004 139.621 27 139.621 26.3262C139.621 25.6328 138.811 25.2324 137.561 25.2324ZM149.602 24.041V32.8789H148.518V28.0547H146.818V27.166H148.518V24.041H149.602ZM145.441 26.3848C145.441 27.9082 146.262 29.5293 147.688 30.1445L147.043 31.0137C146.018 30.5254 145.285 29.5439 144.904 28.377C144.509 29.6221 143.762 30.6719 142.736 31.1895L142.082 30.3398C143.498 29.6758 144.328 27.9961 144.338 26.3848V25.7988H142.443V24.9102H147.336V25.7988H145.441V26.3848ZM158.898 27.5762V28.4355H150.842V27.5762H158.898ZM157.941 26.1504V27.0098H151.867V24.2656H157.863V25.1348H152.951V26.1504H157.941ZM157.883 29.041V31.2578H152.863V31.9316H158.127V32.7812H151.799V30.4766H156.818V29.8613H151.789V29.041H157.883ZM166.828 24.041V32.8789H165.734V24.041H166.828ZM162.072 24.6855C163.4 24.6855 164.367 25.8965 164.377 27.8008C164.367 29.7246 163.4 30.9258 162.072 30.9258C160.734 30.9258 159.768 29.7246 159.768 27.8008C159.768 25.8965 160.734 24.6855 162.072 24.6855ZM162.072 25.6621C161.32 25.6621 160.812 26.4531 160.812 27.8008C160.812 29.1582 161.32 29.9492 162.072 29.9492C162.814 29.9492 163.322 29.1582 163.322 27.8008C163.322 26.4531 162.814 25.6621 162.072 25.6621ZM177.844 24.041V32.8789H176.75V24.041H177.844ZM173.088 24.6855C174.416 24.6855 175.383 25.8965 175.393 27.8008C175.383 29.7246 174.416 30.9258 173.088 30.9258C171.75 30.9258 170.783 29.7246 170.783 27.8008C170.783 25.8965 171.75 24.6855 173.088 24.6855ZM173.088 25.6621C172.336 25.6621 171.828 26.4531 171.828 27.8008C171.828 29.1582 172.336 29.9492 173.088 29.9492C173.83 29.9492 174.338 29.1582 174.338 27.8008C174.338 26.4531 173.83 25.6621 173.088 25.6621ZM189.133 24.041V32.8691H188.088V28.3477H187.15V32.4395H186.125V24.1973H187.15V27.4492H188.088V24.041H189.133ZM185.256 24.998V30.5938H181.789V24.998H185.256ZM182.805 25.8574V29.7344H184.24V25.8574H182.805ZM197.492 24.041V32.8691H196.408V24.041H197.492ZM193.547 26.8438C193.547 28.1914 194.367 29.627 195.793 30.2227L195.197 31.0527C194.182 30.6279 193.425 29.7441 193.02 28.6797C192.624 29.8076 191.862 30.75 190.832 31.1992L190.246 30.3594C191.652 29.7344 192.463 28.25 192.463 26.8438V26.3848H190.52V25.5156H192.463V24.2266H193.537V25.5156H195.441V26.3848H193.547V26.8438ZM206.418 24.041V32.8691H205.373V24.041H206.418ZM204.602 24.1973V32.4395H203.566V28.2402H202.727C202.624 29.959 201.887 31.0234 200.793 31.0137C199.641 31.0234 198.889 29.8027 198.889 27.8594C198.889 25.916 199.641 24.7148 200.793 24.7148C201.862 24.7148 202.59 25.7109 202.717 27.3613H203.566V24.1973H204.602ZM200.793 25.7402C200.236 25.7305 199.885 26.4824 199.895 27.8594C199.885 29.2363 200.236 29.9883 200.793 29.9785C201.379 29.9883 201.73 29.2363 201.73 27.8594C201.73 26.4824 201.379 25.7305 200.793 25.7402ZM212.99 25.8574C212.99 26.8145 213.703 27.752 215.09 28.1328L214.592 28.9727C213.576 28.6992 212.854 28.1035 212.463 27.3418C212.072 28.1816 211.335 28.8311 210.285 29.1289L209.768 28.2891C211.164 27.8984 211.906 26.9121 211.906 25.8574V25.8379H210.061V24.9785H211.906V24.002H213V24.9785H214.836V25.8379H212.99V25.8574ZM216.779 24.041V26.1699H218.01V27.0684H216.779V29.2363H215.695V24.041H216.779ZM216.779 29.6074V32.7617H211.076V29.6074H216.779ZM212.15 30.4668V31.8828H215.705V30.4668H212.15ZM220.871 24.6855C221.672 24.6855 222.331 25.1299 222.727 25.9062H224.787V24.041H225.861V32.8789H224.787V29.5391H222.805C222.424 30.418 221.726 30.9258 220.871 30.9258C219.543 30.9258 218.605 29.7246 218.605 27.8008C218.605 25.8965 219.543 24.6855 220.871 24.6855ZM220.871 25.6621C220.139 25.6621 219.641 26.4531 219.65 27.8008C219.641 29.1582 220.139 29.9492 220.871 29.9492C221.604 29.9492 222.092 29.1582 222.102 27.8008C222.092 26.4531 221.604 25.6621 220.871 25.6621ZM223.029 26.7949C223.093 27.1025 223.127 27.4395 223.127 27.8008C223.127 28.1084 223.103 28.3916 223.059 28.6602H224.787V26.7949H223.029ZM234.65 24.0508V29.4902H233.615V27.2539H232.775V29.3828H231.76V24.1777H232.775V26.3652H233.615V24.0508H234.65ZM231.447 24.9492V25.8086H227.053V24.9492H228.723V24.0898H229.797V24.9492H231.447ZM229.26 26.1406C230.383 26.1504 231.174 26.7559 231.184 27.6738C231.174 28.582 230.383 29.207 229.26 29.207C228.156 29.207 227.355 28.582 227.365 27.6738C227.355 26.7559 228.156 26.1504 229.26 26.1406ZM229.26 26.9316C228.713 26.9316 228.332 27.1953 228.332 27.6738C228.332 28.1328 228.703 28.416 229.26 28.416C229.816 28.416 230.197 28.1328 230.197 27.6738C230.197 27.1953 229.816 26.9316 229.26 26.9316ZM230.393 29.9785C230.393 30.6621 230.72 31.3652 231.457 31.8047C232.204 31.3359 232.551 30.5938 232.561 29.9785V29.7637H233.635V29.9785C233.635 30.8184 234.191 31.6289 235.344 31.9414L234.836 32.7617C233.972 32.4883 233.396 31.9414 233.088 31.2578C232.81 31.9316 232.292 32.5322 231.477 32.8398C230.646 32.5469 230.124 31.9805 229.846 31.3066C229.523 31.9512 228.947 32.4834 228.127 32.7617L227.619 31.9414C228.752 31.5996 229.318 30.7695 229.318 29.9785V29.7637H230.393V29.9785ZM238.156 24.6855C239.353 24.6855 240.236 25.6816 240.393 27.293H242.072V24.041H243.146V32.8789H242.072V28.1719H240.402C240.285 29.876 239.387 30.9258 238.156 30.9258C236.828 30.9258 235.891 29.7246 235.891 27.8008C235.891 25.8965 236.828 24.6855 238.156 24.6855ZM238.156 25.6621C237.424 25.6621 236.926 26.4531 236.936 27.8008C236.926 29.1582 237.424 29.9492 238.156 29.9492C238.889 29.9492 239.377 29.1582 239.387 27.8008C239.377 26.4531 238.889 25.6621 238.156 25.6621ZM252.453 30.9062V31.7949H244.387V30.9062H246.252V28.6699C245.549 28.2695 245.124 27.6396 245.129 26.8535C245.119 25.4473 246.506 24.5195 248.4 24.5195C250.305 24.5195 251.691 25.4473 251.691 26.8535C251.691 27.625 251.281 28.2451 250.598 28.6504V30.9062H252.453ZM248.4 25.3789C247.082 25.3789 246.184 25.9355 246.193 26.8535C246.184 27.7617 247.082 28.3281 248.4 28.3281C249.719 28.3281 250.627 27.7617 250.627 26.8535C250.627 25.9355 249.719 25.3789 248.4 25.3789ZM247.326 30.9062H249.494V29.0605C249.157 29.1387 248.791 29.1777 248.4 29.1777C248.02 29.1777 247.658 29.1387 247.326 29.0703V30.9062Z" fill="white"/>
<path d="M95.1845 54.608H103.297V57.56H91.8005V46.808H101.761V49.928H95.1845V54.608ZM108.577 58.136H105.097V45.248H108.577V50.24H112.033V53.432H108.577V58.136ZM100.873 63.44C100.873 63.984 101.081 64.448 101.497 64.832C101.913 65.216 102.425 65.408 103.033 65.408C103.625 65.408 104.129 65.216 104.545 64.832C104.977 64.448 105.193 63.984 105.193 63.44C105.193 62.912 104.977 62.456 104.545 62.072C104.129 61.688 103.625 61.496 103.033 61.496C102.425 61.496 101.913 61.688 101.497 62.072C101.081 62.456 100.873 62.912 100.873 63.44ZM97.6325 63.44C97.6325 62.768 97.7685 62.136 98.0405 61.544C98.3285 60.936 98.7205 60.408 99.2165 59.96C99.6965 59.528 100.265 59.184 100.921 58.928C101.577 58.656 102.281 58.52 103.033 58.52C103.769 58.52 104.465 58.656 105.121 58.928C105.777 59.184 106.361 59.528 106.873 59.96C107.353 60.408 107.729 60.936 108.001 61.544C108.289 62.136 108.433 62.768 108.433 63.44C108.433 64.128 108.289 64.768 108.001 65.36C107.729 65.968 107.353 66.488 106.873 66.92C106.361 67.368 105.777 67.72 105.121 67.976C104.465 68.232 103.769 68.36 103.033 68.36C102.281 68.36 101.577 68.232 100.921 67.976C100.265 67.72 99.6965 67.368 99.2165 66.92C98.7205 66.488 98.3285 65.968 98.0405 65.36C97.7685 64.768 97.6325 64.128 97.6325 63.44ZM131.143 59.6H127.639V45.248H131.143V59.6ZM130.519 67.472H118.207V59.816H121.711V64.4H130.519V67.472ZM125.359 56L122.551 58.016L118.831 51.368L115.111 58.016L112.327 56L118.831 45.608L125.359 56ZM140.842 57.848C140.042 57.848 139.29 57.704 138.586 57.416C137.882 57.112 137.274 56.704 136.762 56.192C136.218 55.696 135.794 55.112 135.49 54.44C135.186 53.752 135.034 53.016 135.034 52.232C135.034 51.448 135.186 50.72 135.49 50.048C135.794 49.36 136.218 48.76 136.762 48.248C137.274 47.736 137.882 47.336 138.586 47.048C139.29 46.744 140.042 46.592 140.842 46.592C141.642 46.592 142.386 46.744 143.074 47.048C143.778 47.336 144.394 47.736 144.922 48.248C145.434 48.76 145.842 49.36 146.146 50.048C146.466 50.72 146.626 51.448 146.626 52.232C146.626 53.016 146.466 53.752 146.146 54.44C145.842 55.112 145.434 55.696 144.922 56.192C144.394 56.704 143.778 57.112 143.074 57.416C142.386 57.704 141.642 57.848 140.842 57.848ZM140.842 49.712C140.154 49.712 139.57 49.96 139.09 50.456C138.626 50.936 138.394 51.528 138.394 52.232C138.394 52.936 138.626 53.528 139.09 54.008C139.57 54.488 140.154 54.728 140.842 54.728C141.162 54.728 141.466 54.672 141.754 54.56C142.058 54.432 142.322 54.248 142.546 54.008C142.77 53.784 142.946 53.52 143.074 53.216C143.202 52.896 143.266 52.568 143.266 52.232C143.266 51.896 143.202 51.576 143.074 51.272C142.946 50.952 142.77 50.672 142.546 50.432C142.322 50.208 142.058 50.032 141.754 49.904C141.466 49.776 141.162 49.712 140.842 49.712ZM152.626 63.392H149.194V45.248H152.626V63.392ZM148.282 59.912V62.96H134.41V59.912H148.282ZM180.57 67.472H168.258V59.816H171.786V64.4H180.57V67.472ZM173.394 49.856H177.594V45.248H181.098V59.6H177.594V52.976H173.394V49.856ZM174.906 56.048L172.098 58.04L168.378 51.392L164.658 58.04L161.874 56.048L168.378 45.632L174.906 56.048ZM200.561 45.248H203.921V58.136H200.561V53.432H198.617V57.992H195.281V46.112H198.617V50.24H200.561V45.248ZM187.505 54.776H194.321V57.68H184.121V46.496H192.785V49.4H187.505V50.672H192.185V53.576H187.505V54.776ZM203.321 67.616H199.817V62.288H191.657V59.432H203.321V67.616ZM224.206 56.408V59.456H206.326V56.408H224.206ZM212.35 60.416V64.568H222.262V67.472H208.87V60.416H212.35ZM215.278 47.312C214.526 47.312 213.894 47.552 213.382 48.032C212.886 48.512 212.638 49.104 212.638 49.808C212.638 50.496 212.886 51.08 213.382 51.56C213.894 52.04 214.526 52.28 215.278 52.28C216.014 52.28 216.638 52.04 217.15 51.56C217.662 51.08 217.918 50.496 217.918 49.808C217.918 49.104 217.662 48.512 217.15 48.032C216.638 47.552 216.014 47.312 215.278 47.312ZM215.278 55.28C214.43 55.28 213.638 55.136 212.902 54.848C212.166 54.56 211.526 54.168 210.982 53.672C210.422 53.192 209.982 52.616 209.662 51.944C209.342 51.272 209.182 50.56 209.182 49.808C209.182 49.04 209.342 48.32 209.662 47.648C209.982 46.976 210.422 46.392 210.982 45.896C211.526 45.416 212.166 45.032 212.902 44.744C213.638 44.456 214.43 44.312 215.278 44.312C216.11 44.312 216.894 44.456 217.63 44.744C218.382 45.032 219.038 45.416 219.598 45.896C220.126 46.392 220.55 46.976 220.87 47.648C221.19 48.32 221.35 49.04 221.35 49.808C221.35 50.56 221.19 51.272 220.87 51.944C220.55 52.616 220.126 53.192 219.598 53.672C219.038 54.168 218.382 54.56 217.63 54.848C216.894 55.136 216.11 55.28 215.278 55.28ZM231.005 60.152C231.581 60.152 232.061 60.36 232.445 60.776C232.845 61.176 233.045 61.64 233.045 62.168C233.045 62.696 232.845 63.16 232.445 63.56C232.061 63.96 231.581 64.16 231.005 64.16C230.413 64.16 229.925 63.96 229.541 63.56C229.173 63.16 228.989 62.696 228.989 62.168C228.989 61.64 229.173 61.176 229.541 60.776C229.925 60.36 230.413 60.152 231.005 60.152ZM226.805 50.216V46.808C227.413 46.328 228.093 45.96 228.845 45.704C229.597 45.432 230.325 45.296 231.029 45.296C232.645 45.296 233.885 45.68 234.749 46.448C235.613 47.2 236.045 48.248 236.045 49.592C236.045 50.088 235.965 50.56 235.805 51.008C235.661 51.44 235.477 51.848 235.253 52.232C235.013 52.632 234.749 53 234.461 53.336C234.173 53.672 233.901 53.976 233.645 54.248C233.181 54.728 232.829 55.136 232.589 55.472C232.349 55.808 232.229 56.24 232.229 56.768C232.229 57.04 232.245 57.328 232.277 57.632C232.325 57.936 232.437 58.376 232.613 58.952H229.805C229.661 58.552 229.565 58.16 229.517 57.776C229.485 57.376 229.469 57.008 229.469 56.672C229.469 55.824 229.629 55.104 229.949 54.512C230.269 53.904 230.701 53.32 231.245 52.76C231.693 52.312 232.093 51.864 232.445 51.416C232.797 50.952 232.973 50.44 232.973 49.88C232.973 49.224 232.773 48.744 232.373 48.44C231.989 48.12 231.437 47.96 230.717 47.96C230.189 47.96 229.613 48.12 228.989 48.44C228.365 48.744 227.637 49.336 226.805 50.216Z" fill="white"/>
</g>
<defs>
<filter id="filter0_diiii_1398_24058" x="41.64" y="82.6804" width="95.5222" height="96.8832" filterUnits="userSpaceOnUse" color-interpolation-filters="sRGB">
<feFlood flood-opacity="0" result="BackgroundImageFix"/>
<feColorMatrix in="SourceAlpha" type="matrix" values="0 0 0 0 0 0 0 0 0 0 0 0 0 0 0 0 0 0 127 0" result="hardAlpha"/>
<feOffset dx="5.44" dy="5.44"/>
<feGaussianBlur stdDeviation="2.72"/>
<feComposite in2="hardAlpha" operator="out"/>
<feColorMatrix type="matrix" values="0 0 0 0 0 0 0 0 0 0 0 0 0 0 0 0 0 0 0.25 0"/>
<feBlend mode="normal" in2="BackgroundImageFix" result="effect1_dropShadow_1398_24058"/>
<feBlend mode="normal" in="SourceGraphic" in2="effect1_dropShadow_1398_24058" result="shape"/>
<feColorMatrix in="SourceAlpha" type="matrix" values="0 0 0 0 0 0 0 0 0 0 0 0 0 0 0 0 0 0 127 0" result="hardAlpha"/>
<feMorphology radius="5.44" operator="erode" in="SourceAlpha" result="effect2_innerShadow_1398_24058"/>
<feOffset/>
<feGaussianBlur stdDeviation="8.16"/>
<feComposite in2="hardAlpha" operator="arithmetic" k2="-1" k3="1"/>
<feColorMatrix type="matrix" values="0 0 0 0 1 0 0 0 0 0.984756 0 0 0 0 0.847556 0 0 0 1 0"/>
<feBlend mode="normal" in2="shape" result="effect2_innerShadow_1398_24058"/>
<feColorMatrix in="SourceAlpha" type="matrix" values="0 0 0 0 0 0 0 0 0 0 0 0 0 0 0 0 0 0 127 0" result="hardAlpha"/>
<feOffset dx="4.08" dy="2.72"/>
<feGaussianBlur stdDeviation="3.4"/>
<feComposite in2="hardAlpha" operator="arithmetic" k2="-1" k3="1"/>
<feColorMatrix type="matrix" values="0 0 0 0 1 0 0 0 0 1 0 0 0 0 1 0 0 0 1 0"/>
<feBlend mode="normal" in2="effect2_innerShadow_1398_24058" result="effect3_innerShadow_1398_24058"/>
<feColorMatrix in="SourceAlpha" type="matrix" values="0 0 0 0 0 0 0 0 0 0 0 0 0 0 0 0 0 0 127 0" result="hardAlpha"/>
<feMorphology radius="4.08" operator="erode" in="SourceAlpha" result="effect4_innerShadow_1398_24058"/>
<feOffset dx="-1.36" dy="-2.72"/>
<feGaussianBlur stdDeviation="5.44"/>
<feComposite in2="hardAlpha" operator="arithmetic" k2="-1" k3="1"/>
<feColorMatrix type="matrix" values="0 0 0 0 1 0 0 0 0 0.806263 0 0 0 0 0.105828 0 0 0 0.73 0"/>
<feBlend mode="normal" in2="effect3_innerShadow_1398_24058" result="effect4_innerShadow_1398_24058"/>
<feColorMatrix in="SourceAlpha" type="matrix" values="0 0 0 0 0 0 0 0 0 0 0 0 0 0 0 0 0 0 127 0" result="hardAlpha"/>
<feOffset dx="2.72" dy="2.72"/>
<feGaussianBlur stdDeviation="2.04"/>
<feComposite in2="hardAlpha" operator="arithmetic" k2="-1" k3="1"/>
<feColorMatrix type="matrix" values="0 0 0 0 1 0 0 0 0 1 0 0 0 0 1 0 0 0 1 0"/>
<feBlend mode="normal" in2="effect4_innerShadow_1398_24058" result="effect5_innerShadow_1398_24058"/>
</filter>
<filter id="filter1_di_1398_24058" x="53.3514" y="90.7821" width="58.8977" height="72.0901" filterUnits="userSpaceOnUse" color-interpolation-filters="sRGB">
<feFlood flood-opacity="0" result="BackgroundImageFix"/>
<feColorMatrix in="SourceAlpha" type="matrix" values="0 0 0 0 0 0 0 0 0 0 0 0 0 0 0 0 0 0 127 0" result="hardAlpha"/>
<feOffset/>
<feGaussianBlur stdDeviation="5.44"/>
<feComposite in2="hardAlpha" operator="out"/>
<feColorMatrix type="matrix" values="0 0 0 0 1 0 0 0 0 0.683981 0 0 0 0 0.138129 0 0 0 1 0"/>
<feBlend mode="normal" in2="BackgroundImageFix" result="effect1_dropShadow_1398_24058"/>
<feBlend mode="normal" in="SourceGraphic" in2="effect1_dropShadow_1398_24058" result="shape"/>
<feColorMatrix in="SourceAlpha" type="matrix" values="0 0 0 0 0 0 0 0 0 0 0 0 0 0 0 0 0 0 127 0" result="hardAlpha"/>
<feOffset/>
<feGaussianBlur stdDeviation="2.04"/>
<feComposite in2="hardAlpha" operator="arithmetic" k2="-1" k3="1"/>
<feColorMatrix type="matrix" values="0 0 0 0 0.779447 0 0 0 0 0.897075 0 0 0 0 1 0 0 0 1 0"/>
<feBlend mode="normal" in2="shape" result="effect2_innerShadow_1398_24058"/>
</filter>
<filter id="filter2_dii_1398_24058" x="207" y="85" width="94.1622" height="94.1632" filterUnits="userSpaceOnUse" color-interpolation-filters="sRGB">
<feFlood flood-opacity="0" result="BackgroundImageFix"/>
<feColorMatrix in="SourceAlpha" type="matrix" values="0 0 0 0 0 0 0 0 0 0 0 0 0 0 0 0 0 0 127 0" result="hardAlpha"/>
<feOffset dx="5.44" dy="5.44"/>
<feGaussianBlur stdDeviation="2.72"/>
<feComposite in2="hardAlpha" operator="out"/>
<feColorMatrix type="matrix" values="0 0 0 0 0 0 0 0 0 0 0 0 0 0 0 0 0 0 0.25 0"/>
<feBlend mode="normal" in2="BackgroundImageFix" result="effect1_dropShadow_1398_24058"/>
<feBlend mode="normal" in="SourceGraphic" in2="effect1_dropShadow_1398_24058" result="shape"/>
<feColorMatrix in="SourceAlpha" type="matrix" values="0 0 0 0 0 0 0 0 0 0 0 0 0 0 0 0 0 0 127 0" result="hardAlpha"/>
<feOffset/>
<feGaussianBlur stdDeviation="5.44"/>
<feComposite in2="hardAlpha" operator="arithmetic" k2="-1" k3="1"/>
<feColorMatrix type="matrix" values="0 0 0 0 0 0 0 0 0 0 0 0 0 0 0 0 0 0 0.25 0"/>
<feBlend mode="normal" in2="shape" result="effect2_innerShadow_1398_24058"/>
<feColorMatrix in="SourceAlpha" type="matrix" values="0 0 0 0 0 0 0 0 0 0 0 0 0 0 0 0 0 0 127 0" result="hardAlpha"/>
<feOffset dx="2.72" dy="2.72"/>
<feGaussianBlur stdDeviation="2.72"/>
<feComposite in2="hardAlpha" operator="arithmetic" k2="-1" k3="1"/>
<feColorMatrix type="matrix" values="0 0 0 0 1 0 0 0 0 1 0 0 0 0 1 0 0 0 1 0"/>
<feBlend mode="normal" in2="effect2_innerShadow_1398_24058" result="effect3_innerShadow_1398_24058"/>
</filter>
<filter id="filter3_d_1398_24058" x="231.529" y="129.338" width="53.3253" height="32.007" filterUnits="userSpaceOnUse" color-interpolation-filters="sRGB">
<feFlood flood-opacity="0" result="BackgroundImageFix"/>
<feColorMatrix in="SourceAlpha" type="matrix" values="0 0 0 0 0 0 0 0 0 0 0 0 0 0 0 0 0 0 127 0" result="hardAlpha"/>
<feOffset dy="1.36"/>
<feGaussianBlur stdDeviation="2.72"/>
<feComposite in2="hardAlpha" operator="out"/>
<feColorMatrix type="matrix" values="0 0 0 0 0 0 0 0 0 0 0 0 0 0 0 0 0 0 0.25 0"/>
<feBlend mode="normal" in2="BackgroundImageFix" result="effect1_dropShadow_1398_24058"/>
<feBlend mode="normal" in="SourceGraphic" in2="effect1_dropShadow_1398_24058" result="shape"/>
</filter>
<filter id="filter4_di_1398_24058" x="215.031" y="87.6448" width="57.7925" height="68.5581" filterUnits="userSpaceOnUse" color-interpolation-filters="sRGB">
<feFlood flood-opacity="0" result="BackgroundImageFix"/>
<feColorMatrix in="SourceAlpha" type="matrix" values="0 0 0 0 0 0 0 0 0 0 0 0 0 0 0 0 0 0 127 0" result="hardAlpha"/>
<feOffset/>
<feGaussianBlur stdDeviation="6.12"/>
<feComposite in2="hardAlpha" operator="out"/>
<feColorMatrix type="matrix" values="0 0 0 0 0.204235 0 0 0 0 1 0 0 0 0 0.557457 0 0 0 1 0"/>
<feBlend mode="normal" in2="BackgroundImageFix" result="effect1_dropShadow_1398_24058"/>
<feBlend mode="normal" in="SourceGraphic" in2="effect1_dropShadow_1398_24058" result="shape"/>
<feColorMatrix in="SourceAlpha" type="matrix" values="0 0 0 0 0 0 0 0 0 0 0 0 0 0 0 0 0 0 127 0" result="hardAlpha"/>
<feOffset/>
<feGaussianBlur stdDeviation="3.4"/>
<feComposite in2="hardAlpha" operator="arithmetic" k2="-1" k3="1"/>
<feColorMatrix type="matrix" values="0 0 0 0 1 0 0 0 0 1 0 0 0 0 1 0 0 0 1 0"/>
<feBlend mode="normal" in2="shape" result="effect2_innerShadow_1398_24058"/>
</filter>
<filter id="filter5_d_1398_24058" x="230.432" y="102.734" width="26.9816" height="26.9816" filterUnits="userSpaceOnUse" color-interpolation-filters="sRGB">
<feFlood flood-opacity="0" result="BackgroundImageFix"/>
<feColorMatrix in="SourceAlpha" type="matrix" values="0 0 0 0 0 0 0 0 0 0 0 0 0 0 0 0 0 0 127 0" result="hardAlpha"/>
<feOffset/>
<feGaussianBlur stdDeviation="2.72"/>
<feComposite in2="hardAlpha" operator="out"/>
<feColorMatrix type="matrix" values="0 0 0 0 0 0 0 0 0 0 0 0 0 0 0 0 0 0 0.25 0"/>
<feBlend mode="normal" in2="BackgroundImageFix" result="effect1_dropShadow_1398_24058"/>
<feBlend mode="normal" in="SourceGraphic" in2="effect1_dropShadow_1398_24058" result="shape"/>
</filter>
<linearGradient id="paint0_linear_1398_24058" x1="39.6" y1="92.2333" x2="102.16" y2="174.4" gradientUnits="userSpaceOnUse">
<stop offset="0.0810824" stop-color="white"/>
<stop offset="1" stop-color="#6D96FF"/>
</linearGradient>
<linearGradient id="paint1_linear_1398_24058" x1="224.6" y1="85" x2="292.6" y2="153" gradientUnits="userSpaceOnUse">
<stop stop-color="white"/>
<stop offset="1" stop-color="#4D7FFF"/>
</linearGradient>
<clipPath id="clip0_1398_24058">
<rect width="328" height="184" rx="8" fill="white"/>
</clipPath>
<clipPath id="clip1_1398_24058">
<rect x="43" y="103" width="68" height="68" rx="8.16" transform="rotate(-15 43 103)" fill="white"/>
</clipPath>
<clipPath id="clip2_1398_24058">
<rect x="224.6" y="85" width="68" height="68" rx="8.16" transform="rotate(15 224.6 85)" fill="white"/>
</clipPath>
</defs>
</svg>
