<svg width="328" height="100" viewBox="0 0 328 100" fill="none" xmlns="http://www.w3.org/2000/svg">
<g clip-path="url(#clip0_2135_31622)">
<rect x="-136" width="600" height="100" fill="#FE9D01"/>
<path d="M-136 108L464 -32V132H-136V108Z" fill="#FFCC67"/>
<rect x="118" y="34.5" width="6" height="6" fill="#03C75A"/>
<rect x="128.5" y="33" width="3" height="3" fill="#FEE500"/>
<rect x="24" y="70" width="280" height="8" rx="4" fill="white"/>
<rect x="24.5" y="70.5" width="180" height="7" rx="3.5" fill="#FFB200" stroke="white"/>
<path d="M26.9785 91.0977C25.4062 91.0977 24.5078 89.7793 24.5078 87.4648C24.5078 85.1699 25.4258 83.832 26.9785 83.832C28.5312 83.832 29.4492 85.1699 29.4492 87.4648C29.4492 89.7793 28.541 91.0977 26.9785 91.0977ZM26.9785 90.3164C27.9941 90.3164 28.5898 89.291 28.5898 87.4648C28.5898 85.6387 27.9941 84.5938 26.9785 84.5938C25.9629 84.5938 25.3574 85.6387 25.3574 87.4648C25.3574 89.291 25.9531 90.3164 26.9785 90.3164Z" fill="white"/>
<path d="M302.779 83.9297V91H301.891V84.8477H301.852L300.133 85.9902V85.1016L301.891 83.9297H302.779Z" fill="white"/>
<path d="M25.875 27V18.5156H27.3984V25.7109H31.1484V27H25.875ZM32.6133 18.5156L34.8164 25.207H34.9102L37.125 18.5156H38.8008L35.8008 27H33.9258L30.9375 18.5156H32.6133ZM39.5391 27.0938C39.0352 27.0938 38.625 26.6836 38.625 26.1797C38.625 25.6875 39.0352 25.2773 39.5391 25.2773C40.0195 25.2773 40.4414 25.6875 40.4414 26.1797C40.4414 26.6836 40.0195 27.0938 39.5391 27.0938ZM44.6602 27.1172C42.6211 27.1172 41.4023 25.5352 41.4023 22.7578C41.4023 19.9922 42.6211 18.3984 44.6602 18.3984C46.6875 18.3984 47.918 19.9922 47.918 22.7578C47.918 25.5352 46.6992 27.1172 44.6602 27.1172ZM44.6602 25.8398C45.7266 25.8398 46.3828 24.7969 46.3828 22.7578C46.3828 20.7305 45.7148 19.6641 44.6602 19.6641C43.6055 19.6641 42.9375 20.7305 42.9375 22.7578C42.9375 24.7969 43.5938 25.8398 44.6602 25.8398ZM52.6406 18.5156V27H51.1055V20.0039H51.0586L49.0781 21.2695V19.875L51.1758 18.5156H52.6406Z" fill="white"/>
<path d="M26.54 48.56L24.6 46.68L29.1 42.64H25.72V40.26H29.74V37.74H32.62V40.26H36.64V42.64H33.26L37.76 46.68L35.82 48.56L31.16 44.06L26.54 48.56ZM38.62 52.66H23.74V50.06H29.72V46.98H32.64V50.06H38.62V52.66ZM55.0263 52.66H40.1463V50.06H46.1263V48H41.9062V38.98H44.7463V41.66H50.4463V39.6H53.3063V48H49.0463V50.06H55.0263V52.66ZM44.7463 43.86V45.78H50.4463V43.86H44.7463ZM61.4725 37.84L66.9125 46.26L64.5725 47.94L61.4725 42.64L58.3725 47.94L56.0525 46.26L61.4725 37.84ZM71.7325 48.28H68.8125V37.54H71.7325V48.28ZM61.0125 49.36H71.2325V56.06H61.0125V49.36ZM63.8525 53.86H68.3725V51.56H63.8525V53.86ZM88.8748 41.96H91.7348V44.6H88.8748V49.5H85.9548V37.54H88.8748V41.96ZM88.6348 56.06H78.3748V49.68H81.3148V53.5H88.6348V56.06ZM73.9548 45.74H75.5548V41.18H73.9548V38.86H84.4348V41.18H82.8348V45.74H84.4348V48.06H73.9548V45.74ZM80.1148 45.74V41.18H78.2748V45.74H80.1148ZM107.27 41.96H110.13V44.6H107.27V50H104.35V37.54H107.27V41.96ZM102.75 45.6H99.9305V40.6H93.6305V38H102.75V45.6ZM106.77 56.06H96.5305V50.06H99.4505V53.5H106.77V56.06ZM103.67 46.3V48.7H92.9705V46.3H95.4505V42.96H98.3705V46.3H103.67Z" fill="white"/>
</g>
<defs>
<clipPath id="clip0_2135_31622">
<rect width="328" height="100" rx="8" fill="white"/>
</clipPath>
</defs>
</svg>
